<svg width="11" height="11" viewBox="0 0 11 11" fill="none" xmlns="http://www.w3.org/2000/svg">
<path d="M10.375 7.89417V9.8095C10.3751 9.94664 10.3231 10.0787 10.2296 10.179C10.1361 10.2794 10.0081 10.3405 9.87125 10.3501C9.63454 10.3663 9.44117 10.375 9.29167 10.375C4.50496 10.375 0.625 6.49504 0.625 1.70833C0.625 1.55883 0.633125 1.36546 0.649917 1.12875C0.659516 0.991949 0.720648 0.863881 0.820977 0.770388C0.921306 0.676895 1.05336 0.624938 1.1905 0.625H3.10583C3.17302 0.624932 3.23784 0.64984 3.28769 0.694886C3.33754 0.739932 3.36886 0.801899 3.37558 0.86875C3.38804 0.993334 3.39942 1.09246 3.41025 1.16775C3.5179 1.919 3.7385 2.64966 4.06458 3.33496C4.11604 3.44329 4.08246 3.57275 3.98496 3.64208L2.81604 4.47733C3.53075 6.14266 4.85788 7.4698 6.52321 8.1845L7.35738 7.01775C7.39147 6.97008 7.44122 6.93589 7.49794 6.92115C7.55466 6.9064 7.61475 6.91202 7.66775 6.93704C8.35297 7.26251 9.08344 7.48256 9.83442 7.58975C9.90971 7.60058 10.0088 7.6125 10.1323 7.62442C10.1991 7.63126 10.2609 7.66264 10.3059 7.71248C10.3508 7.76232 10.3756 7.82706 10.3755 7.89417H10.375Z" fill="url(#paint0_linear)"/>
<defs>
<linearGradient id="paint0_linear" x1="0.625" y1="5.5" x2="10.3755" y2="5.5" gradientUnits="userSpaceOnUse">
<stop stop-color="#283745"/>
<stop offset="1" stop-color="#152331"/>
</linearGradient>
</defs>
</svg>
