<svg width="18" height="19" fill="none" xmlns="http://www.w3.org/2000/svg"><path d="M8.778 18.073c-1.597 0-3.056-.383-4.376-1.149a8.533 8.533 0 0 1-3.104-3.128c-.75-1.32-1.125-2.77-1.125-4.352 0-1.58.375-3.03 1.125-4.35a8.476 8.476 0 0 1 3.129-3.13C5.747 1.2 7.213.816 8.827.816c1.613 0 3.072.374 4.375 1.124a8.117 8.117 0 0 1 3.105 3.104c.75 1.304 1.124 2.755 1.124 4.352 0 1.597-.383 3.063-1.149 4.4a8.476 8.476 0 0 1-3.129 3.128c-1.32.766-2.778 1.15-4.375 1.15Zm0-1.1c1.401 0 2.672-.334 3.813-1.002a7.229 7.229 0 0 0 2.689-2.738c.668-1.157 1.002-2.436 1.002-3.837 0-1.402-.326-2.673-.978-3.814a6.926 6.926 0 0 0-2.664-2.689c-1.124-.652-2.396-.977-3.813-.977-1.402 0-2.681.334-3.838 1.002A7.23 7.23 0 0 0 2.3 5.656c-.652 1.14-.978 2.403-.978 3.788 0 1.386.326 2.657.978 3.814a7.281 7.281 0 0 0 2.689 2.713c1.14.668 2.404 1.002 3.789 1.002Zm.269-2.493c-.994 0-1.883-.212-2.665-.636A4.6 4.6 0 0 1 4.55 12.06c-.44-.766-.66-1.638-.66-2.616 0-.977.22-1.85.66-2.615a4.6 4.6 0 0 1 1.833-1.785c.782-.423 1.67-.635 2.665-.635.847 0 1.621.18 2.322.538.7.358 1.247.839 1.638 1.442L11.613 7.39c-.586-.88-1.45-1.32-2.59-1.32-.946 0-1.728.31-2.347.929-.62.62-.93 1.434-.93 2.444s.31 1.826.93 2.445c.619.62 1.401.929 2.346.929 1.141 0 2.005-.44 2.591-1.32l1.394.978c-.391.619-.937 1.108-1.638 1.466-.7.359-1.475.538-2.322.538Z" fill="#EECE21"/></svg>