<svg width="119" height="152" fill="none" xmlns="http://www.w3.org/2000/svg"><path d="M112.854 70.545c-.007-.09-.026-.169-.045-.26a79.92 79.92 0 0 0-.212-1.172c-.071-.37-.135-.72-.186-1.05a330.46 330.46 0 0 1-.668-3.563c-.007-.02-.007-.026-.007-.026s-11.695-1.976-20.815-6.601c-9.113-4.632-23.544-11.856-24.16-12.465a1.093 1.093 0 0 0-.129-.117c-.039-.045-.084-.084-.122-.13-.456-.433-1.137-1.003-1.574-1.45a3.459 3.459 0 0 1-.276-.318.88.88 0 0 1-.135-.246c-.006-.039-.019-.065-.019-.097-.006-.04-.02-.084-.025-.13a7.4 7.4 0 0 1-.116-.68c-.007-.065-.026-.13-.039-.2l-.019-.085c-.02-.097-.045-.2-.07-.305a.146.146 0 0 0-.02-.064c-.02-.117-.051-.234-.083-.363a40.046 40.046 0 0 0-.212-.803c-.064-.188-.122-.383-.186-.577-.09-.246-.18-.486-.29-.732-.79-1.84-4.367-10.65-5.709-12.912-1.342-2.255-4.58-3.926-5.594-5.027-1.002-1.102-3.911-3.207-5.253-4.147-1.343-.939-3.212-2.863-4.11-3.232-.566-.247-1.504-.765-2.114-1.108l-.61-.363s-.45-1.69-2.723-3.945c-.97-.96-1.644-1.471-2.12-1.737-.019-.02-.038-.026-.063-.039a1.99 1.99 0 0 0-.572-.213c-.167-.04-.29-.007-.36.006-.025.007-.038.007-.051.02-.02.006-.039.006-.052.025a.463.463 0 0 0-.09.04c-.038.019-.083.038-.128.07-.02 0-.038.02-.051.026a.751.751 0 0 0-.122.072c-.007 0-.007 0-.02.02h-.012l-.225.142a.213.213 0 0 0-.07.052c-.007-.007-.007 0-.02 0a.4.4 0 0 0-.116.09c-.025.02-.051.04-.083.052-.045.026-.096.065-.141.097v.007h-.007c-.045.039-.09.071-.122.11-.026.026-.051.052-.083.071-.039.039-.071.065-.097.097a1.597 1.597 0 0 0-.36.434c-.006 0-.006.007-.006.02-.019.02-.026.039-.038.065a.443.443 0 0 0-.052.155c-.109.531-1.258 2.838-.59 6.019.224 1.075.661 2.248 1.412 3.492v.006c.27.434.52.83.777 1.186 2.563 3.666 4.361 3.375 5.414 4.34.335.305.566.512.758.694h.007c.231.2.392.35.584.53l.007.007c.154.136.314.298.507.512l.051.052c.084.09.18.188.277.298.16.181.366.389.59.615 1.118 1.128 2.756 2.618 2.756 2.618l-1.452-.04-.379.02c-.154 0-.334.007-.546.007h-.36c-.121 0-.256 0-.404-.007-.938-.006-2.042-.084-2.684-.278-.887-.279-1.96-.642-3.141-1.056-.225-.085-.456-.156-.7-.247-.225-.07-.456-.155-.687-.233 0 0 0-.006-.007-.006-.019 0-.038-.007-.045-.007-.199-.071-.391-.136-.59-.207-.071-.026-.135-.045-.206-.071-.18-.065-.36-.123-.54-.182-.25-.09-.5-.168-.75-.259-.45-.155-.894-.304-1.35-.453-.25-.091-.5-.169-.751-.253-.745-.246-1.496-.486-2.235-.72-.43-.122-.86-.258-1.278-.381-.045-.007-.09-.026-.135-.04-.385-.116-.758-.226-1.137-.336a41.807 41.807 0 0 0-1.862-.486c-.026-.007-.045-.007-.07-.02a26.962 26.962 0 0 0-.861-.2c-.95-.214-1.844-.37-2.646-.46a7.779 7.779 0 0 0-.643-.052 8.403 8.403 0 0 0-.68-.026c-.38 0-.726.02-1.04.071-.168.026-.341.065-.508.097-.026.007-.064.007-.09.02a22.967 22.967 0 0 0-2.049.57c-.295.097-.597.207-.905.317-.25.091-.501.188-.745.292-.007 0-.007.006-.007.006h-.006c-.116.046-.232.091-.34.137-.142.051-.277.116-.425.18-.115.04-.224.092-.34.143-.205.091-.417.182-.63.279-.706.317-1.393.648-2.054.985-.296.155-.585.298-.867.453-.43.227-.842.44-1.227.661h-.007c-.16.09-.334.181-.481.272a76.32 76.32 0 0 0-3.044 1.808c-.643.395-1.818 2.112-2.576 2.708-.751.59-1.175 1.658-1.259 1.833-.083.169-.212.959.34 2.034.553 1.076 1.568 2.087 1.844 2.229.02.039.045.045.084.052.038.006.083.02.128.026.09.02.199.026.321.039.482.038 1.163.026 1.644.045l.726.039s-.95.11-1.066.505c-.11.395-1.111 3.738-.976 4.308.14.57.674 1.957 2.068 2.942.186.13.36.252.52.35 1.053.706 1.554.92 1.554.92s-.026.006-.07.019c-.026.006-.052.02-.09.026-.052.006-.116.039-.187.052-.34.11-.867.304-1.233.59-.038.025-.083.051-.109.09a.883.883 0 0 0-.295.382c-.296.732-.591 2.792-.501 3.609.083.81.635 2.112 1.554 2.708.931.59 2.382 1.101 4.258 1.263 1.869.169 3.018.09 3.52.318.507.226 3.55.848 3.55.848s-3.55.557-4.225.81c-.674.253-1.895.875-2.344 1.808-.45.932-.29 3.213-.116 3.783.167.557 1.484 1.69 2.91 1.97.5.097.892.168 1.252.226.083.007.16.02.244.026.064.007.116.02.173.02.065 0 .135.006.2.006.417.039.834.02 1.36-.045 1.176-.143 2.075-.097 3.488-.02.707.04 1.407-.07 2.023-.168.366-.052.7-.097.983-.117.212-.006.405 0 .565.046.321.09 1.066.233 1.997.369.245.039.501.071.758.11.135.02.277.039.424.052.16.02.34.039.508.065.134.006.27.026.404.038.007.007.007.007.02.007.687.071 1.387.142 2.029.181 1.117.072 2.03.11 2.986.208h.007c.167.02.346.039.526.071.007-.007.026 0 .045 0 .842.11 1.767.278 2.916.57a13.71 13.71 0 0 0 2.39.395c.044.007.09.007.134.02h.09a20.202 20.202 0 0 0 4.27-.136c.161-.02.303-.04.45-.065.026 0 .052-.007.084-.007.038-.006.07-.006.115-.006.129-.02.257-.039.412-.045.366-.026.796-.026 1.271-.026.16 0 .321.006.482.006.205.007.417.007.636.026.09 0 .18 0 .27.007h.006c.212.006.43.019.636.025h.006c.2.007.379.026.565.04.122.006.244.019.36.025h.11c.083.007.153.02.23.02.2.02.38.026.553.045.096.006.199.006.289.02h.038c.38.038.7.064.931.084.084.006.154.02.206.02.154.019.244.025.244.025l.52.11c.167.039.38.084.61.136.18.04.386.084.598.136.083.02.166.04.257.052h.019a82.198 82.198 0 0 1 6.525 1.885c4.412 1.49 9.57 3.739 13.03 6.855 7.162 6.44 20.084 16.825 29.043 20.414.199.084.392.155.584.226.597.246 1.182.46 1.747.668h.019c.79.162 1.632.181 2.499.026 1.22-.214 2.414-.739 3.564-1.536 2.19-1.496 4.162-3.952 5.639-6.951a1535.543 1535.543 0 0 0-3.256-18.082c-.058-.194-.084-.37-.122-.544Z" fill="#F1BC95"/><path d="M111.736 64.494a6.378 6.378 0 0 0-2.158.039c-.09.02-.167.026-.25.052-1.432.291-2.839 1.03-4.143 2.086-.584.48-1.156 1.03-1.689 1.632-.025.04-.064.065-.09.098a20.26 20.26 0 0 0-2.517 3.621c-1.567 2.825-2.685 6.213-3.115 9.77-.051.388-.09.777-.116 1.166-.186 2.39-.038 4.606.386 6.556v.007c.777 3.518 2.46 6.187 4.707 7.43a6.426 6.426 0 0 0 1.747.668h.02a6.594 6.594 0 0 0 2.498.026c1.22-.214 2.415-.739 3.564-1.536 2.19-1.496 4.162-3.951 5.639-6.951 1.452-2.922 2.434-6.362 2.71-9.951.187-2.462.026-4.742-.43-6.725-1.028-4.464-3.513-7.496-6.763-7.988Z" fill="#F1BC95"/><path d="M111.736 64.494c-.006-.02-.006-.026-.006-.026s-11.695-1.976-20.815-6.602c-9.113-4.632-23.544-11.855-24.161-12.464-.039-.04-.084-.085-.129-.117-.038-.045-.083-.084-.121-.13-.457-.434-1.137-1.004-1.574-1.45-.276 2.617 1.895 5.804 3.885 7.093 1.407.914 3.019 1.451 4.458 2.294 1.881 1.082 3.43 2.656 5.138 3.997 3.371 2.637 7.353 4.367 11.31 6.006a410.319 410.319 0 0 0 8.894 3.556c1.092.415 2.82 1.005 4.888 1.652 2.774.888 6.178 1.886 9.46 2.773 1.933.525 3.828 1.01 5.542 1.406-1.034-4.464-3.519-7.496-6.769-7.988ZM64.654 44.067a4.205 4.205 0 0 0-.045-.42 3.623 3.623 0 0 0-.096-.5c-.007-.039-.02-.064-.02-.097-.006-.039-.019-.084-.025-.13a7.436 7.436 0 0 1-.116-.68c-.038-.181-.07-.369-.128-.59-.026-.135-.065-.278-.097-.42a39.19 39.19 0 0 0-.212-.804c-.064-.188-.122-.382-.186-.576a11.6 11.6 0 0 0-.289-.732c-.79-1.84-4.367-10.651-5.71-12.912-1.342-2.255-4.579-3.926-5.593-5.027-1.002-1.102-3.912-3.207-5.254-4.147-1.342-.94-3.211-2.863-4.11-3.233-.565-.246-1.503-.764-2.113-1.107l-.61-.363s-.45-1.691-2.723-3.946c-2.274-2.254-2.942-2.04-3.166-1.956-.02.006-.039.006-.052.026a.462.462 0 0 0-.09.039 3.124 3.124 0 0 0-.302.168c-.006 0-.019.007-.025.02h-.007c-.54.323-1.316.9-1.425 1.399-.142.713-2.158 4.587.822 9.517s5.028 4.477 6.19 5.533c1.157 1.056 1.189 1.01 2.204 2.105 1.002 1.095 3.346 3.233 3.346 3.233l-1.452-.039s-3.089.143-4.367-.26a159.652 159.652 0 0 1-3.911-1.327c-.411-.136-.835-.292-1.26-.434a230.024 230.024 0 0 0-5.837-1.944c-.43-.123-.86-.259-1.278-.382a56.171 56.171 0 0 0-3.134-.855c-.315-.084-.63-.156-.931-.214-.95-.214-1.844-.37-2.646-.46a7.78 7.78 0 0 0-.643-.052 8.403 8.403 0 0 0-.68-.026c-.38 0-.726.02-1.04.072-.168.025-.341.064-.508.097-.142.026-.29.064-.437.097-.546.13-1.117.298-1.702.486-.295.097-.597.207-.905.317-2.345.868-4.753 2.093-6.641 3.136h-.007c-.16.09-.334.181-.481.272a76.516 76.516 0 0 0-3.044 1.808c-.643.395-1.818 2.111-2.576 2.707-.751.59-1.175 1.659-1.259 1.834-.083.168-.212.959.34 2.034.553 1.076 1.568 2.086 1.844 2.229.02.006.045.013.084.02.038.006.083.019.128.025.09.02.199.026.321.039.482.039 1.163.026 1.644.045l.726.04s-.95.11-1.066.505c-.11.395-1.111 3.738-.976 4.308.14.57.674 1.956 2.068 2.941.186.13.36.253.52.35 1.053.706 1.554.92 1.554.92s-.026.006-.07.02c-.026.006-.052.019-.09.025-.052.007-.116.04-.187.052-.34.11-.867.304-1.233.59-.038.026-.083.051-.109.09a.882.882 0 0 0-.295.383c-.296.732-.591 2.792-.501 3.608.083.81.635 2.112 1.554 2.708.931.59 2.382 1.102 4.258 1.264 1.869.168 3.018.09 3.52.317.507.227 3.55.849 3.55.849s-3.55.557-4.225.81c-.674.252-1.895.874-2.344 1.807-.45.933-.29 3.213-.116 3.783.167.558 1.484 1.691 2.91 1.97.5.097.892.168 1.252.227.083.006.16.02.244.026.064.006.116.019.173.019.065 0 .135.007.2.007.417.038.834.019 1.36-.046 1.176-.142 2.075-.097 3.488-.02 1.413.085 2.813-.453 3.571-.246.752.214 3.84.68 6.14.823 2.293.143 3.686.143 6.486.849 2.794.706 5.569.486 7.412.207 1.843-.278 7.353.26 7.353.26l.52.11c.168.038.367.084.61.136.11.025.213.045.335.07.154.04.314.072.481.118h.065c.025.006.064.006.096.006.674 0 3.385-.382 6.101-6.122 2.89-6.11 5.222-13.489 4.875-17.382v-.007Z" fill="#EDB58C"/><path d="M64.513 43.147c-.007-.038-.02-.064-.02-.097-.006-.039-.019-.084-.025-.13a7.436 7.436 0 0 1-.116-.68c-.038-.181-.07-.369-.128-.59-.026-.135-.065-.278-.097-.42a39.19 39.19 0 0 0-.212-.804c-.064-.188-.122-.382-.186-.576a11.48 11.48 0 0 0-.289-.732c-.79-1.84-4.367-10.651-5.71-12.912-1.342-2.255-4.579-3.926-5.593-5.027-1.002-1.102-3.912-3.207-5.254-4.147-1.342-.94-3.211-2.863-4.11-3.233-.565-.246-1.503-.764-2.113-1.107l-.61-.363s-.45-1.691-2.723-3.946c-2.274-2.254-2.942-2.04-3.166-1.956-.02.006-.04.006-.052.026a.462.462 0 0 0-.09.039 3.124 3.124 0 0 0-.302.168c-.006 0-.019.007-.025.02h-.007c-.199.116-.43.272-.655.44-.366.298-.7.641-.77.959-.142.713-2.158 4.587.822 9.517s5.028 4.477 6.19 5.533c1.157 1.056 1.189 1.01 2.203 2.105 1.002 1.095 3.347 3.233 3.347 3.233s1.63 1.866 1.63 3.505c0 1.632-1.682 4.684 1.227 13.54 2.91 8.856 12.421 12.076 16.223 1.633.065-.162.116-.337.167-.506.25-.784.437-1.652.585-2.572a4.235 4.235 0 0 0-.045-.42 3.442 3.442 0 0 0-.096-.5Z" fill="#F7C199"/><path d="M63.909 40.426c-.064-.188-.122-.382-.186-.576a11.48 11.48 0 0 0-.29-.732c-.79-1.84-4.367-10.651-5.709-12.912-1.342-2.255-4.579-3.926-5.594-5.027-1.002-1.102-3.911-3.207-5.253-4.147-1.343-.94-3.212-2.863-4.11-3.233-.566-.246-1.503-.764-2.114-1.107l-.61-.363s-.45-1.691-2.723-3.946c-2.273-2.254-2.941-2.04-3.166-1.956-.02.006-.039.006-.051.026-.026.006-.052.02-.09.039a3.124 3.124 0 0 0-.302.168c-.006 0-.02.007-.026.02h-.006c-.2.116-.43.272-.655.44.096.823.289 1.626.68 2.345.662 1.231 1.844 2.086 3.032 2.806.957.57 1.952 1.081 2.98 1.535 1.567.693 2.973 1.373 4.27 2.494 1.388 1.212 2.692 2.404 4.317 3.298 1.226.667 2.53 1.211 3.622 2.086 1.259 1.01 2.138 2.41 2.973 3.81a116.042 116.042 0 0 1 4.265 7.877c.841.933 1.58 2.617 1.926 3.181.219.356.444.726.662 1.108a65.744 65.744 0 0 1 2.049 3.356c.135.2.27.389.41.577-.025-.117-.05-.24-.083-.357-.064-.259-.135-.525-.218-.81Z" fill="#EDB58C"/><path d="M37.333 8.39c-2.273-2.255-2.941-2.041-3.166-1.957-.02.007-.039.007-.051.026a.463.463 0 0 0-.09.039 3.123 3.123 0 0 0-.302.168c-.007 0-.02.007-.026.02h.007c.16 0 1.746.026 2.068.946.34.978.295 1.736 1.342 2.449 1.047.712 2.46 2.293 3.166 2.746.129.085.25.02.385-.123-.36-.213-.61-.363-.61-.363s-.45-1.697-2.723-3.951Z" fill="#FCDCC2"/><path d="M46.325 27.864c-.084-.279-.168-.557-.36-.764-.18-.208-.45-.318-.687-.434-1.471-.739-2.524-2.248-2.73-3.881-.026-.272-.045-.557-.154-.803-.257-.577-.925-.81-1.477-1.095-2.415-1.212-3.552-3.985-5.292-6.058-.565-.66-1.201-1.263-1.69-1.989a6.515 6.515 0 0 1-1.091-4.263c.038-.427.295-1.036.54-1.697-.495.324-1.041.784-1.13 1.199-.142.712-2.159 4.586.821 9.517 2.98 4.93 5.042 4.476 6.191 5.532 1.156 1.056 1.189 1.011 2.203 2.106 1.002 1.095 3.346 3.233 3.346 3.233l-1.451-.04s-3.09.143-4.367-.258c-1.426-.454-3.301-1.108-5.382-1.834.051.052.109.117.16.169.585.622 1.188 1.243 1.953 1.626 1.804.887 4.052.162 5.934.894.848.324 1.554.94 2.235 1.555.816.732 1.593 1.49 2.35 2.274-.134-.26.045-.57.27-.758.225-.188.495-.344.617-.603.128-.279.038-.602-.045-.894a132.72 132.72 0 0 0-.764-2.734Z" fill="#EDB58C"/><path d="M55.252 63.593c-1.189.713-2.428 1.406-3.796 1.678-1.362.26-2.884.04-3.905-.913-1.432-1.315-1.47-3.667-.668-5.461.797-1.788 2.235-3.175 3.526-4.652.7-.784 1.368-1.626 1.721-2.617.931-2.637-.597-5.462-2.074-7.84-1.053-1.703-2.12-3.42-3.18-5.13-.121-.201-.269-.409-.48-.48-.277-.071-.547.097-.778.272-4.008 2.89-8.028 5.786-12.035 8.688-.957.693-1.934 1.406-2.646 2.358-.867 1.173-1.279 2.617-1.908 3.946-2.318 4.91-7.398 7.748-12.1 10.41-.334.188-.68.39-.892.713-.155.214-.225.48-.27.739.417.039.835.02 1.361-.046 1.176-.142 2.075-.097 3.488-.019 1.413.084 2.813-.453 3.57-.246.752.214 3.841.68 6.14.823 2.293.142 3.687.142 6.487.848 2.794.707 5.568.486 7.411.208 1.844-.279 7.354.259 7.354.259s3.84.732 8.529 2.32c-.02-.467-.07-.947-.116-1.407-.128-1.4-.09-3.006.225-4.386.257-1.14.565-2.384.931-3.537.2-.635.553-1.283.688-1.93.109-.467-.04-.914.243-1.374-.43.713-.867 1.419-1.303 2.131-1.304 2.106-3.462 3.402-5.523 4.645Z" fill="#E8AD82"/><path d="M98.044 89.514c-8.895-5.228-17.353-11.292-25.606-17.511-3.578-2.702-7.213-5.533-9.525-9.388-.45-.732-1.207-1.12-2.132-1.27a6.014 6.014 0 0 0-.925-.07 7.66 7.66 0 0 0-1.207.051c-1.798.181-3.738.784-5.1 1.27-.019 0-.025.006-.038.02a3.828 3.828 0 0 0-.437.155h-.006c-.039.02-.07.026-.096.039-.045.02-.09.038-.135.051-1.542.577-3.417.545-4.868 1.452-.09.052-.18.116-.27.181-.796.577-1.342 1.393-1.69 2.313.161 0 .322.006.482.006.206.007.418.02.636.026.09 0 .18 0 .27.007h.006c.212.006.43.02.636.026h.007c.199.006.379.026.565.039.122.006.244.019.36.025h.109c.083.007.154.02.23.02.2.02.38.026.553.045.096.007.2.007.29.02h.038c.379.039.7.064.931.084.084.006.154.02.206.02.154.019.243.025.243.025l.52.11c.168.04.38.085.61.136.18.04.386.085.598.136.084.02.167.04.257.052h.02A82.206 82.206 0 0 1 60.1 69.47c4.413 1.49 9.57 3.738 13.031 6.854 7.161 6.44 20.083 16.825 29.042 20.414.199.084.392.155.585.227.597.246 1.181.46 1.747.667h.019c.79.162 1.631.181 2.498.026 1.22-.214 2.415-.739 3.565-1.536-4.284-1.976-8.459-4.198-12.53-6.588-.013-.013 0-.02-.013-.02Z" fill="#E8AD82"/><path d="M35.117 6.465c.103.279-.077.37-.443.324l18.49 51.77c1.227 3.434.174 6.609-2.768 8.338L35.94 75.384c-.11.072-1.478.635-3.064.713 0 0-2.633.318-4.714-1.03-.43-.279-.918-.466-1.272-.797-.822-.777-1.2-1.412-1.2-1.412a4.052 4.052 0 0 1-.752-1.283l-.02-.052L6.057 18.697l-.372-1.05c-1.021-2.857-.148-5.513 2.305-6.944L24.463.965c.334-.2.597-.382 1.002-.453.057-.013.237-.097.61-.169a5.837 5.837 0 0 1 1.143-.11c.077-.006.154-.006.244-.006.18 0 .822.051 1.027.116l1.099.447 2.697 2.844c1.317.81 2.473 1.808 2.832 2.831Z" fill="url(#a)"/><path d="M27.687 0c-.09 0-.167 0-.244.006-.142 0-.277.007-.392.013a3.787 3.787 0 0 0-.642.078 3.596 3.596 0 0 0-.11.02c-.288.064-.443.136-.61.168-.404.078-.661.253-1.002.454L7.983 10.703c-2.447 1.431-3.32 4.088-2.306 6.945l.373 1.05 18.875 52.819.02.052c.166.466.423.887.75 1.282 0 0 .36.603 1.144 1.354.385.376.88.674 1.407.888l.552.227c-1.323-1.03-1.92-2.022-1.92-2.022a4.308 4.308 0 0 1-.752-1.282l-.02-.052L7.239 19.138l-.373-1.05c-1.02-2.857-.154-5.513 2.306-6.945l16.705-9.957c.327-.201.706-.324 1.098-.396 0 0 2.55.467 3.995.467.134 0 .263.006.398.02L28.72.116C28.509.052 27.873 0 27.687 0Z" fill="#E7E7E6"/><path d="m53.408 57.607-.199-.563-18.67-52.23a5.021 5.021 0 0 0-.23-.551c-1.465-2.916-6-4.639-8.645-3.09l-14.4 8.467c-2.562 1.503-3.48 4.263-2.408 7.262l19.37 54.213c1.04 2.948 5.517 4.768 8.054 3.291l10.102-5.94 4.258-2.508c2.66-1.555 3.777-4.295 3.044-7.353a5.125 5.125 0 0 0-.276-.998Z" fill="#DFE5E7"/><path d="M33.852 4.38c-.938-2.605-4.887-4.225-7.116-2.91L12.761 9.686l-.803.473c-1.888 1.108-2.838 2.929-2.71 5.015a6.7 6.7 0 0 0 .405 1.93L28.92 71.031c.931 2.604 4.88 4.224 7.116 2.909l10.847-6.375 3.937-2.313c2.44-1.438 3.314-4.094 2.293-6.945L33.853 4.379Z" fill="#303435"/><path d="m13.23 9.88-.803.473c-1.888 1.108-2.845 2.934-2.716 5.008.032.628.167 1.276.404 1.937l19.01 53.189c1.246 3.492 4.881 4.224 7.11 2.909l8.124-4.775L19.472 6.213 13.23 9.88Z" fill="#667276"/><path d="M33.955 6.913 11.9 19.824l17.475 48.92 22.086-12.938L34.173 7.398a3.306 3.306 0 0 0-.218-.485Z" fill="#121213"/><path d="m33.846 5.494-22.71 13.3 17.906 50.118 22.741-13.326L34.071 5.999a3.553 3.553 0 0 0-.225-.505Z" fill="#121213"/><path d="M33.84 6.57 11.778 19.486l17.475 48.92L51.34 55.469 34.051 7.062a4.725 4.725 0 0 0-.212-.493Z" fill="#DBDDDF"/><path d="m11.785 19.481 17.482 48.92 12.157-7.12L22.311 13.32 11.785 19.48Z" fill="#F0F1F2"/><path d="M20.641 7.353c-.468-.194-1.008.123-1.2.7-.193.576.032 1.198.5 1.393.47.194 1.009-.117 1.201-.7.2-.577-.032-1.199-.5-1.393Z" fill="#E2E3E3"/><path d="M20.616 7.437a.588.588 0 0 0-.231-.045c-.347 0-.688.291-.823.706-.09.26-.09.538-.006.777.084.234.231.402.424.486a.588.588 0 0 0 .231.046c.347 0 .687-.292.822-.706.174-.525-.013-1.095-.417-1.264Z" fill="#404646"/><path d="M20.282 7.69a.438.438 0 0 0-.154-.032c-.232 0-.456.194-.546.466a.796.796 0 0 0 0 .519.499.499 0 0 0 .282.317c.052.02.103.032.154.032.232 0 .456-.194.546-.466.11-.35-.012-.726-.282-.836Z" fill="#6E7A79"/><path d="M20.39 8.053a.256.256 0 0 0-.095-.02c-.142 0-.283.124-.34.292a.469.469 0 0 0 0 .324.32.32 0 0 0 .173.2c.032.014.064.02.096.02.141 0 .282-.123.34-.291.071-.22-.006-.454-.173-.525Z" fill="#909D9D"/><path d="M23.898 9.044c-.052-.143-.347-.318-.47-.246l-4.219 2.604c-.18.11-.244.305-.173.518l.02.052c.05.143.269.233.39.162l4.297-2.52c.18-.104.244-.305.174-.518l-.02-.052Z" fill="#3A4849"/><path d="M23.75 8.98c-.052-.143-.264-.227-.386-.156l-4.206 2.468c-.18.104-.244.298-.167.505l.02.046c.05.142.294.136.416.065l4.207-2.469c.18-.103.212-.207.135-.414l-.02-.046Z" fill="#121213"/><path d="M23.608 9.07c-.025-.065-.128-.11-.186-.077l-4.213 2.461a.187.187 0 0 0-.077.24l.007.026c.025.065.14.065.199.032l4.213-2.461c.083-.052.103-.098.064-.195l-.006-.026Z" fill="#575A5B"/><path d="M46.068 64.157c-.142-.388-.745-1.03-1.208-1.023a.74.74 0 0 0-.385.097l-4.855 2.857c-.463.272-.514 1.101-.322 1.64l.077.213c.142.389.797 1.179 1.266 1.179a.742.742 0 0 0 .385-.097l4.855-2.857c.463-.272.456-1.25.264-1.788l-.078-.22Z" fill="#121213"/><path d="m44.61 63.276-4.843 2.851c-.482.285-.54 1.127-.34 1.69.18.5 1.105 1.284 1.528 1.031l4.843-2.85c.481-.286.481-1.283.282-1.84-.173-.5-1.04-1.128-1.47-.882Z" fill="url(#b)"/><path d="M46.029 64.177c.186.518.193 1.47-.244 1.736l-4.855 2.87-.013.007a.314.314 0 0 1-.129.032c-.443 0-1.13-.615-1.278-1.024-.186-.518-.141-1.321.302-1.58l3.006-1.77 1.85-1.1a.298.298 0 0 1 .134-.04c.437 0 1.08.46 1.227.869Z" fill="url(#c)"/><path d="M39.812 66.211c-.437.266-.481 1.063-.302 1.581.148.408.835 1.024 1.278 1.024a.27.27 0 0 0 .129-.033l.013-.006 2.37-1.4-.951-2.662-2.537 1.496Z" fill="#5B6568"/><path d="m11.779 19.488 1.85 5.176L35.733 11.72l-1.85-5.177L11.78 19.488Z" fill="#1961A0"/><path d="m17.687 28.46.68 1.944 17.746-10.398-.68-1.95L17.686 28.46ZM18.946 31.881l.68 1.944 17.746-10.399-.681-1.95-17.745 10.405Z" fill="#BEBEBE"/><path d="m13.223 20.058.142.401 2.267-1.328-.148-.402-2.26 1.329ZM13.628 21.198l.148.408 2.26-1.328-.14-.408-2.268 1.328ZM14.04 22.338l.14.408 2.268-1.334-.148-.402-2.26 1.328Z" fill="#F0F1F2"/><path d="M39.697 29.996c-.424-1.192-2.236-1.93-3.244-1.328l-6.075 3.57L22.78 36.7c-1.085.642-1.477 1.814-1.021 3.084l2.19 6.142c.424 1.185 2.222 1.924 3.243 1.328l7.43-4.373 6.243-3.667c1.086-.635 1.477-1.808 1.028-3.077l-2.197-6.142Z" fill="#FFA809"/><path d="M26.576 38.288a2.365 2.365 0 0 0-.623.525c-.167.207-.29.44-.366.7a2.57 2.57 0 0 0-.11.842c.013.31.071.635.18.978l.264.83c.109.343.244.621.398.841.154.22.327.376.514.473.192.098.398.136.623.11.224-.025.456-.116.706-.265.482-.285.81-.648.983-1.095.173-.447.18-.952.025-1.529l-.912.538c.052.175.084.337.09.466.013.13 0 .24-.032.337a.638.638 0 0 1-.154.253c-.07.078-.167.142-.276.207a.686.686 0 0 1-.34.117.355.355 0 0 1-.277-.104.989.989 0 0 1-.237-.33 5.1 5.1 0 0 1-.219-.57l-.27-.843a3.896 3.896 0 0 1-.153-.615 1.64 1.64 0 0 1-.007-.467.686.686 0 0 1 .141-.343c.071-.097.167-.181.29-.26a.987.987 0 0 1 .308-.129.329.329 0 0 1 .237.033.61.61 0 0 1 .2.22c.064.097.121.24.18.408l.911-.538c-.212-.537-.494-.88-.841-1.03-.328-.116-.745-.045-1.233.24ZM30.776 39.532l-.141-1.995.976 1.503-.835.492Zm-.141-3.57-.829.493.16 5.74.958-.57-.077-1.147 1.233-.732.558.862.97-.577-2.973-4.068ZM33.37 34.336l-.905.538 1.56 4.904 2.499-1.483-.263-.823-1.593.946-1.297-4.082ZM36.39 32.542l-.907.538 1.561 4.904 2.498-1.477-.263-.823-1.586.94-1.304-4.082Z" fill="#fff"/><path d="m32.645 47.715-6.66 3.9 2.82 7.89 6.672-3.906-2.768-7.735c-.02-.052-.039-.104-.064-.15ZM43.704 41.268l-6.66 3.9 2.82 7.891 6.672-3.906-2.768-7.736a1.528 1.528 0 0 0-.064-.149Z" fill="#BEBEBE"/><path d="m51.013 64.714-3.93 2.32-2.73 1.6-8.125 4.775c-2.228 1.315-5.87.57-7.11-2.91l-19.01-53.188a6.74 6.74 0 0 1-.404-1.938c-.128-2.08.829-3.906 2.717-5.007l.803-.473 6.248-3.667 7.733-4.548c1.073-.629 2.543-.577 3.88-.071-1.459-.687-3.154-.836-4.349-.13L12.761 9.685l-.803.473c-1.888 1.108-2.838 2.929-2.71 5.015a6.7 6.7 0 0 0 .405 1.93L28.92 71.031c.931 2.604 4.88 4.224 7.116 2.909l10.847-6.375 3.937-2.313c1.272-.745 2.107-1.82 2.486-3.077-.45 1.023-1.208 1.904-2.293 2.54Z" fill="#2A2D2E"/><path d="M64.153 41.825a14.08 14.08 0 0 1-2.524 9.297c1.021-.751 1.516-2.002 1.94-3.194.481-1.315.937-2.675 1.053-4.068.006-.162.019-.318.019-.467l-.379-1.516-.11-.052Z" fill="#E3A87D"/><path opacity=".41" d="M49.382 53.707c-1.336-1.58-5.177-6.29-7.09-8.344-.296-.33-.624-.674-.977-1.004a7.443 7.443 0 0 0-.527-.486 8.906 8.906 0 0 0-1.49-1.07 8.082 8.082 0 0 0-.34-.187c-.122-.045-.231-.11-.36-.155-.077-.014-.154-.046-.23-.065a.864.864 0 0 0-.264-.078.202.202 0 0 0-.122-.032c-.096-.033-.186-.046-.264-.065a3.474 3.474 0 0 0-.578-.046c-.173 0-.34.013-.513.033-.122.013-.219.045-.34.065-.046.013-.097.032-.142.045a2.976 2.976 0 0 0-.469.175 2.793 2.793 0 0 0-.578.285 5.02 5.02 0 0 0-.623.44c-1.027.85-1.181 2.054-.841 3.421.668 2.695 3.263 5.928 4.573 7.56 1.926 2.45 5.144 9.252 6.717 11.837.232.408.546.907.887 1.477.077.123.141.233.218.363.11.188.231.395.36.596l4.258-2.507c2.659-1.555 3.776-4.296 3.044-7.354-1.708-2.098-3.295-3.712-4.31-4.904Z" fill="gray"/><path d="M17.193 48.33 6.955 45.233l-1.24.603c1.054.706 1.555.92 1.555.92s-.026.006-.07.02c-.335.09-1.664.485-1.914 1.14-.296.732-.591 2.792-.501 3.608.083.81.635 2.112 1.554 2.708.931.59 2.383 1.102 4.258 1.263 1.869.169 3.018.091 3.52.318.507.227 3.55.849 3.55.849s2.827.641 3.95-.713c1.118-1.354 2.961-3.388.835-5.468-2.125-2.093-5.26-2.15-5.26-2.15Z" fill="#F0BB94"/><path d="M18.246 48.648c.02-.026.032-.052.051-.078-.135 0-.263 0-.372-.032.109.032.212.077.32.11Z" fill="#E8AD82"/><path d="M20.873 49.282c-.662-.24-1.343-.518-2.036-.667-.167-.039-.36-.039-.54-.039-.019.026-.032.052-.051.078.315.104.623.227.912.389.822.466 1.997.609 2.492 1.535.334.622.655 1.464.584 2.196-.058.596-.636 1.348-1.034 1.776-.238.259-.552.35-.854.524-.758.434-1.484.376-2.319.272l-5.67-.719c-1.24-.155-2.48-.35-3.719-.544-.527-.084-1.182-.052-1.631-.363-.874-.596-3.23-4.548-.675-4.178 2.499.362 5.03.907 7.515 1.399.481.097.97.194 1.451.117 1.085-.169 1.304-1.244 2.087-1.808.283-.2.642-.35.848-.602-.11-.033-.212-.078-.321-.104.11.026.244.026.372.032.02-.032.052-.064.071-.103-.7-.13-1.169-.143-1.169-.143L6.95 45.233l-1.233.603c1.053.706 1.554.92 1.554.92s-.026.006-.07.02c-.335.09-1.664.485-1.914 1.14-.296.732-.591 2.792-.501 3.608.083.81.635 2.112 1.554 2.708.931.59 2.383 1.102 4.258 1.263 1.869.169 3.018.091 3.52.318.507.227 3.55.849 3.55.849s2.827.641 3.95-.713c1.118-1.354 2.961-3.388.835-5.468-.449-.44-.995-.985-1.58-1.199Z" fill="#E8AD82"/><path d="M18.907 42.688c-.61-.797-1.94-1.899-3.275-2.365-1.618-.57-2.588-1.808-3.918-1.691-1.323.11.957-1.905.957-1.905l-1.72-.207-6.956-.83-1.201 1.957c.481.039 1.162.026 1.644.046l.726.038s-.951.11-1.067.506c-.109.395-1.11 3.738-.976 4.308.142.57.675 1.956 2.068 2.941 1.407.985 2.075 1.27 2.075 1.27s1.997.318 4.437 1.12c2.454.81 4.869 1.925 6.21 0 1.343-1.91 1.632-3.996 1.292-4.729a1.88 1.88 0 0 0-.296-.46Z" fill="#F2BD96"/><path d="M18.907 42.688c-.61-.797-1.94-1.899-3.275-2.365-1.618-.57-2.588-1.808-3.918-1.691-1.323.11.957-1.905.957-1.905l-1.72-.207-.36-.046c-.418.862-.7 1.86-1.022 2.728-.096.266-.199.564-.109.836.116.343.482.518.816.654 1.066.44 2.138.881 3.269 1.108 1.259.253 2.73.31 3.526 1.328.41.525.552 1.218.68 1.879.084.427.167.855.244 1.276.47-.712.861-1.47 1.176-2.26.051-.13.096-.267.141-.403a1.463 1.463 0 0 0-.11-.472 1.879 1.879 0 0 0-.295-.46Z" fill="#59361C"/><path d="M18.907 42.688v.019c-.025 1.354-1.091 5.319-3.03 4.885-1.363-.305-2.782-.253-4.163-.486-2.46-.428-4.669-1.762-6.82-3.058-.18-.117-.38-.233-.463-.434-.07-.156-.064-.343-.045-.505.129-.998.752-1.847 1.503-2.488.752-.642 1.632-1.108 2.46-1.652.957-.622 2.132-1.309 2.595-2.45l-6.95-.828-1.2 1.956c.481.039 1.162.026 1.644.046l.726.038s-.951.11-1.067.506c-.109.395-1.11 3.738-.976 4.308.142.57.675 1.956 2.068 2.941 1.407.985 2.075 1.27 2.075 1.27s1.997.318 4.437 1.12c2.454.81 4.869 1.925 6.21 0 1.343-1.91 1.632-3.996 1.292-4.729a1.88 1.88 0 0 0-.296-.46Z" fill="#EDB48A"/><path d="M9.203 27.599a7.572 7.572 0 0 0-1.535-.771c-.353-.123-.398-.052-.777.162-.314.175-.623.356-.937.531-.688.402-1.368.816-2.043 1.23-.642.396-1.817 2.113-2.575 2.709-.752.59-1.175 1.658-1.259 1.833-.064.136-.16.661.084 1.406.064.188.14.408.256.622.553 1.076 1.568 2.086 1.844 2.229.289.136 1.458.11 2.183.136l.726.039s2.3-.169 4.2-.752c.957-.291 1.567-.9 1.863-1.898l.038-.13c.135-.524.135-1.03.167-1.567.045-.888.084-1.873-.045-2.754-.192-1.263-1.104-2.306-2.19-3.025Z" fill="#F7C199"/><path d="M9.203 27.599a6.998 6.998 0 0 0-1.49-.752 18.575 18.575 0 0 0-3.217 3.188c-.444.557-.867 1.179-.925 1.891-.058.713.392 1.51 1.098 1.581.443.046.854-.194 1.252-.401a11.162 11.162 0 0 1 4.99-1.27c.18 0 .373-.007.546-.04a8.566 8.566 0 0 0-.083-1.159c-.173-1.276-1.085-2.32-2.17-3.038Z" fill="#59361C"/><path d="M9.222 34.797c-.314-.02-.635-.04-.937.064-.347.11-.636.35-.931.57-2.146 1.516-5.376 1.186-7.193-.719.064.188.14.408.256.622.553 1.076 1.567 2.086 1.844 2.229.289.136 1.458.11 2.183.136l.726.039s.038 0 .103-.007a23.742 23.742 0 0 0 3.34-.537c.006 0 .019-.007.025-.007.244-.058.488-.123.726-.2 1.599-.487 2.126-1.84 1.959-3.376-.411.933-1.163 1.263-2.1 1.186Z" fill="#EDB48A"/><path d="M26.422 58.547c-.816-.512-1.979-.622-2.82-.635-1.24-.013-2.556.33-3.757-.15-.27-.11-.52-.252-.783-.388-.508-.26-1.195-.641-1.767-.654-.417-.007-.899.149-1.31.22-.835.143-1.747.233-2.543.531-.674.253-1.895.875-2.344 1.808-.09.181-.154.414-.2.68-.14.81-.096 1.905-.006 2.591.026.227.052.409.09.512.167.557 1.484 1.691 2.91 1.97 1.432.291 2.042.369 3.224.233 1.175-.143 2.074-.097 3.487-.02 1.413.085 2.813-.453 3.57-.246 0 0 2.531-.48 3.533-2.565.392-.81.463-1.47.334-2.015-.193-.842-.886-1.412-1.618-1.872Z" fill="#EDB992"/><path d="M23.718 64.255c-.79.207-1.612.188-2.428.136-1.182-.072-2.363-.305-3.532-.298-1.066 0-1.985-.072-3.025-.383-1.143-.336-2.563.065-3.5-.693a1.263 1.263 0 0 1-.34-.46 2.8 2.8 0 0 0 .09.506c.166.557 1.483 1.69 2.909 1.97 1.432.29 2.042.368 3.224.232 1.175-.142 2.074-.097 3.487-.02 1.413.085 2.813-.453 3.57-.245 0 0 2.531-.48 3.533-2.566.392-.81.463-1.47.334-2.015-1.137 1.633-2.421 3.33-4.322 3.836Z" fill="#E0A175"/><path d="M26.948 58.8c-.469-.363-1.072-.5-1.65-.61-.585-.116-1.208-.317-1.799-.369-.488-.039-.989.046-1.49.02a6.57 6.57 0 0 1-1.702-.305c-.545-.181-1.053-.674-1.624-.674-.45 0-.752-.2-1.156-.188-.405.013-.829.136-1.227.201-.931.162-1.965.253-2.858.583-.674.253-1.895.875-2.344 1.808-.09.181-.154.415-.2.68.097-.324.245-.615.482-.849.257-.252.598-.35.854-.59.354-.323.675-.46 1.157-.537.468-.078.937-.149 1.4-.227.982-.162 1.984-.317 2.96-.123.835.162 1.58.694 2.402.83.964.161 2.068-.046 3.05-.098.463-.02.926-.045 1.375.046.45.09.9.298 1.176.667.346.454.398 1.056.436 1.626.032.44.09.868 0 1.296-.096.453-.199.868-.443 1.276.463-.395.925-.784 1.387-1.179.476-.402.887-1.004.848-1.665-.026-.654-.526-1.224-1.034-1.62Z" fill="#E8AD82"/><path d="M14.585 44.009c.11-.94.694-1.354 0-1.691-.694-.337-2.575.337-2.575.337-3.109 2.54.154 4.153 1.451 4.587 1.304.434 1.966.55 1.715 0-.25-.557-.7-2.294-.59-3.233ZM15.928 51.64c-.669 1.128-.784 2.482.597 3.162 1.38.674 3.095 1.315 1.978.188-1.118-1.127.038-4.14.52-4.555 0 0-2.428.078-3.095 1.206ZM24.354 59.389c-4.252.266-4.252 3.31-2.235 3.874 2.016.564 2.575.15 2.575.15s-.263-.94-.52-1.847c-.264-.894.18-2.177.18-2.177Z" fill="#FCDCC2"/><path d="M98.243 135.583c-4.226-10.948-10.488-27.054-12.061-30.514-1.394-3.064-2.017-5.688-2.422-8.312-.295-1.956-.475-3.906-.757-6.025-.668-4.988-1.863-8.253-3.764-12.38-1.9-4.127-3.16-5.08-4.007-6.719-.848-1.652-1.702-3.29-2.422-4.262-.719-.972-2.922-4.736-2.922-4.736s-.494-3.486-.764-5.274c-.11-.751-.43-1.101-.751-1.263a1.326 1.326 0 0 0-.7-.11.865.865 0 0 0-.187.039l-.019.006s-.347-.039-.886.071c-.56.11-1.317.39-2.1 1.043a.602.602 0 0 0-.116.11 2.434 2.434 0 0 0-.411.648c-.084.201-.167.428-.238.661-.083.285-.16.596-.218.92-.02.097-.032.201-.051.298a18.25 18.25 0 0 0-.161 1.212c-.038.408-.07.822-.09 1.211l-.006.052c-.007.188-.02.376-.026.557-.013.298-.02.583-.026.836-.006.117 0 .22-.006.317v.007c0 .006 0 .02.006.026 0 .084 0 .168-.006.246 0 .026-.007.039 0 .065 0 .064 0 .13-.007.175 0 .116.007.226.007.31v.065c.006.033 0 .065.006.091v.136c-.314-.285-.63-.7-.944-1.198a.05.05 0 0 1-.013-.026c-.52-.823-1.04-1.886-1.56-3.032-.116-.24-.219-.48-.328-.72-.115-.24-.218-.479-.32-.731-.13-.286-.251-.57-.386-.856-.116-.24-.219-.492-.334-.732a34.664 34.664 0 0 0-1.343-2.708c-1.804-3.245-3.73-5.675-4.797-7.275-1.066-1.6-4.097-6.35-5.62-8.461-.244-.33-.513-.687-.796-1.03a15.644 15.644 0 0 0-.443-.506 7.695 7.695 0 0 0-1.252-1.14 2.376 2.376 0 0 0-.296-.2H44.7c-.103-.066-.206-.124-.302-.182-.07-.032-.135-.065-.206-.09-.077-.046-.16-.072-.237-.105a.447.447 0 0 0-.11-.038 1.542 1.542 0 0 0-.243-.078 3.125 3.125 0 0 0-.99-.136h-.006c-.11.006-.212.006-.321.02-.045.012-.084.012-.129.019a9.015 9.015 0 0 0-.45.103 3.489 3.489 0 0 0-.564.201c-.206.09-.418.201-.623.337-1.04.66-1.304 1.762-1.143 3.045.327 2.566 2.37 5.818 3.39 7.463 1.516 2.462 3.732 9.077 4.894 11.63.18.401.411.9.662 1.457.051.117.11.233.16.35.103.24.219.48.334.732.058.123.116.246.174.382.058.123.122.253.173.382a16740.288 16740.288 0 0 1 2.774 6.083s-1.54-1.405-2.24-1.658v-.006c-.026-.013-.04-.013-.065-.026-.026-.013-.045-.02-.064-.026a9.333 9.333 0 0 0-1.265-.188c-.142-.02-.29-.026-.45-.039-.032.007-.064 0-.11-.006a7.309 7.309 0 0 0-.911.026.91.91 0 0 0-.218.026 1.84 1.84 0 0 0-.264.038 5.906 5.906 0 0 0-.462.098 3.972 3.972 0 0 0-1.47.667 6.899 6.899 0 0 0-.752.648c-1.22 1.218-1.657 2.656-1.664 3.725 0 .162.02.356.052.577.019.123.038.24.064.362.135.7.366 1.549.59 2.313.046.143.084.272.123.402.205.667.379 1.198.443 1.4a.349.349 0 0 1 .026.077l.006.007s-.546.051-1.194.168c-.534.104-1.112.246-1.516.453-.572.292-1.214 1.16-1.734 2.372-.29.673-.546 1.444-.726 2.287a3.52 3.52 0 0 0-.07.596 1.053 1.053 0 0 0 0 .2c0 .059 0 .13.012.195 0 .116.02.24.032.356l.058.363a10.113 10.113 0 0 0 .186.758c.097.317.206.596.296.836.045.103.083.2.115.285.084.2.155.337.18.382.007.006.007.02.007.02l-.257.129c-.122.058-.309.155-.591.291-.051.026-.116.052-.18.091-1.034.505-2.126 3.259-2.35 3.971-.187.61-.232 3.907.07 6.583.045.427.103.835.167 1.224.129.797.283 1.406.559 1.97.668 1.418 2.068 2.52 5.722 5.506 5.112 4.173 15.112 14.668 20.333 23.142 2.383 3.88 4.708 10.45 6.526 16.436.289.926.558 1.853.815 2.74.218.363.475.713.777 1.043 1.432 1.588 3.674 2.579 6.307 2.955 3.359.486 7.373-.02 11.194-1.536.9-.35 1.792-.764 2.666-1.231a22.652 22.652 0 0 0 3.102-2.002c2.543-1.969 4.225-4.269 4.88-6.498.347-1.172.405-2.325.161-3.407-.199-.499-.392-1.03-.61-1.562Z" fill="#F1BC95"/><path d="M63.954 57.905c-.963 2.164-.803 7.198-.803 7.198-1.702-1.561-3.41-6.757-5.228-10.01-1.804-3.245-3.731-5.675-4.797-7.275-1.066-1.6-4.098-6.349-5.62-8.46-1.169-1.607-2.793-3.557-4.88-3.512h-.007c-.045-.033-.07-.04-.07-.04-.598-.459-2.011-.653-2.884.163-.797.745-1.336 1.788-.277 3.615.328 2.565 2.37 5.818 3.391 7.463 1.516 2.462 3.732 9.077 4.894 11.63.18.4.411.9.662 1.457.051.117.109.233.16.35.103.24.219.48.334.732.058.123.116.246.174.382.057.123.122.253.173.382.058.123.122.26.18.389l2.595 5.695s-1.747-1.6-2.37-1.717a9.317 9.317 0 0 0-1.266-.188l4.727 6.258s4.297 1.71 6.005 6.11c1.715 4.392 23.866 13.28 20.45 5.707-1.433-3.18-10.823-17.537-15.543-26.329Z" fill="#F2BF9A"/><path d="M69.034 71.51c-.36-.596-.77-1.12-1.188-1.678a192.36 192.36 0 0 0-3.378-4.774c-.437-.596-.88-1.186-1.317-1.782-.026 1.063-.006 1.834-.006 1.834-1.702-1.562-3.41-6.758-5.228-10.01-1.805-3.245-3.732-5.675-4.798-7.275-1.066-1.6-4.097-6.35-5.62-8.461-.975-1.341-2.273-2.922-3.891-3.382.058 1.451 1.29 3.745 1.644 4.554.527 1.231 1.06 2.462 1.586 3.693.373.875.752 1.75 1.272 2.546.841 1.283 2.023 2.294 3.038 3.44 3.121 3.499 4.643 8.047 6.416 12.316.45 1.076.892 2.177 1.438 3.207.47.894 1.31 1.561 1.96 2.345 1.63 1.976 3.294 3.926 5.118 5.72 1.053 1.037 2.254 2.398 3.673 2.91.148.052.309.09.456.052.206-.059.347-.266.418-.467.334-.94-.263-1.8-.694-2.585-.385-.725-.475-1.503-.899-2.203Z" fill="#F0BA92"/><path d="M71.873 140.144a12.22 12.22 0 0 1-.52-1.231c-.977-2.617-1.35-5.584-3.45-7.612-1.688-1.633-3.538-2.009-4.72-4.101-.584-1.037-1.246-2.034-1.753-3.116-.475-1.011-1.085-1.691-1.805-2.559-1.625-1.996-3.275-3.978-4.926-5.961-.796-.952-1.817-1.645-2.575-2.643-.72-.933-1.252-2.002-2.023-2.902-1.246-1.464-2.492-2.598-4.123-3.641-1.638-1.05-3.327-2.041-4.862-3.233-1.092-.849-2.12-1.795-3.327-2.468-.346-.201-.713-.415-1.085-.571a2.427 2.427 0 0 0-.328-.103c.668 1.419 2.068 2.52 5.723 5.507 5.112 4.172 15.112 14.667 20.333 23.141 2.383 3.881 4.707 10.45 6.525 16.436.289.927.559 1.853.816 2.741.218.362.475.712.777 1.043 1.432 1.587 3.673 2.578 6.306 2.954a39.326 39.326 0 0 0-.404-1.121 112.708 112.708 0 0 0-4.58-10.56ZM49.58 66.334a9.32 9.32 0 0 0-1.264-.188 7.49 7.49 0 0 0-2.062.072c.218.006.43.02.623.038a9.532 9.532 0 0 1 1.265.188c.623.117 2.37 1.717 2.37 1.717l-.81-1.775c-.038-.013-.083-.045-.121-.052ZM63.46 66.12c-.99-1.749-1.992-3.446-2.833-5.273-.886-1.925-1.676-3.9-2.71-5.747-1.805-3.246-3.732-5.675-4.798-7.275-1.066-1.6-4.097-6.35-5.62-8.461-1.168-1.607-2.793-3.557-4.887-3.518-.289 0-.584.058-.892.149 1.83.26 3.275 2.015 4.341 3.479 1.522 2.112 4.554 6.86 5.62 8.46 1.066 1.601 2.993 4.03 4.797 7.276 1.74 3.123 2.877 6.518 4.785 9.556 1.162 1.853 2.691 3.524 4.053 5.254 1.406 1.788 2.755 3.622 4.174 5.397-1.42-1.775-2.087-4.05-3.417-5.902-.822-1.166-1.907-2.15-2.614-3.395Z" fill="#E3A77D"/><path d="M38.965 85.744s-.25-1.36-.784-2.274a9.88 9.88 0 0 0 .784 2.274Z" fill="#F1BC95"/><path d="M38.708 85.873c-.122.058-.309.156-.591.292-.052.026-.116.052-.18.09-1.034.506-2.126 3.26-2.35 3.972-.187.609-.232 3.906.07 6.582.11-.24.225-.512.34-.816.013-.11.328-2.585 2.646-2.78 0 0 1.111.124 1.889.227l.764.097-2.325-7.787c-.006-.006-.006-.006-.263.123Z" fill="#EDB992"/><path d="M42.118 76.648c-.533.104-1.111.246-1.516.454-.571.291-1.214 1.16-1.734 2.37a12.386 12.386 0 0 0-.726 2.288c-.372 1.658.816 3.99.816 3.99l-.257.13.604 1.03s.083.279 1.56-2.196c1.478-2.475 2.73-2.106 2.73-2.106l.995-.816.187-1.613-1.47-3.693c.005-.007-.54.045-1.19.162ZM49.58 66.334c-.462-.09-2.119-.44-3.673-.046a3.97 3.97 0 0 0-1.47.668 6.899 6.899 0 0 0-.752.648c-1.22 1.218-1.657 2.656-1.663 3.725-.02 1.218 1.22 4.904 1.29 5.13l.007.007 1.316 3.304s2.287-4.593 5.036-5.461c2.748-.868 3.16-2.572 3.16-2.572l-.868-3.7c-.012.014-1.76-1.587-2.382-1.703ZM79.246 78.345c-1.901-4.127-3.16-5.08-4.008-6.718-.848-1.652-1.702-3.291-2.421-4.263-.72-.972-2.922-4.736-2.922-4.736s-.495-3.485-.765-5.273c-.263-1.665-1.483-1.374-1.637-1.335l-.02.006s-1.438-.175-2.986 1.115c-1.535 1.289-1.33 7.962-1.33 7.962s3.63 6.394 5.222 8.085c1.586 1.691 5.632 4.127 6.204 5.17.578 1.043 1.657 3.097 1.779 5.584.122 2.488 2.248 9.304 5.697 11.915a5.656 5.656 0 0 0 1.714.894c-.295-1.957-.475-3.907-.757-6.025-.675-4.982-1.87-8.254-3.77-12.38Z" fill="#EDB992"/><path d="m67.48 56.02-.02.006s-1.438-.175-2.986 1.115c-1.535 1.289-1.33 7.962-1.33 7.962s.707 1.25 1.638 2.786c-.629-2.689-.301-5.358.16-8.273.097-.603.194-1.212.463-1.756.553-1.12 2.023-1.218 2.961-1.762-.392-.195-.796-.097-.886-.078ZM52.586 67.053c-.745-1.393-1.483-2.799-2.228-4.192-1.053-1.976-2.113-3.964-2.922-6.057-.977-2.56-1.567-5.28-2.858-7.703-.931-1.743-2.203-3.285-3.18-5.014-.571-1.018-1.04-2.151-1.233-3.311a6.053 6.053 0 0 1 .052-2.378c.186-.777.533-1.503.938-2.202-.206.09-.418.2-.623.337-1.04.66-1.304 1.762-1.144 3.044.328 2.566 2.37 5.818 3.391 7.464 1.516 2.462 3.732 9.076 4.894 11.629.18.401.411.9.662 1.457.051.117.109.234.16.35.103.24.219.48.334.732.058.123.116.246.174.383.057.123.122.252.173.382.058.123.122.259.18.389l2.595 5.694s-1.747-1.6-2.37-1.717a9.317 9.317 0 0 0-1.266-.188c-.7-.064-1.566-.077-2.414.143.468.2.95.376 1.413.615.95.486 1.81 1.432 2.51 2.223.714.81 1.375 1.671 1.985 2.552.321.454.874 1.114 1.227.726.096-.097.173-.272.231-.538.16-.732.141-1.425.013-2.157-.148-.842-.289-1.911-.694-2.663Z" fill="#E3A87D"/><path d="M42.632 35.846h-.007a.24.24 0 0 0-.07-.04c-.598-.459-2.01-.653-2.884.163-.797.745-1.336 1.788-.276 3.615.083.162.186.324.308.499l.469.693c1.008 1.458 1.143 1.445 3.012.512 2.139-1.07 1.541-1.983 1.079-3.375-.392-1.186-1.355-1.88-1.631-2.067Z" fill="#FCDCC2"/><path d="M44.944 75.002c-.752-.77-1.176-1.814-1.362-2.883-.128-.732-.218-1.484-.186-2.228.02-.674.334-1.374.315-2.028-.007-.091-.013-.182-.02-.253-1.22 1.218-1.657 2.656-1.663 3.725-.013 1.264 1.297 5.144 1.297 5.144s-.546.052-1.194.169c.257.511.526 1.004.764 1.522.385.823 1.38 2.054 1.31 2.98-.032.5-.392.642-.552 1.004-.167.357-.039.635.424.357.244-.143.5-.266.783-.253.238.013.463.13.7.169.52.07.842-.532.912-.96.296-1.8 1.175-3.68-.218-5.253-.411-.454-.906-.784-1.31-1.212Z" fill="#E3A87D"/><path d="M39.998 88.568c-.205-1.01-.077-2.138.56-2.954.205-.272.48-.609.314-.907-.064-.11-.173-.181-.27-.246-.841-.564-1.676-1.276-1.965-2.255-.257-.933-.007-1.84.238-2.74a12.388 12.388 0 0 0-.726 2.287c-.373 1.658.816 3.99.816 3.99l-.848.422c.25.907.379 1.904.54 2.792.09.518.18 1.043.09 1.561-.142.823-.694 1.503-1.253 2.125.334-.304.873-.35 1.316-.213.501.155.919.479 1.343.783.334.234.745.46 1.13.318.385-.15.559-.622.507-1.037-.064-.401-.295-.77-.514-1.114-.552-.875-1.066-1.795-1.278-2.812Z" fill="#E0A175"/><path d="M47.731 75.028c-.295.31-.572.654-.713 1.062-.231.661-.077 1.38-.02 2.074.072.848-.006 1.71-.224 2.533-.096.362-.206.79.045 1.069a.77.77 0 0 0 .424.22c1.169.26 2.228-.648 2.717-1.633.494-.997.867-1.788 1.74-2.526a16.88 16.88 0 0 1 4.374-2.676c-.142-4.541-6.641-1.911-8.343-.123ZM45.682 82.31c-.507-.88-2.69.214-3.32.61-1.124.705-2.222 2.215-2.376 3.55a7.576 7.576 0 0 0 .192 2.792c.193.725.643 1.367.79 2.086.18.887 1.323 1.542 1.766.408.148-.376.122-.797.129-1.205.02-1.451.546-2.799 1.297-4.017.36-.583.745-1.205 1.233-1.684.54-.525.47-1.127.443-1.86-.006-.233-.038-.479-.154-.68ZM39.523 92.455c-.469-.304-1.2-.408-1.708-.149-.366.188-.623.532-.835.881-.79 1.309-1.117 2.87-1.092 4.4.013.654.09 1.327.418 1.897.327.564.957.998 1.599.92.552-.064 1.008-.479 1.304-.958.289-.48.45-1.024.655-1.542.443-1.102 1.124-2.132 1.259-3.31.044-.415.012-.862-.225-1.2-.309-.44-.938-.667-1.375-.939ZM89.502 138.026c-.694-1.257-1.047-2.669-1.47-4.049a56.291 56.291 0 0 0-.88-2.657c-1.433-3.932-3.289-7.728-4.862-11.622-1.066-2.643-2.409-5.39-1.888-8.344.456-2.598-.623-5.734-1.047-8.345-.27-1.626-.546-3.258-1.034-4.833-.745-2.339-1.6-4.56-2.113-6.984-.296-1.406-.533-2.837-.874-4.23a22.583 22.583 0 0 0-.828-2.728 11.976 11.976 0 0 0-.437-.959c-1.085-2.047-2.132-3.958-3.95-5.48-.86-.707-1.528-1.555-2.312-2.34l-.013-.012c-.14-.143-.282-.285-.436-.421-.135-.123-.276-.253-.424-.383-.007-.006-.026-.019-.032-.025-1.246-1.095-2.588-2.08-3.75-3.272-1.112-1.134-1.985-2.449-2.711-3.861-.841-1.6-1.503-3.33-2.145-5.021-.116-.311-.707-.836-.508-1.095-1.592-2.21-2.164-4.976-3.076-7.554a28.663 28.663 0 0 0-2.068-4.516c0-.006-.006-.006-.006-.006a26.898 26.898 0 0 0-2.415-3.609c0-.019-.006-.026-.032-.038a28.293 28.293 0 0 0-3.134-3.389 26.572 26.572 0 0 0-1.664-1.406 1.173 1.173 0 0 0-.199-.155c.54 2.753 2.049 5.183 3.398 7.632 2.267 4.127 4.155 8.48 5.536 12.996.899 2.934 1.637 6.031 3.526 8.441.751.972 1.682 1.801 2.37 2.825.687 1.023 1.117 2.332.712 3.505-.353 1.043-1.348 2.086-.847 3.07.154.305.443.519.706.726a19.4 19.4 0 0 1 2.344 2.145c2.691 2.811 4.63 6.33 6.172 9.918 1.94 4.535 4.008 9.038 5.209 13.838.469 1.86 1.027 3.81.79 5.734-.328 2.624-.72 5.196-.354 7.846.232 1.671.9 3.032 1.484 4.547.623 1.64 1.04 3.298 1.798 4.898.655 1.387 1.394 2.721 2.139 4.056 1.008 1.807 2.03 3.595 2.896 5.468a67.299 67.299 0 0 1 1.4 3.291c1.182 2.935 2.743 5.643 3.565 8.662.899-.35 1.792-.765 2.665-1.231a22.747 22.747 0 0 0 3.102-2.002c-.687-2.384-1.42-4.684-2.839-6.822-.475-.745-1.027-1.432-1.464-2.209Z" fill="#F7C39D"/><path d="M98.243 135.583c-4.226-10.948-10.488-27.054-12.061-30.514-1.394-3.064-2.017-5.688-2.422-8.312-.295-1.956-.475-3.906-.757-6.025-.668-4.988-1.863-8.253-3.764-12.38-1.9-4.127-3.16-5.08-4.007-6.719-.848-1.652-1.702-3.29-2.422-4.262-.719-.972-2.922-4.736-2.922-4.736s-.494-3.486-.764-5.274c-.11-.751-.43-1.101-.751-1.263a1.326 1.326 0 0 0-.7-.11.874.874 0 0 0-.187.039l-.019.006s-.347-.039-.886.071c.167.02.34.072.507.208a.932.932 0 0 1 .238.24c.167.194.295.492.36.92.153 1.023.385 2.59.552 3.757l.212 1.516s2.203 3.764 2.922 4.736c.72.972 1.573 2.61 2.421 4.263.848 1.645 2.106 2.591 4.008 6.718 1.9 4.127 3.095 7.392 3.763 12.38.238 1.795.411 3.48.642 5.138.032.298.071.59.122.888.398 2.623 1.028 5.254 2.422 8.311 1.451 3.188 6.897 17.169 11.052 27.917 1.086 2.779 2.069 5.351 2.878 7.463.346-1.173.404-2.326.16-3.408-.186-.505-.379-1.036-.597-1.568Z" fill="#E3A77D"/><path d="m67.48 56.02-.02.006s-1.226.622-1.162 2.151c.052 1.53.398 2.572 1.13 2.786.726.22 1.574.414 2.017 1.03l.437.622s-.495-3.486-.764-5.274c-.264-1.652-1.478-1.36-1.638-1.321Z" fill="#FCDCC2"/><defs><linearGradient id="a" x1="42.68" y1="2.423" x2="15.553" y2="73.616" gradientUnits="userSpaceOnUse"><stop offset=".059" stop-color="#FAFFFF"/><stop offset=".061" stop-color="#fff"/><stop offset=".294" stop-color="#fff"/><stop offset=".294" stop-color="#F7FFFF"/><stop offset=".354" stop-color="#F7FFFF"/><stop offset=".354" stop-color="#EBF8FA"/></linearGradient><linearGradient id="b" x1="43.64" y1="66.884" x2="42.627" y2="64.385" gradientUnits="userSpaceOnUse"><stop offset=".035" stop-color="#353536"/><stop offset="1" stop-color="#C0C0C1"/></linearGradient><linearGradient id="c" x1="45.591" y1="64.581" x2="40.351" y2="70.605" gradientUnits="userSpaceOnUse"><stop offset=".051" stop-color="#3A4042"/><stop offset="1" stop-color="#667276"/></linearGradient></defs></svg>