<svg width="191" height="251" fill="none" xmlns="http://www.w3.org/2000/svg"><path d="M82.018 241.972v-1.277c0-.141 0-.283.142-.283v-.142c0-.142.142-.284.142-.426v-.141c0-.142.142-.426.284-.568 0-.142.142-.283.283-.425 0 0 0-.142.142-.142.142-.142.142-.284.284-.426v-.141c.142-.142.142-.284.284-.426 0 0 0-.142.141-.142.142-.142.142-.283.284-.283l.142-.142.284-.284c0-.142.141-.142.141-.284l.142-.141.284-.284.142-.142.142-.142.283-.283.142-.142.284-.284.142-.142c.141-.142.283-.142.425-.283.425-.426.71-.568.851-.568 0 0 .142 0 .142-.142.142 0 .284-.142.284-.142H89.394c.142 0 .142 0 .283.142h.142c.142 0 .284.142.284.142l-3.262-1.844c-.142 0-.142-.142-.284-.142H84.288c-.142 0-.284.142-.284.142h-.142c-.142.142-.425.142-.567.284-.142.142-.284.142-.426.284 0 0-.141 0-.141.141l-.284.284-.142.142-.284.284-.142.141-.141.142s0 .142-.142.142l-.284.284s0 .142-.142.142l-.142.142c0 .141-.141.141-.141.283l-.142.142s0 .142-.142.142l-.142.142s0 .142-.142.142c0 .141-.142.141-.142.283 0 0 0 .142-.141.142-.142.142-.142.284-.284.426v.141c0 .142-.142.142-.142.284 0 0 0 .142-.142.142 0 0 0 .142-.142.142v.142c0 .141-.141.283-.141.283 0 .142-.142.284-.142.426v.283c0 .142 0 .142-.142.284V241.263c0 1.276.425 2.269 1.135 2.836l.283.284 3.263 1.844c-.851-.567-1.419-1.56-1.419-3.12v-.568c-.142-.425-.142-.567-.142-.567Z" fill="#231F20"/><path d="M86.84 234.315c2.696-1.56 4.823-.283 4.823 2.837s-2.127 6.808-4.822 8.368c-2.695 1.56-4.823.284-4.823-2.836 0-3.121 2.128-6.809 4.823-8.369Z" fill="#2B2B2B"/><path d="M88.4 245.8V244.524c0-.142 0-.284.143-.284v-.142c0-.142.141-.284.141-.425v-.142c0-.142.142-.426.284-.568 0-.141.142-.283.284-.425 0 0 0-.142.142-.142.141-.142.141-.284.283-.425v-.142c.142-.142.142-.284.284-.568 0 0 0-.141.142-.141.142-.142.142-.284.284-.284l.141-.142.284-.284c0-.141.142-.142.142-.283 0-.142.142-.142.142-.142l.283-.284.142-.142.142-.142.284-.283.142-.142.283-.284.142-.142c.142-.141.284-.141.426-.283.141-.142.425-.284.567-.284 0 0 .142 0 .142-.142.142 0 .283-.142.283-.142H95.776c.142 0 .142 0 .284.142h.142c.142 0 .284.142.284.142l-3.263-1.844c-.142 0-.142-.142-.283-.142H90.67c-.142 0-.283.142-.283.142h-.142c-.142.142-.426.142-.568.284-.142.142-.283.142-.425.284l-.142.141-.284.284-.141.142-.284.284-.142.141-.142.142s0 .142-.142.142l-.283.284-.142.142-.142.141c0 .142-.142.142-.142.284l-.142.142s0 .142-.141.142l-.142.142s0 .141-.142.141c0 .142-.142.142-.142.284 0 0 0 .142-.142.142-.142.142-.142.284-.284.425v.142c0 .142-.141.142-.141.284 0 0 0 .142-.142.142 0 0 0 .142-.142.142v.142c0 .141-.142.283-.142.283 0 .142-.142.284-.142.426v.283c0 .142 0 .142-.141.284V245.233c0 1.276.425 2.269 1.134 2.836l.284.284 3.12 1.277c-.85-.568-1.418-1.561-1.418-3.121v-.709Z" fill="#231F20"/><path d="M93.223 238.14c2.695-1.56 4.823-.284 4.823 2.836 0 3.121-2.128 6.809-4.823 8.369-2.695 1.56-4.822.283-4.822-2.837s2.127-6.808 4.822-8.368Z" fill="#2B2B2B"/><path d="M8.973 199.847v-1.277c0-.142 0-.283.142-.283v-.142c0-.142.142-.284.142-.426v-.142c0-.141.142-.425.283-.567 0-.142.142-.284.284-.426 0 0 0-.141.142-.141.142-.142.142-.284.284-.426v-.142c.142-.142.142-.283.283-.567 0 0 0-.142.142-.142.142-.142.142-.284.284-.284l.142-.141.283-.284c0-.142.142-.142.142-.284s.142-.142.142-.142l.284-.283.142-.142.141-.142.284-.284.142-.141.284-.284.141-.142c.142-.142.284-.142.426-.284.142-.141.425-.283.567-.283 0 0 .142 0 .142-.142.142 0 .284-.142.284-.142H16.065c.142 0 .142 0 .284.142h.141c.142 0 .284.142.284.142l-3.262-1.844c-.142 0-.142-.142-.284-.142H10.817c-.142 0-.284.142-.284.142h-.141c-.142.142-.426.142-.568.284-.142.141-.284.141-.425.283 0 0-.142 0-.142.142l-.284.284-.142.142-.283.283-.142.142-.142.142s0 .142-.142.142l-.284.283s0 .142-.141.142l-.142.142c0 .142-.142.142-.142.284l-.142.142s0 .141-.142.141l-.142.142s0 .142-.141.142c0 .142-.142.142-.142.284 0 0 0 .142-.142.142-.142.141-.142.283-.284.425v.142c0 .142-.142.142-.142.284 0 0 0 .141-.141.141 0 0 0 .142-.142.142v.142c0 .142-.142.284-.142.284 0 .142-.142.283-.142.425v.284c0 .142 0 .142-.142.284V199.279c0 1.277.426 2.27 1.135 2.837l.284.284 3.262 1.844c-.851-.568-1.419-1.561-1.419-3.121v-.567c.284-.567.284-.709.284-.709Z" fill="#231F20"/><path d="M13.796 192.186c2.694-1.56 4.822-.283 4.822 2.837s-2.128 6.808-4.822 8.368c-2.695 1.56-4.823.284-4.823-2.836 0-3.121 2.128-6.808 4.822-8.369Z" fill="#2B2B2B"/><path d="M15.498 203.677V202.4c0-.142 0-.284.141-.284v-.141c0-.142.142-.284.142-.426v-.142c0-.142.142-.425.284-.567 0-.142.142-.284.284-.426 0 0 0-.141.141-.141.142-.142.142-.284.284-.426v-.142c.142-.142.142-.284.284-.567 0 0 0-.142.142-.142.141-.142.141-.284.283-.284l.142-.142c0-.141.142-.141.284-.283 0-.142.142-.142.142-.284s.141-.142.141-.142l.284-.283.142-.142.142-.142.283-.284.142-.142.284-.283.142-.142c.142-.142.283-.142.425-.284.142-.142.426-.283.568-.283 0 0 .141 0 .141-.142.142 0 .284-.142.284-.142H22.873c.142 0 .142 0 .284.142h.142c.141 0 .283.142.283.142l-3.262-1.844c-.142 0-.142-.142-.284-.142H17.767c-.142 0-.284.142-.284.142h-.142c-.142.142-.425.142-.567.283-.142.142-.284.142-.425.284l-.142.142-.284.284-.142.141-.284.284-.141.142-.142.142s0 .142-.142.142l-.284.283s0 .142-.142.142l-.141.142c0 .142-.142.142-.142.284l-.142.141s0 .142-.142.142l-.142.142s0 .142-.141.142c0 .142-.142.142-.142.284 0 0 0 .141-.142.141-.142.142-.142.284-.284.426v.142c0 .142-.142.142-.142.283v.142s0 .142-.142.142v.142c0 .142-.141.284-.141.284 0 .142-.142.283-.142.425v.284c0 .142 0 .142-.142.284V203.109c0 1.277.425 2.27 1.135 2.837l.283.284 3.263 1.844c-.851-.568-1.419-1.561-1.419-3.121v-.567l-.284-.709Z" fill="#231F20"/><path d="M20.32 195.877c2.695-1.56 4.822-.284 4.822 2.837 0 3.12-2.127 6.808-4.822 8.368-2.695 1.56-4.822.284-4.822-2.837 0-2.978 2.127-6.808 4.822-8.368Z" fill="#2B2B2B"/><path d="M163.999 139.003v22.552l-8.794 5.106.142-22.694 8.652-4.964Z" fill="#939598"/><path d="m155.347 143.963-.142 22.693-22.693-13.19v-22.552l22.835 13.049Z" fill="#808285"/><path d="m163.999 139-8.652 4.964-22.835-13.049 8.793-5.106L163.999 139Z" fill="#E6E7E8"/><path d="m157.333 39.997-.284 99.143-3.404 1.986.284-99.143 3.404-1.986Z" fill="#A7A9AC"/><path d="m153.929 41.984-.284 99.143-14.609-8.368.284-99.143 14.609 8.368Z" fill="#D5D7E3"/><path d="m157.333 39.998-3.404 1.986-14.609-8.369 3.404-1.985 14.609 8.368Z" fill="#909294"/><path d="m188.395 189.636-.142 3.971-92.477 53.756v-3.971l92.619-53.756ZM95.776 243.392v3.971L2.732 193.607v-3.971l93.044 53.756Z" fill="#6D6E71"/><path d="M188.395 189.634 95.776 243.39 2.732 189.634l92.477-53.755 93.186 53.755Z" fill="#1E1B1C"/><path d="M190.522 169.49v19.715l-94.746 55.032.142-19.857 94.604-54.89Z" fill="#BCBEC0"/><path d="m95.918 224.38-.142 19.857L.463 189.205l.142-19.715 95.313 54.89Z" fill="#BCBEC0"/><path d="m190.522 169.491-94.604 54.89-95.313-54.89 94.604-55.033 95.313 55.033Z" fill="#D1D3D4"/><path d="m188.395 165.238-.142 3.972-92.477 53.755v-3.971l92.619-53.756ZM95.776 218.994v3.971L2.732 169.21v-3.972l93.044 53.756Z" fill="#D1D3D4"/><path d="m188.395 165.237-92.619 53.756-93.044-53.756 92.477-53.755 93.186 53.755Z" fill="#F1F2F2"/><path d="m121.448 34.891 4.114.284 1.56.993-4.113-.426-1.561-.85Z" fill="#161314"/><path d="m123.009 35.742 4.113.425-.142.426-4.113-.284.142-.567ZM130.668 10.778l4.255.284-9.361 24.111-4.114-.283 9.22-24.112Z" fill="#121011"/><path d="m124.711 31.489 4.113.283-1.702 4.397-4.113-.425 1.702-4.255Z" fill="#121011"/><path d="m127.973 4.254 4.113.426-12.339 31.913-4.114-.284 12.34-32.055Z" fill="#616263"/><path d="m122.867 36.31 4.113.283 5.248 2.979-4.255-.284-5.106-2.978Z" fill="#161314"/><path d="m128.257 38.721 4.113.426-.142.425-4.255-.284.284-.567Z" fill="#793224"/><path d="m130.668 10.778 4.255.284-6.241 16.027-4.113-.426 6.099-15.885Z" fill="#121011"/><path d="m124.711 31.489 4.113.283 5.248 3.12-4.255-.425-5.106-2.978Z" fill="#923C2B"/><path d="m129.817 34.467 4.255.426-1.702 4.255-4.113-.426 1.56-4.255Z" fill="#793224"/><path d="m129.817 34.467-1.56 4.255-.284.568-5.106-2.979.142-.567 1.702-4.255 5.106 2.978Z" fill="#D7583F"/><path d="m128.257 38.721 4.113.426 3.12 1.702-4.255-.284-2.978-1.844Z" fill="#161314"/><path d="m131.235 40.564 4.255.283-.142.568-4.255-.426.142-.425Z" fill="#121011"/><path d="m132.937 36.31 4.255.283-1.702 4.255-4.255-.283 1.702-4.255Z" fill="#121011"/><path d="m131.093 40.991 4.255.425 5.106 2.979-4.113-.426-5.248-2.978Z" fill="#161314"/><path d="m136.483 43.543 4.255.284-.284.567-4.113-.425.142-.426Z" fill="#186A3B"/><path d="m138.185 39.29 4.113.283-1.56 4.255-4.255-.284 1.702-4.255Z" fill="#186A3B"/><path d="m132.937 36.31 4.255.283 5.106 2.979-4.113-.284-5.248-2.978Z" fill="#1D7F47"/><path d="m139.603 45.39 4.114.283-.142.426-4.113-.284.141-.425Z" fill="#121011"/><path d="m136.483 43.543 4.255.284 2.979 1.844-4.114-.284-3.12-1.844Z" fill="#161314"/><path d="m141.164 40.991 4.255.425-1.702 4.256-4.114-.284 1.561-4.397Z" fill="#121011"/><path d="m139.462 45.813 4.113.284 5.248 2.978-4.255-.284-5.106-2.978Z" fill="#161314"/><path d="m144.709 48.37 4.255.283-.141.425-4.255-.283.141-.426ZM146.411 44.11l4.256.283-1.703 4.255-4.255-.284 1.702-4.255Z" fill="#616263"/><path d="m141.164 40.991 4.255.425 5.248 2.979-4.256-.284-5.247-3.12Z" fill="#757778"/><path d="m146.411 44.111-1.702 4.255-.141.426-5.106-2.979.141-.425 1.561-4.397 5.247 3.12Z" fill="#ADAFB1"/><path d="m147.83 50.067 4.255.425-.284.426-4.113-.284.142-.567Z" fill="#121011"/><path d="m144.709 48.37 4.256.283 3.12 1.844-4.255-.426-3.121-1.702Z" fill="#161314"/><path d="m149.532 45.813 4.113.425-1.56 4.256-4.255-.426 1.702-4.255Z" fill="#121011"/><path d="m147.688 50.633 4.113.283 5.248 2.979-4.113-.284-5.248-2.978Z" fill="#161314"/><path d="m153.078 53.189 4.113.284-.142.425-4.113-.284.142-.425Z" fill="#616263"/><path d="m154.78 48.792 4.113.426-1.702 4.255-4.113-.284 1.702-4.397Z" fill="#616263"/><path d="m149.532 45.813 4.113.425 5.248 2.979-4.113-.425-5.248-2.979Z" fill="#757778"/><path d="m153.078 53.189 4.113.284 3.12 1.702-4.113-.284-3.12-1.702Z" fill="#161314"/><path d="m156.198 54.892 4.113.283-.141.568-4.256-.426.284-.425ZM157.758 50.633l4.255.283-1.702 4.256-4.113-.284 1.56-4.255Z" fill="#121011"/><path d="m155.914 55.316 4.255.425 5.107 2.979-4.114-.284-5.248-3.12Z" fill="#161314"/><path d="m161.304 57.87 4.255.425-.283.425-4.114-.283.142-.568Z" fill="#616263"/><path d="m157.758 50.633 4.255.283 5.106 2.979-4.113-.284-5.248-2.978Z" fill="#757778"/><path d="m161.304 57.87 4.255.425 1.56.85-4.255-.283-1.56-.993Z" fill="#161314"/><path d="m163.006 53.612 4.113.284-1.56 4.397-4.255-.426 1.702-4.255Z" fill="#616263"/><path d="m165.985 50.633 4.255.425-3.121 8.085-4.255-.284 3.121-8.226Z" fill="#121011"/><path d="m163.006 53.611-1.702 4.255-.142.568-5.248-3.12.284-.426 1.56-4.255 5.248 2.978Z" fill="#ADAFB1"/><path d="m115.633 36.31 4.113.283 50.21 28.935-4.255-.284-50.068-28.934Z" fill="#757778"/><path d="m172.226 34.748-6.241 15.886-41.416-23.97 6.099-15.886 41.558 23.97Z" fill="#177FC0"/><path d="m172.226 34.75 4.113.284-6.099 16.028-4.255-.426 6.241-15.885Z" fill="#2E2E2F"/><path d="m130.668 10.778 4.255.284 41.416 23.97-4.113-.284-41.558-23.97Z" fill="#373839"/><path d="m127.973 4.254 4.113.426 50.21 28.934-4.255-.425-50.068-28.935Z" fill="#161314"/><path d="m178.041 33.189 4.255.425-12.34 31.913-4.255-.284 12.34-32.054Z" fill="#121011"/><path d="m111.662 37.303 55.883 32.338 14.467-37.302L126.129 0l-14.467 37.303Zm54.039 27.942L115.633 36.31l12.34-32.055 50.068 28.935-12.34 32.055Z" fill="#E6E7E8"/><path d="m121.448 34.89 1.561.851 1.702-4.255 5.106 2.979-1.56 4.255 2.978 1.844 1.702-4.255 5.248 2.978-1.702 4.255 3.12 1.844 1.561-4.397 5.247 3.12-1.702 4.256 3.121 1.702 1.702-4.255 5.248 2.978-1.702 4.397 3.12 1.702 1.56-4.255 5.248 2.978-1.702 4.256 1.56.992 3.121-8.226-41.416-23.97-3.121 8.226Z" fill="#201D1D"/><path d="m178.041 33.189-12.34 32.054-50.068-28.934 12.34-32.055 50.068 28.935ZM162.864 58.86l3.121-8.227 6.241-15.885-41.558-23.97-9.361 24.112 1.702.85-.142.426 5.106 3.12.284-.567 2.978 1.844-.142.425 5.248 2.979.142-.426 3.12 1.844-.141.426 5.106 2.978.141-.425 3.121 1.702-.142.425 5.248 3.12.142-.425 3.12 1.702-.284.426 5.248 3.12.142-.567 1.56.993Z" fill="#201D1D"/><path d="m131.235 40.565-.142.425 5.248 2.979.142-.426 1.702-4.255-5.248-2.978-1.702 4.255Z" fill="#2ABC68"/><path d="m154.78 48.791-1.702 4.397-.142.426-5.248-2.979.142-.567 1.702-4.255 5.248 2.978Z" fill="#ADAFB1"/><path d="m126.129 0 4.113.284 55.883 32.338-4.113-.283L126.129 0Z" fill="#F1F2F2"/><path d="m182.012 32.336 4.113.284L171.8 69.923l-4.255-.284 14.467-37.303Z" fill="#BCBEC0"/><path d="M136.908 136.444v36.026l-43.543 25.531v-36.027l43.543-25.53Z" fill="#F5BC6F"/><path d="M93.365 161.974V198l-43.969-25.247v-36.026l43.969 25.247Z" fill="#FFCF7A"/><path d="m136.908 136.444-43.543 25.531-43.969-25.247 43.543-25.53 43.969 25.246Z" fill="#FCD495"/><path d="m119.463 174.881-19.29 11.205v-20.14l19.29-11.205v20.14Z" fill="#F1F2F2"/><path d="m117.76 164.387-.993.567v-6.24l.993-.568v6.241ZM115.775 165.523l-.993.567v-6.099l.993-.709v6.241ZM113.789 166.656l-1.134.567v-6.099l.992-.567.142 6.099ZM111.662 169.067l-.993.567v-7.375l.993-.567v7.375ZM109.676 169.067l-.993.568-.142-6.099 1.135-.568v6.099ZM107.549 170.203l-.993.709v-6.241l.993-.567v6.099ZM105.563 172.613l-.993.568v-7.376l.993-.567v7.375ZM103.577 172.612l-1.135.568v-6.099l.993-.568.142 6.099ZM117.903 173.181l-15.461 9.078v-.567l15.461-9.078v.567ZM117.903 170.912l-15.461 8.936v-.567l15.461-9.078v.709ZM117.903 168.5l-15.461 9.078v-.568l15.461-9.077v.567Z" fill="#6D6E71"/><path d="M64.288 172.753c-1.135-.709-2.127-2.269-2.127-3.546v-2.837l4.254 2.412v2.836c0 1.277-.992 1.702-2.127 1.135Z" fill="#CF9975"/><path d="M64.43 176.725c-.141 0-.141-.142-.141-.284v-5.248c0-.142.141-.142.141-.142.142 0 .142.142.142.284v5.248c0 .142 0 .142-.142.142Z" fill="#CF9975"/><path d="m66.416 177.859-3.971-2.269c-.142 0-.142-.142-.142-.284 0-.141.142-.141.142-.141l3.971 2.269c.142 0 .142.142.142.284 0 .141 0 .141-.142.141ZM69.537 173.888c-.426-.284-.71-.284-.993-.142.142-2.269 1.702-3.262 3.83-1.986 2.127 1.135 3.829 4.114 3.829 6.525a4.316 4.316 0 0 0-1.135-1.135c-.567-.425-1.135-.283-1.418.284-.284-.709-.71-1.418-1.419-1.844-.567-.425-1.134-.284-1.418.284-.142-.851-.709-1.561-1.276-1.986Z" fill="#CF9975"/><path d="m71.097 180.553-.71-.426c-.141 0-.141-.142-.141-.284 0-.141.142-.141.142-.141l.709.425c.567.284 1.135 0 1.135-.567v-4.681c0-.142.141-.142.141-.142.142 0 .142.142.142.284v4.681c0 .851-.567 1.276-1.418.851ZM55.211 168.642l-.425-2.553-1.986-.426.425.568-.709.993v.425l.993 2.553 1.277-1.844.425.284Z" fill="#CF9975"/><path d="m54.928 168.642-1.135 1.561 2.553 1.418v-2.128l-1.418-.851ZM58.615 170.769v-.568l-1.56.709 1.56 2.553v-.567l1.277.709c.142.142.283 0 .283 0l.993-1.418-2.553-1.418Z" fill="#CF9975"/><path d="m61.168 171.904-1.276-3.262-1.56.142.709 1.986 2.127 1.134ZM58.757 165.948l-.71-1.703c0-.141-.141-.283-.283-.425l-1.986-1.135 1.419 3.404h-.426l1.986 1.844.426-1.985h-.426Z" fill="#CF9975"/><path d="m55.637 162.684-1.277 1.844 1.56 1.986.71-1.135-.993-2.695ZM67.267 147.65l6.1 3.405 44.394-25.531-6.099-3.404-44.395 25.53Z" fill="#CF9975"/><path d="m67.41 161.549 5.956 3.546v-13.9l-6.099-3.546.142 13.9Z" fill="#CF9975"/><path d="M137.618 98.006v36.027l-43.544 25.53v-36.026l43.544-25.53Z" fill="#F5BC6F"/><path d="M94.074 123.536v36.027l-43.969-25.247-.142-36.026 44.111 25.246Z" fill="#FFCF7A"/><path d="m137.618 98.008-43.544 25.53-44.11-25.247 43.685-25.53 43.969 25.247Z" fill="#FCD495"/><path d="m120.172 136.445-19.29 11.205v-20.141l19.29-11.205v20.141Z" fill="#F1F2F2"/><path d="m118.469 125.95-.993.568v-6.241l.993-.567v6.24ZM116.484 127.084l-.993.567-.141-6.099 1.134-.567v6.099ZM114.357 128.219l-.993.709v-6.241l.993-.567v6.099ZM112.371 130.63l-.993.567v-7.375l.993-.567v7.375ZM110.385 130.631l-1.134.567v-6.099l.992-.567.142 6.099ZM108.258 131.766l-.993.71v-6.241l.993-.568v6.099ZM106.272 134.177l-.993.567v-7.233l.993-.709v7.375ZM104.144 134.175l-.992.568v-6.099l.992-.568v6.099ZM118.612 134.745l-15.46 9.077v-.567l15.46-9.078v.568ZM118.612 132.476l-15.602 8.935v-.567l15.602-9.077v.709ZM118.612 130.064l-15.602 9.078v-.568l15.602-9.077v.567Z" fill="#6D6E71"/><path d="M64.998 134.317c-1.135-.709-2.128-2.269-2.128-3.546v-2.837l4.114 2.412v2.836c.142 1.277-.851 1.844-1.986 1.135Z" fill="#CF9975"/><path d="M65.14 138.288c-.142 0-.142-.142-.142-.284v-5.248c0-.142.142-.142.142-.142.142 0 .142.142.142.284v5.248c0 .142 0 .142-.142.142Z" fill="#CF9975"/><path d="m67.125 139.422-3.971-2.269c-.142 0-.142-.142-.142-.284s.142-.142.142-.142l3.971 2.269c.142 0 .142.142.142.284s0 .142-.142.142ZM70.246 135.452c-.426-.284-.71-.284-.993-.142 0-2.269 1.702-3.262 3.83-1.986 1.985 1.135 3.687 4.113 3.83 6.525a4.316 4.316 0 0 0-1.136-1.135c-.567-.426-1.134-.284-1.418.284-.284-.71-.71-1.419-1.418-1.844-.568-.426-1.135-.284-1.419.283-.142-.851-.709-1.56-1.276-1.985Z" fill="#CF9975"/><path d="m71.806 142.116-.71-.426c-.141 0-.141-.142-.141-.284 0-.141.142-.141.142-.141l.709.425c.567.284 1.135 0 1.135-.567v-4.681c0-.142.141-.142.141-.142.142 0 .142.142.142.284v4.681c0 .851-.567 1.276-1.418.851ZM55.92 130.205l-.425-2.553-1.986-.425.426.425-.71.993v.426l.993 2.411 1.277-1.844.425.567Z" fill="#CF9975"/><path d="m55.637 130.205-1.135 1.56 2.553 1.418v-2.127l-1.418-.851ZM59.325 132.332v-.567l-1.56.709 1.56 2.553v-.567l1.276.709c.142.142.284 0 .284 0l.993-1.418-2.553-1.419Z" fill="#CF9975"/><path d="m61.878 133.61-1.277-3.404-1.56.142.709 1.986 2.128 1.276ZM59.466 127.51l-.709-1.702c0-.142-.142-.284-.283-.426l-1.986-1.134 1.418 3.404h-.425l1.985 1.844.426-1.986h-.426Z" fill="#CF9975"/><path d="m56.346 124.248-1.276 1.844 1.56 1.985.709-.992-.993-2.837ZM67.977 109.212l6.098 3.545 44.253-25.53-6.099-3.404-44.252 25.389ZM67.977 123.112l6.098 3.546v-13.9l-6.099-3.546v13.9Z" fill="#CF9975"/></svg>