<svg width="122" height="238" fill="none" xmlns="http://www.w3.org/2000/svg"><path d="M117.025 144.2c0-.677.135-1.219.135-1.896.135-.677.135-1.355.27-1.896v-.136c.81-2.302.27-6.095.405-7.991l-5.133-.948c-.946.948-2.702 2.303-3.648 3.792-.54.678-1.351 1.219-1.351 2.032-.135 1.219-.27 1.761-.405 2.844 0 .948-.54 1.761-.54 2.709 0 .813.135 2.032 1.351 1.49.675-.271.81-2.032.945-2.709.135-.542.406-1.083.676-1.625.135.135.405.271.54.406.135.407 0 .948 0 1.355v1.354c0 .542.135 1.219-.135 1.761-.675 1.083-1.486 2.031-1.891 3.25-.135.542.135 1.49.945 1.084.406-.136.541-.542.811-.813.27-.271.54-.541.811-.948l.135-.135c-.135.271-.271.677-.541.948-.27.542-.945 1.354-.81 2.031.135.949.945.949 1.621.407.135-.136.27-.271.405-.542v.271c0 .271.27.677.54.677.271 0 .541-.406.676-.542.27-.406.675-.812.945-1.083.406-.407.541-.677.811-1.084 0 .407 0 .948.405.948.135 0 .406-.271.541-.406.27-.271.27-.406.405-.677.405-.813.81-1.49 1.081-2.438v-1.49Z" fill="#FED8A7"/><path d="M108.92 215.308c.54 1.083 1.351 8.804.81 9.752-.675 1.219-1.891 2.573-4.188 2.302-2.296-.271-4.052-2.844-5.673-3.115-1.486-.271-6.62-2.573-9.997-4.334-1.756-.948-4.053-4.063-3.512-5.96.405-1.354 3.107-2.844 4.052-2.573 3.242.813 4.593.677 6.755 1.084 2.026.406 1.621.406 3.647.541.811 0 4.593-.271 4.593 1.084l3.513 1.219Z" fill="#1E160D"/><path d="M111.621 140.812c-.945 5.553-.405 11.106-.945 16.659-.676 6.637.81 14.357-2.162 20.452-.945 1.896-3.782 5.011-7.43 4.74-2.161-.135-6.754-.677-6.349-2.167.27-1.49-.946-4.198-.946-5.688.135-2.574-.27-17.879-.54-22.755-.27-4.063-.135-6.501-.27-10.97 0 0-.81-9.617 8.781-8.533 9.591 1.219 9.996 7.584 9.861 8.262Z" fill="#08273A"/><path d="M109.73 178.874c-.54-3.521-.27-6.366-.405-10.293-.135-2.845-15.4.541-15.536 7.584 0 0 3.377 27.36 1.486 36.028l-.135 1.49s.27 3.25 4.458 5.688c2.837 1.626 8.781 2.438 9.997 0 2.972-5.688 2.161-28.578.135-40.497Z" fill="#08273A"/><path d="M91.223 225.598c.405 1.219 2.701 5.283 1.486 9.346-.406 1.354-2.027 2.573-4.323 2.031-.81-.27-3.918-2.979-5.674-3.386-1.486-.27-7.295-2.844-8.646-3.657-1.216-.677-2.702-1.354-3.512-2.573-1.08-1.354-2.026-3.657-1.351-5.553.54-1.354 1.486-2.032 2.432-1.761 3.242.948 5.808.677 7.97 1.219 2.026.406 2.702.677 4.728.813.81.135 4.593-.136 4.458 1.354l2.432 2.167Z" fill="#1E160D"/><path d="M98.112 147.992c-1.216 5.418-.27 11.377-1.08 16.931-.946 6.501.134 14.356-3.108 20.316-.946 1.761-4.053 4.74-7.7 4.334-2.161-.271-5.809-1.083-6.35-2.438-.404-1.49-.81-4.334-.675-5.688.27-2.574.54-17.879.54-22.755 0-4.063 0-14.357 1.216-20.181 0 0-.405-4.605 9.322-3.657 8.24.949 7.97 12.461 7.835 13.138Z" fill="#0B2F49"/><path d="M95.546 190.655c-.406-3.522.135-6.366.135-10.294 0-2.844-15.536-3.115-16.076 3.928 0 0 2.702 28.849.405 37.517l-.27 1.49s-.81 1.761.27 3.251c.676 1.354 2.162 2.709 4.053 3.251 2.702.677 8.51 1.083 9.05-1.626 2.027-8.939 3.918-25.463 2.433-37.517Z" fill="#0B2F49"/><path d="M36.241 175.894c-1.215.271-1.891 1.896-2.431 2.844-.676 1.219-.946 2.98.54 4.741 1.486 1.76 4.593 1.76 5.809 2.979 1.08 1.084 5.809 3.928 9.321 5.824 1.756.948 5.674 1.084 6.755-.541.81-1.084.54-4.199-.136-4.876-2.566-2.167-3.107-3.386-4.728-5.012-1.486-1.49-1.215-1.083-2.431-2.709-.54-.677-2.432-3.927-3.513-3.115l-9.186-.135Z" fill="#1E160D"/><path d="M29.487 104.11c1.08 5.553.54 11.106 1.216 16.524.81 6.636-.406 14.357 2.566 20.451.946 1.897 3.918 4.876 7.565 4.605 2.162-.135 6.62-.812 6.35-2.302-.27-1.49.945-4.334.81-5.689-.135-2.573 0-17.743.135-22.754.135-4.063 0-6.501 0-10.971 0 0 .946-8.262-8.645-6.907-9.727 1.354-10.132 6.23-9.997 7.043Z" fill="#525563"/><path d="M32.053 140.81c.54-3.522.136-6.366.136-10.294 0-2.844 15.4.271 15.67 7.314 0 0-2.837 27.359-.81 36.028l.27 1.489s.405 1.355-.54 2.303c-.136 0-1.487 1.219-3.513 1.761-2.702.677-6.214.406-8.105-1.626-4.594-5.146-4.864-25.056-3.108-36.975Z" fill="#525563"/><path d="M15.032 186.594c-1.216.271-1.891 1.896-2.432 2.845-.675 1.218-1.08 3.115.54 4.74.676.677 4.594 1.761 5.81 2.98 1.08 1.083 6.349 4.74 7.7 5.417 1.216.678 2.566 1.49 4.052 1.626 1.756.135 4.188-.271 5.404-1.761.81-1.084.946-2.303.135-2.98-2.567-2.167-3.647-4.469-5.268-6.095-1.486-1.49-2.027-1.896-3.243-3.521-.54-.677-2.431-3.928-3.512-3.115l-9.186-.136Z" fill="#1E160D"/><path d="M17.194 110.07c.675 5.553-.946 11.377-.811 16.93.27 6.637-1.621 14.222.81 20.587.811 1.897 3.513 5.147 7.16 5.147 2.162 0 6.755-.271 6.485-1.761-.136-1.489 1.215-4.198 1.35-5.553.136-2.573 1.486-17.743 2.027-22.619.405-4.063.81-7.72 2.296-11.648 0 0 1.081-8.532-8.645-8.668-8.106 0-10.808 6.772-10.672 7.585Z" fill="#5F6272"/><path d="M15.032 151.376c.81-3.521.676-6.365.946-10.293.27-2.844 15.805-1.355 15.535 5.553 0 0-5.539 30.068-4.323 38.872l.135 1.49s.406 1.354-.81 2.167c-.135 0-1.621 1.083-3.648 1.49-2.566.406-6.079-.136-7.835-2.303-4.188-5.282-2.837-25.192 0-36.976Z" fill="#5F6272"/><path d="M43.67 45.188c2.567 10.565 6.215 24.38 9.997 23.432 1.486-.407 6.755-2.438 5.81-5.824-2.162-7.856-1.216-15.576-2.838-22.213C54.073 30.02 50.83 28.8 47.048 29.748c-3.918.948-5.944 4.876-3.377 15.44Z" fill="#525563"/><path d="M48.67 64.964c.54 7.45 2.566 20.316 6.078 20.587 1.216.136 4.458.271 5.269-1.76 1.216-3.251.675-13.274-.405-20.181-.27-1.49-1.351-1.896-4.864-2.303-3.512-.406-6.484-1.083-6.079 3.657Z" fill="#525563"/><path d="M29.352 29.478c-.946.27-9.592 9.074-13.915 13.815-2.972 3.521-3.377 11.919-3.377 13.002.135 3.522 4.998 25.057 5.809 29.933.81 4.876-1.891 20.858-1.891 24.109 0 2.979 3.107 7.313 11.888 7.313 5.538 0 20.128-2.708 21.074-11.648.675-7.178-.406-42.257.54-46.185 1.08-3.793 8.646-23.838 2.702-29.256-1.621-1.354-4.728-2.167-6.485-2.031-6.619.27-15.265.812-16.345.948Z" fill="#6D7086"/><path d="M35.836 26.363c-.676 0-7.7.542-12.023 7.45-2.972 4.875 2.837 18.826 2.431 18.961-.54.136 3.513-2.032 4.864-.813 0 0-.406 3.793-1.216 5.012-.946 1.219 12.698 10.158 12.293 13.815 0 0 8.105-22.348 7.835-25.734 0-.948-3.647-2.032-3.647-2.032.405-1.219 2.972-2.844 2.972-2.844.27-1.76-5.539-14.628-13.51-13.815Z" fill="#777B95"/><path d="M44.617 46.544c.675 4.199.27 8.533-.406 12.732-.81 4.198-1.486 6.5-2.026 11.512-3.377-14.086-3.918-14.627-8.24-21.67-1.486-2.168-3.108-4.605-4.729-6.502-1.35-1.625-1.486-4.198-1.08-5.96.945-3.791 4.052-3.52 6.619-3.52 4.053 0 7.295 1.76 8.916 6.636-.135 0 .54 4.47.946 6.772Z" fill="#CED2E7"/><path d="M43.67 61.984c-.27-3.793-2.566-13.544-3.376-14.899l-1.892.813s.946 6.501.406 10.429c.135.27 3.377 12.46 3.377 12.46.54-2.844 1.08-5.823 1.486-8.803Z" fill="#030E16"/><path d="M36.241 45.462s2.162 3.25 2.972 2.98c.946-.136 1.891.406 2.162-3.522.27-3.928-3.648-2.303-5.134.541Z" fill="#030E16"/><path d="M39.348 32.459c2.026 1.354 2.837 6.5 2.972 8.668.135 1.896.135 3.928-.54 5.96-.27-1.084-1.08-2.71-2.026-3.387-1.351-.677-1.216-.27-1.892.677-.945 1.355-1.486 3.928-2.837 4.876-.54-1.625-.945-3.115-2.296-4.47-1.08-1.218-2.297-2.437-3.648-3.385-3.377-2.303-4.322-8.804-.945-11.107 5.944-4.198 11.212 2.168 11.212 2.168Z" fill="#fff"/><path d="M.983 119.683c.135-.678.27-1.219.405-1.896.135-.678.27-1.355.405-1.897v-.135c0-2.438 1.756-5.96 2.297-7.72l5.268 1.083c.54 1.219 1.756 2.98 2.162 4.741.27.812.54 1.49.54 2.438 0 1.219-.27 1.76-.675 2.844-.136.677 0 1.761-.27 2.573-.27.813-.811 1.897-1.757.948-.54-.541-.135-2.167 0-2.844 0-.542 0-1.083-.135-1.761-.27.136-.54.271-.675.271-.27.407-.27.813-.406 1.355l-.405 1.219c-.135.541-.54 1.083-.405 1.625.27 1.354.675 2.438.675 3.792 0 .542-.675 1.355-1.215.813-.406-.271-.406-.677-.54-1.084-.136-.406-.406-.812-.541-1.083 0-.136 0-.136-.135-.271 0 .406.135.677.135.948.27.677.54 1.625.27 2.167-.405.813-1.216.542-1.621-.135-.135-.271-.135-.407-.27-.677 0 .135 0 .135-.135.27 0 .271-.406.542-.676.407-.135 0-.405-.542-.405-.677-.135-.407-.27-.949-.54-1.355-.27-.542-.406-.813-.406-1.354-.135.406-.27.948-.675.812-.135 0-.27-.406-.405-.541-.136-.407 0-.542-.136-.813 0-.948-.135-1.761-.135-2.709 0-.406.27-.813.406-1.354Z" fill="#FED8A7"/><path d="M8.683 57.109C4.36 67.538.173 82.03 3.955 83.249c1.486.407 8.105 1.626 9.05-1.896 2.297-8.262 7.025-14.628 9.187-21.4 3.377-10.835 1.35-13.544-2.432-14.763-3.917-1.219-4.458-4.199-11.077 11.919Z" fill="#6D7086"/><path d="M2.198 81.217C.442 91.375.172 110.337 3.684 110.878c1.351.136 5.404 1.084 6.35-2.031 1.62-4.876.945-17.743 3.107-28.308.405-2.302-.81-4.334-4.323-4.876-3.513-.541-5.404-1.625-6.62 5.554Z" fill="#6D7086"/><path d="M29.216 22.028c0 3.115.54 4.74.135 8.532-.135 1.22-.675 2.71-.675 4.47 0 2.844 4.188 3.928 5.133 4.605 1.216 1.084 3.107 1.49 5.269 3.522.54-2.303 1.62-4.605 1.215-6.502-.27-1.625 0-4.063-.54-5.553-.675-1.76-2.296-2.709-2.296-4.605l-8.24-4.47Z" fill="#E6C283"/><path d="M45.427 10.384c0 1.76.676 3.386 1.08 5.011.271 1.22.406 1.49-.134 2.574-.676 1.625-.405 3.115 0 4.74.405 1.896-.135 3.928-.676 5.824-.405 1.49-.675 3.25-2.026 4.063-3.377 2.303-7.025-.135-10.402-1.354-3.377-1.219-2.837-5.96-3.917-8.804-1.892-5.011-.54-12.054 4.998-14.221 2.566-.948 6.62-1.49 9.05-.542.946.406 2.568 2.303 1.757 3.25l.27-.541Z" fill="#FED8A7"/><path d="M27.055 2.662c3.242-2.845 9.727-1.896 14.995.677 2.702 1.219 3.242 4.876 3.242 4.876.676 1.083-2.296 3.115-2.972 3.521-1.62.813-3.242 1.084-4.863 1.084-1.08 0-2.161 0-3.107-.136-.675 0-1.621-.406-2.297-.27-1.62.27-1.62 2.302-2.026 3.656-.135.949-.54 1.897-.675 2.98 0 .542.81 6.23 0 6.366-1.081.27-5.539-5.011-5.81-7.991-.134-2.032-2.296-9.617 3.513-14.763Z" fill="#603913"/><path d="M26.65 22.032c.675 1.896 2.026 3.115 2.837 2.844.81-.406 1.62-2.167.945-4.063-.675-1.896-2.701-3.115-3.512-2.709-.81.27-.946 2.032-.27 3.928Z" fill="#FED8A7"/><path d="M117.43 80.271c2.161 10.565 4.728 24.651.81 25.328-1.486.406-7.429.812-7.97-2.709-1.351-8.127-5.268-14.763-6.484-21.4-2.026-10.564.27-13.002 4.188-13.815 3.917-.813 7.43 1.896 9.456 12.596Z" fill="#08273A"/><path d="M120.807 105.731c.946 10.159 0 28.85-3.647 29.121-1.351.135-5.404.677-6.214-2.438-1.351-4.876.27-17.608-1.081-28.037-.27-2.302 1.081-4.199 4.728-4.47 3.512-.406 5.539-1.354 6.214 5.824Z" fill="#08273A"/><path d="M90.007 74.039c-.81.27-5.809 2.709-9.456 7.45-2.702 3.52-2.567 11.376-2.432 12.46.27 3.25 1.486 35.621 1.486 38.736 0 6.095-.675 11.919-.405 12.732 2.566 7.043 14.184 3.792 16.346 3.521 7.294-.948 17.831-6.772 17.291-10.293-1.081-6.772-1.351-36.163-.675-39.956.675-3.792 4.323-21.129-.541-28.036-1.216-1.49-3.512-2.438-5.268-2.167-6.214.677-15.265 5.282-16.346 5.553Z" fill="#0D3659"/><path d="M86.9 95.98c-5.134 10.157-11.213 23.837-14.86 21.941-1.216-.677-6.755-4.47-5.134-7.72 4.053-7.45 5.27-15.44 8.376-21.671 5.133-10.158 8.51-10.565 12.023-8.804 3.647 1.76 4.728 6.095-.405 16.253Z" fill="#0D3659"/><path d="M85.414 46.14c0 1.76-1.216 3.928-1.621 5.553-.27 1.083-.406 1.49.135 2.573.675 1.49.405 2.98 0 4.605-.406 1.896.135 3.928.675 5.824.405 1.49.675 3.25 2.026 4.064 3.378 2.302 7.16.948 10.537-.136 3.378-1.219 2.837-7.178 3.783-9.887 1.891-5.012.54-12.055-4.998-14.222-2.567-1.083-6.62-1.49-9.051-.541-.946.27-1.486 2.167-1.486 2.167Z" fill="#FED8A7"/><path d="M90.007 66.318s2.296 7.179.945 9.21c-.54.678 2.297 2.438 4.999 2.438 4.323.136 9.186-2.167 7.7-5.688-.676-2.032-2.837-3.793-1.486-11.648.405-2.438-12.158 5.688-12.158 5.688Z" fill="#FED8A7"/><path d="M102.57 41.264c-5.133-3.522-12.158-3.115-15.535.813-1.891 2.302-2.027 5.146-2.027 5.146-.54.949 2.297.813 2.972 5.012 3.513 21.264 13.374 13.544 13.78 12.867 2.566-6.095 4.187-4.605 5.403-8.262 1.756-5.553 2.702-10.7-4.593-15.576Z" fill="#60573A"/><path d="M91.357 60.228c-.81 1.896-1.215 3.657-2.026 3.25-.81-.27-1.621-2.031-.946-3.927.676-1.897 1.081-3.657 2.027-3.657 1.62 0 1.62 2.438.945 4.334ZM57.045 84.332c-.81.136-2.431 2.439-2.567 3.116-.27 1.219.54 2.709.406 4.063 0 .948-.135 1.49.675 2.167.676.542 1.351 1.084 2.162 1.084 1.35.135 2.566-1.49 3.242-2.574.945-1.625 0-4.334-.54-5.96-.406-.676-1.081-1.354-2.027-1.49-1.35-.27-2.432.814-2.432 2.168l1.081-2.574Z" fill="#FED8A7"/><path d="M59.477 83.385c0 .813.27 1.355.54 2.032.27.406.405.813.405 1.219.27 1.354-1.621 1.083-2.567 1.354-.54.271-1.08.407-1.62.678-.541.27-.676.406-1.216 0-.811-.813-.136-1.355-.136-2.168 0-.541-.405-1.354-.27-1.896.135-.541 1.216-1.083 1.756-1.354a5.408 5.408 0 0 1 2.027-.406c.27 0 1.35.27.945.812l.136-.27Z" fill="#FED8A7"/><path d="M56.37 89.076s-.136 0-.136-.135l.136-.271c-.136.135 0 .27 0 .406Z" fill="#E6C283"/><path d="M52.452 90.29c-.54-.406-.54-.948-.405-1.354.135-.542.54-.542.945-.406-.135-.407-.27-.678-.135-1.22.406-1.625 2.297-.541 3.242 1.626 0 0 2.567 3.386 2.972 2.98.676-.678-.405-3.657 1.216-4.199.54-.135.54.677.81 1.219.541.948 0 1.219 0 2.573 0 .677.27 1.626.27 2.303.406 1.896-.404 3.386-.54 3.792-.135.406-.27.677-.54 1.084 0 .135-.405.948-.405.812 0 0-4.593 1.49-4.458 1.49-.405-.271-2.161-3.25-2.297-4.063 0-.542-.27-1.219-.27-1.76-.27-.272-.54-.678-.81-1.084-.27-.407-.946-1.355-.676-1.897.135-.27.27-.406.54-.406-.27-.406-.54-.677-.405-1.083.27-.407.54-.542.946-.407Z" fill="#E6C283"/><path d="M66.501 117.788c-5.539-4.334-13.779-14.357-11.618-17.201.811-1.084 3.243-4.334 5.404-3.386 3.242 1.49 8.376 8.939 14.32 13.138 1.35.948 4.458 1.761 2.296 4.469-2.431 2.845-6.35 5.96-10.402 2.98Z" fill="#0D3659"/><path d="M59.207 92.461c-.676.407-1.486 2.574-1.621 3.251-.27.948-1.892 2.167-2.297.542-.135-1.22.81-2.167 1.216-3.115.405-.813.405-.948-.135-1.626-.406-.541-.676-1.219-.946-1.896-.54-1.354-.405-2.709.405-4.063.27-.542.946-1.355 1.486-1.49 1.757-.27 2.027 1.896 2.162 3.115 0 .948.135 1.49.405 2.303.27 1.083.135 2.302-.675 2.98ZM51.911 93.812c.27-.271.946.27.946.406.135.271-.135.677-.135.948l.54.271c.27.406.135.677 0 1.084v.406c0 .135.135.135.27.27.27.272.54.543.406.949 0 .135 0 .406.135.542.27 0 .54 0 .675.27.406.271.27 1.084 0 1.355-.27.271-.81.271-1.08 0-.27-.135-.27-.406-.406-.677 0-.136 0-.407-.135-.542-.135-.27-.405-.406-.54-.677a1.884 1.884 0 0 1 0-1.22c.135-.27-.27-.406-.405-.676 0-.136-.136-.271-.136-.407 0-.135 0-.27.136-.541 0-.271-.136-.407-.27-.542-.406-.271-.406-.542-.406-.813 0-.135 0-.27.135-.406s.27-.136.406 0h-.136Z" fill="#FED8A7"/><path d="M102.435 69.572c.27-.135.405-.541.27-.948.676 1.084 1.756 2.032 2.567 3.115.675.813.54.948.27 2.032-.27 1.355-.675 2.573-1.621 3.657-1.756 1.896-3.512 1.896-5.944 2.167-2.702.406-5.539-.27-7.97-1.49-.81-.406-1.081-.812-2.027-.948-.945-.135-1.756.136-2.566.271 1.486-1.354 2.566-2.709 4.187-3.792.27-.271.81-.542 1.216-.678.54-.135.27-.27.81.271.811.677 1.217 1.22 2.297 1.49 2.027.677 4.188.271 5.81-1.083 1.08-.813 2.701-2.845 2.566-4.334 1.216-.678 1.891.135 2.566 1.083l-2.431-.813Z" fill="#084373"/></svg>