<svg width="223" height="223" fill="none" xmlns="http://www.w3.org/2000/svg"><path d="m214.348 110.87-53.395-30.895c3.045 1.706 4.854 5.402 4.854 10.71v.663l53.395 30.895v-.663c0-5.308-1.809-9.004-4.854-10.71Z" fill="#EAA61F"/><path d="m214.157 110.775-53.49-30.895 7.995-4.644 53.395 30.896-7.9 4.643Z" fill="#FFE24E"/><path d="M222.057 106.13c.19-.095.381 0 .381.19v14.026l-3.236 1.895v-.663c0-5.402-1.999-9.193-5.14-10.804l7.995-4.644Z" fill="#FDD506"/><path d="M213.777 124.516v-.853c0-.095 0-.19-.096-.285V123.094c0-.095-.095-.189-.095-.284 0-.095-.095-.19-.095-.284 0-.095-.095-.19-.095-.38v-.189c0-.095-.095-.095-.095-.19-.095-.094-.095-.284-.191-.379-.095-.189-.19-.284-.285-.379-.191-.284-.476-.474-.762-.663l-.095-.095-1.713-1.042-4.569-2.654c.286.189.572.474.857.758.286.284.476.664.666.948.191.379.286.758.381 1.232.095.474.19 1.042.19 1.516 0 .569-.095 1.137-.095 1.706-.095.569-.19 1.137-.381 1.801-.19.568-.38 1.232-.666 1.8-.19.474-.476.948-.666 1.422-.095.189-.286.474-.381.663-.285.474-.571.853-.856 1.327-.381.474-.762 1.043-1.238 1.422-.38.474-.856.853-1.332 1.232-.476.379-.952.663-1.428.947-.285.095-.476.285-.761.38-.191.094-.476.189-.666.284h-.096c-.19.095-.38.095-.571.189h-.095c-.19 0-.381.095-.571.095H197.216c-.191 0-.381 0-.476-.095-.191 0-.286-.094-.476-.094h-.095l-.571-.285 6.281 3.602c.191.094.381.189.476.284h.095c.191.095.286.095.476.095.191 0 .286 0 .476.094h.857c.095 0 .285 0 .38-.094h.381c.095 0 .191-.095.286-.095H205.591c.095 0 .191-.095.286-.095.095 0 .19-.095.285-.095.096-.094.191-.094.286-.189.095-.095.19-.095.285-.19 0 0 .096 0 .096-.095.095 0 .095-.094.19-.094.095-.095.19-.095.285-.19.096-.095.191-.095.286-.189.095-.095.19-.095.286-.19.095-.095.19-.189.285-.189l.095-.095c-.095 0 0-.095 0-.095l.286-.284.285-.285.286-.284c.095 0 .095-.095.19-.189l.095-.095.096-.095c.095-.095.095-.19.19-.19.095-.094.095-.189.19-.189.095-.095.095-.19.191-.19.095-.094.095-.189.19-.189.095-.095.095-.19.19-.19l.191-.189c.095-.285.19-.379.19-.474.095-.095.19-.19.19-.284.096-.095.191-.19.191-.285.095-.095.19-.284.285-.379.095-.189.286-.379.381-.663.095-.095.19-.285.286-.379.095-.095.095-.285.19-.379.095-.095.095-.19.19-.379 0-.095.095-.19.095-.285 0-.095.096-.189.096-.284 0-.095.095-.19.095-.284 0-.095.095-.19.095-.285 0-.095.095-.189.095-.284 0-.095.095-.19.095-.284 0-.095.096-.19.096-.285v-.094c0-.095 0-.095.095-.19 0-.095.095-.19.095-.379 0-.095.095-.19.095-.379 0-.095.095-.284.095-.379 0-.095.095-.285.095-.379v-2.085c.191.189.191.094.096 0Z" fill="#313132"/><path d="M206.067 118.735s.095 0 0 0c.286-.095.476-.189.666-.189h.095c.191 0 .381-.095.572-.095H208.161c.19 0 .286 0 .476.095.095 0 .285.094.381.094.095 0 .095 0 .19.095.19.095.381.19.476.285l-6.187-3.791-.571-.285c-.095 0-.095 0-.19-.094-.095 0-.286-.095-.381-.095h-1.428c-.095 0-.19 0-.38.095h-.095c-.096 0-.191 0-.191.094-.095 0-.19.095-.285.095H199.69c-.095 0-.19.095-.285.095-.096 0-.191.095-.286.095-.095.095-.19.095-.285.189-.096.095-.191.095-.286.19 0 0-.095 0-.095.095-.095 0-.095.094-.191.094-.095.095-.19.095-.285.19-.095.095-.19.095-.286.189-.095.095-.19.095-.285.19-.095.095-.191.19-.286.19l-.095.094-.19.19-.286.284-.285.284-.286.285-.285.284-.096.095-.095.095c-.095.094-.095.189-.19.189-.095.095-.095.19-.19.19-.096.094-.096.189-.191.189-.095.095-.095.19-.19.19-.095.095-.095.189-.19.189l-.191.19c-.095.095-.095.189-.19.284-.095.19-.191.285-.286.474-.095.095-.19.19-.19.379-.095.095-.19.284-.286.379-.095.19-.285.379-.38.664-.096.094-.191.284-.286.379-.095.094-.095.284-.19.379-.095.095-.095.189-.191.379 0 .095-.095.189-.095.284 0 .095-.095.19-.095.285 0 .094-.095.189-.095.284 0 .095-.095.189-.095.284 0 .095-.095.19-.095.284 0 .095-.096.19-.096.285 0 .095-.095.189-.095.284v.095c0 .095 0 .095-.095.189 0 .095-.095.19-.095.379 0 .095-.095.19-.095.38 0 .094-.096.284-.096.379 0 .094 0 .284-.095.379v3.127c0 .095 0 .19.095.284V130.108c0 .095.096.189.096.284 0 .095.095.19.095.284 0 .095.095.19.095.379v.095c0 .095.095.095.095.19.095.095.095.284.191.379.095.189.19.284.285.379.286.284.571.569.857.758l6.281 3.601c-.285-.189-.571-.473-.856-.758-.286-.284-.476-.663-.666-.947-.191-.38-.286-.759-.381-1.232-.095-.474-.191-1.043-.191-1.612 0-.568 0-1.137.096-1.705.095-.569.19-1.138.38-1.801.191-.569.381-1.232.667-1.801.19-.474.476-.947.666-1.421.095-.19.285-.379.381-.664.285-.474.571-.853.856-1.326.381-.474.762-1.043 1.238-1.422.38-.474.856-.853 1.332-1.232.476-.379.952-.758 1.428-1.043.285-.189.476-.284.761-.379.571-.284.857-.379 1.047-.379Z" fill="#B7B8B8"/><path d="M204.639 119.398c3.998-2.274 7.234-.473 7.234 4.076 0 4.549-3.236 10.14-7.234 12.415-3.997 2.274-7.233.473-7.233-4.076 0-4.643 3.236-10.14 7.233-12.415Z" fill="#7B7C7C"/><path d="M201.023 128.781c0-.095.095-.19.095-.284.095-.095.095-.19.19-.285.095-.095.191-.095.191-.189.095 0 .19-.095.19-.095h.19l-.19-.095-.381-.189H201.023c-.096 0-.096.094-.191.189l-.095.095V128.876c0 .189.095.284.19.379l.572.379c-.096-.095-.191-.19-.191-.379-.285-.19-.285-.285-.285-.474Z" fill="#262626"/><path d="M201.594 128.116c.285-.189.571 0 .571.379 0 .38-.286.853-.571 1.043-.286.189-.571 0-.571-.379s.285-.853.571-1.043Z" fill="#2B2B2B"/><path d="M202.45 133.141c0-.095.095-.189.095-.284.096-.095.096-.19.191-.284.095-.095.19-.095.19-.19.095-.095.191-.095.191-.095h.19l-.571-.379H202.45c-.095 0-.095.095-.19.19l-.095.094V133.141c0 .19.095.284.19.379l.571.379c-.095-.094-.19-.189-.19-.379-.286-.189-.286-.284-.286-.379Z" fill="#262626"/><path d="M203.021 132.382c.286-.189.571 0 .571.379s-.285.853-.571 1.043c-.285.189-.571 0-.571-.379s.286-.853.571-1.043Z" fill="#2B2B2B"/><path d="M207.209 130.395c0-.095.095-.19.095-.285.096-.095.096-.189.191-.284.095-.095.19-.095.19-.19.095 0 .19-.094.19-.094h.191l-.381-.19-.285-.095H207.114c-.095 0-.095.095-.19.19 0 0 0 .095-.096.095V130.489c0 .19.096.285.191.379l.285.19c-.095-.095-.19-.19-.19-.379 0-.095 0-.19.095-.284Z" fill="#262626"/><path d="M207.78 129.73c.286-.189.571 0 .571.379s-.285.853-.571 1.043c-.285.189-.571 0-.571-.379-.095-.474.191-.853.571-1.043Z" fill="#2B2B2B"/><path d="M208.638 124.518c0-.095.095-.189.095-.284.095-.095.095-.19.19-.285.096-.094.191-.094.191-.189.095 0 .19-.095.19-.095H209.59l-.191-.095-.38-.189H208.733c-.095 0-.095.095-.19.189l-.095.095v1.043c0 .189.095.284.19.379l.571.379c-.095-.095-.19-.19-.19-.379-.476-.379-.476-.474-.381-.569Z" fill="#262626"/><path d="M209.113 123.76c.285-.189.571 0 .571.379 0 .38-.286.853-.571 1.043-.286.19-.571 0-.571-.379s.285-.853.571-1.043Z" fill="#2B2B2B"/><path d="M205.211 122.432c-.095 0-.095 0 0 0h-.38c-.096 0-.096.095-.191.19l-.095.095V123.664c0 .19.095.285.19.379l.571.38c-.095-.095-.19-.19-.19-.38v-.284c0-.095.095-.189.095-.284.095-.095.095-.19.191-.284.095-.095.19-.095.19-.19-.19-.19-.095-.284 0-.284h.19l-.571-.285Z" fill="#262626"/><path d="M205.401 122.812c.285-.189.571 0 .571.379s-.286.853-.571 1.043c-.286.189-.571 0-.571-.379-.095-.379.19-.853.571-1.043Z" fill="#2B2B2B"/><path d="M203.878 128.402c.095-.285.19-.569.381-.853.19-.285.38-.569.571-.759.19-.189.476-.379.666-.568.095-.095.19-.095.285-.19h.096c.095 0 .19-.095.285-.095h.286c.095 0 .19.095.285.095l-.952-.568h-1.142c-.095 0-.19.094-.285.094-.191.095-.381.285-.571.474l-.095.095-.096.095-.19.189c0 .095-.095.095-.095.19.19.095.19.095.19.189 0 .095-.095.095-.095.19l-.095.095c0 .094-.095.095-.095.189 0 .095-.095.095-.095.19s0 .095-.096.189c0 .095 0 .095-.095.19v.189c0 .095 0 .095-.095.19v.663c0 .569.19.948.571 1.138l.952.568c-.286-.189-.476-.568-.571-1.137 0-.474 0-.758.095-1.042Z" fill="#262626"/><path d="M205.591 126.126c.952-.569 1.809-.095 1.809 1.042s-.762 2.559-1.809 3.128c-.952.568-1.808.094-1.808-1.043s.761-2.559 1.808-3.127Z" fill="#2B2B2B"/><path d="M195.978 143.187c-.095 0-.095 0 0 0-.285-.284-.476-.568-.571-.853 0-.094-.095-.094-.095-.189a2.838 2.838 0 0 1-.381-.758c0-.095-.095-.095-.095-.19-.095-.284-.285-.663-.381-.947v-.095l-.285-1.137v-.095c-.095-.379-.191-.853-.191-1.327s-.095-.948-.095-1.422c0-.473 0-1.042.095-1.516 0-.474.096-.948.191-1.516v-.095c.095-.474.19-1.043.285-1.516.096-.474.286-1.043.381-1.517v-.095c.19-.473.286-1.042.476-1.516v-.095c.19-.473.381-1.042.666-1.516.191-.474.476-1.042.666-1.516 0 0 0-.095.096-.095.095-.095.095-.19.19-.284.381-.759.857-1.517 1.332-2.275.096-.095.096-.189.191-.284 0 0 0-.095.095-.095.286-.474.571-.948.952-1.327.285-.474.666-.853 1.047-1.327l.095-.094c.381-.379.666-.853 1.047-1.232 0 0 0-.095.095-.095l1.142-1.137.095-.095c.381-.379.762-.664 1.143-.948l.095-.095c.38-.284.761-.663 1.237-.947.19-.285.666-.569 1.047-.758a8.742 8.742 0 0 1 1.332-.664h.096c.38-.189.761-.379 1.237-.474h.095l1.142-.284h.095c.381-.095.667-.095 1.047-.19h1.428c.286 0 .571.095.762.095.285 0 .475.095.666.19.095 0 .19.094.38.094.286.095.667.285.952.474l-6.281-3.601c-.286-.19-.667-.284-.952-.474-.095 0-.191-.095-.381-.095-.19-.094-.476-.094-.666-.189h-.095c-.191 0-.476-.095-.667-.095h-1.713c-.19 0-.381.095-.666.095h-.19c-.096 0-.191.095-.381.095-.191.094-.381.094-.571.189-.095 0-.095 0-.191.095h-.095c-.095 0-.19.095-.19.095-.19.094-.381.094-.571.189-.095.095-.286.095-.381.19h-.19l-.571.284-.571.284c-.096 0-.096.095-.191.095-.095.095-.19.095-.285.19-.191.095-.381.189-.476.284-.191.095-.286.19-.476.284-.19.095-.381.285-.476.379-.19.095-.381.285-.476.38-.095 0-.095.094-.19.094l-.095.095c-.096.095-.191.19-.286.19-.19.094-.381.284-.476.473-.095.095-.285.19-.381.38l-.095.094-.095.095-.476.474-.476.474-.19.189-.095.095-.191.19-.38.379-.381.379-.19.189v.095c0 .095-.096.095-.096.095-.095.095-.19.284-.285.379-.095.095-.19.284-.286.379-.095.095-.19.284-.285.379-.095.095-.19.284-.286.474-.095.19-.285.379-.38.569-.096.094-.191.189-.191.379 0 0 0 .095-.095.095 0 .094-.095.094-.095.189s-.095.095-.095.19c-.476.758-.952 1.516-1.333 2.274 0 .095-.095.095-.095.19 0 .094-.095.094-.095.189 0 0 0 .095-.095.095-.095.095-.095.284-.191.379l-.285.569c-.095.189-.191.284-.191.474-.095.189-.095.284-.19.473-.095.19-.095.285-.19.474-.095.19-.095.285-.191.474 0 0 0 .095-.095.095v.095c0 .094-.095.189-.095.284-.095.189-.095.379-.19.569-.096.189-.096.379-.191.568 0 .095 0 .095-.095.19v.095c0 .094-.095.189-.095.284-.095.189-.095.379-.19.568-.096.19-.096.38-.191.664 0 .189-.095.379-.095.663 0 .19-.095.474-.095.664v.663c0 .19-.095.474-.095.663 0 .19 0 .38-.095.569V134.279c0 .189 0 .379.095.569 0 .189.095.379.095.568v.19c0 .095 0 .189.095.379 0 .189.095.379.19.568 0 .095 0 .095.096.19v.095c0 .095.095.189.095.189.095.19.19.379.19.569 0 .095 0 .095.095.095 0 .094.095.094.095.189.096.095.096.19.191.285.095.189.19.284.285.473 0 .095.096.095.096.19v.095c.19.284.38.474.571.663v.095c.095.189.285.284.476.474l.285.284.857.569 6.091 3.506-.857-.568-.19-.19c-.19-.189-.381-.379-.476-.569Z" fill="#313132"/><path d="M193.694 136.269c0 8.15 5.806 11.372 12.944 7.297 7.138-4.075 12.849-14.026 12.849-22.176 0-8.151-5.806-11.373-12.944-7.298-7.043 4.17-12.849 14.026-12.849 22.177Zm12.944.853c-3.997 2.274-7.233.474-7.233-4.075s3.236-10.141 7.233-12.415c3.998-2.275 7.234-.474 7.234 4.075s-3.236 10.14-7.234 12.415Z" fill="#212122"/><path d="m199.785 115.421-.856.853c-.476.474-.857.948-1.333 1.517-.095.095-.19.189-.285.379l-.191-.095-16.275-9.477-34.359-19.997v-2.559l-.096-19.238v-.38l53.395 30.896v18.101Z" fill="#FDD506"/><path d="M213.491 89.643c.285-.095.476-.19.761-.285.191-.094.286-.094.476-.19.191 0 .286-.094.476-.094s.381-.095.571-.095h1.142c.286 0 .571.095.762.095h.19c.19 0 .381.095.571.19.095 0 .095 0 .191.094.285.095.475.19.761.38l-53.395-30.896-.571-.284h-.095c-.095 0-.095 0-.191-.095-.095 0-.19-.095-.285-.095-.095 0-.19-.095-.286-.095H164.284c-.191 0-.476-.094-.666-.094h-1.428c-.095 0-.19 0-.286.094h-.571c-.095 0-.19 0-.285.095-.095 0-.191.095-.286.095-.285.095-.476.19-.761.284-.095 0-.191.095-.286.095-.095 0-.095.095-.19.095a6.517 6.517 0 0 0-1.237.569l-11.898 6.918 53.395 30.895 11.898-6.918c.475-.19.951-.474 1.332-.663.19 0 .286-.095.476-.095Z" fill="#FFE24E"/><path d="m222.533 106.513-7.519 4.36c-2.665-1.611-6.282-1.422-10.375.948a23.569 23.569 0 0 0-4.663 3.601l-.095.095-.096-17.722v-.474l11.898-6.919c5.996-3.411 10.755-.663 10.85 6.16v9.951ZM197.692 117.79c-.096.095-.191.19-.286.379-.286.379-.666.759-.952 1.232-3.807 5.213-6.377 11.657-6.377 17.344 0 1.8.286 3.411.667 4.738l-33.884 19.902.095-19.618 12.849-7.581.476-.285 26.84-15.732.572-.379Z" fill="#FDD506"/><path d="m157.431 141.484-.095 19.617-21.415 12.415v-19.617l21.51-12.415Z" fill="#FDD506"/><path d="M135.921 153.897v19.618l-54.252-29.379.096-20.945 54.156 30.706Z" fill="#EAA61F"/><path d="M199.024 116.273c-.476.474-.857.948-1.333 1.516l-.38.285-26.841 15.732-.475.284-12.849 7.582.38-.095-21.51 12.415-54.252-30.706 35.216-20.376 11.802-6.823 9.233-5.497 8.185-4.738.286.19 36.834 21.133 15.704 9.098Z" fill="#FFE24E"/><path d="m170.375 134.375-53.395-30.99-.095-14.216 53.395 30.896.095 14.31Z" fill="#231F20"/><path d="m121.55 81.114 53.395 30.896 24.937-14.31-53.491-30.896-24.841 14.31Z" fill="#2B2B2B"/><path d="M170.47 118.832c.096-.379.096-.664.191-1.043v-.095c.095-.379.285-.758.381-1.137l.571-1.137c.19-.379.38-.663.666-1.043 0 0 0-.094.095-.094.19-.285.476-.569.666-.853l.191-.19.571-.568.285-.285c.286 0 .571-.189.857-.379l-53.395-30.895-.857.568-.285.285c-.095.095-.286.19-.381.379l-.19.19-.191.189-.19.19c-.095.189-.286.284-.381.473 0 .095-.095.095-.095.19 0 0 0 .095-.095.095 0 .094-.095.094-.095.19-.095.094-.191.284-.286.378-.095.095-.19.285-.285.38-.096.094-.096.189-.191.378-.095.095-.095.285-.19.38-.095.094-.095.284-.19.379-.096.094-.096.284-.191.379-.095.19-.095.284-.19.474 0 .094 0 .19-.095.19v.094c0 .095 0 .095-.095.19-.096.189-.096.378-.096.568 0 .095 0 .19-.095.284v.38c0 .284-.095.663-.095.947l53.395 30.895c0-.379 0-.663.095-1.042.095-.19.095-.284.19-.284Z" fill="#262626"/><path d="m199.881 97.698-12.85 27.01 9.423-5.402c.286-.38.571-.853.952-1.232.095-.095.19-.19.285-.38.476-.473.857-1.042 1.333-1.516l.857-.853.095-.095-.095-17.532Z" fill="#FDD506"/><path d="m199.786 97.79-16.561 9.477-2.379 1.327-5.901 3.412c-2.57 1.516-4.664 5.118-4.664 8.055l.095 13.742v.569l16.656-9.572 12.754-27.01Z" fill="#231F20"/><path d="M199.214 144.228v1.326l-22.462 12.984v-1.327l22.462-12.983Z" fill="#323133"/><path d="M176.752 157.214v1.327l-12.468-7.202v-1.327l12.468 7.202Z" fill="#232223"/><path d="m199.214 144.23-22.462 12.983-12.468-7.202 22.462-12.984 12.468 7.203Z" fill="#383739"/><path d="M184.176 83.672v5.686l-23.414 13.552v-5.686l23.414-13.552Z" fill="#212021"/><path d="M160.762 97.224v5.686l-23.604-13.552v-5.686l23.604 13.552Z" fill="#2B2B2C"/><path d="m184.176 83.67-23.414 13.553-23.604-13.553 23.414-13.552 23.604 13.552Z" fill="#3A393B"/><path d="m179.322 65.853 4.949-2.843-.095 20.945-4.949 2.843.095-20.945Z" fill="#212021"/><path d="M176.086 58.368c.285.38.571.758.857 1.042.285.474.571.853.761 1.233.285.473.476.852.666 1.326v.095c.191.284.381.758.476 1.137.095.285.19.569.19.948 0 .19.096.284.096.474.095.379.19.853.19 1.232l4.949-2.843c0-.474 0-.853-.095-1.327 0-.19-.095-.284-.095-.474-.095-.284-.095-.569-.19-.948v-.094c-.191-.19-.286-.38-.381-.664 0-.095-.095-.19-.191-.379v-.189c-.095-.19-.095-.285-.19-.474l-.285-.285c-.096-.094-.096-.19-.191-.284V57.8c-.095-.19-.19-.284-.19-.379-.095-.095-.19-.284-.286-.379-.095-.095-.19-.19-.19-.284l-.095-.095c0-.095-.095-.095-.095-.19a1.325 1.325 0 0 0-.286-.379 762.98 762.98 0 0 0-.571-.568c0-.095-.095-.19-.19-.285l-.286-.284c-.095-.095-.19-.19-.381-.284h-.19c0-.19-.095-.284-.19-.284-.191-.095-.381-.285-.571-.38-.096 0-.096-.094-.191-.094l-12.944-7.392c-.381-.285-.761-.474-1.142-.569-.095 0-.19-.095-.381-.095-.19-.095-.476-.095-.666-.095h-.857c-.095 0-.19.095-.285.095-.095 0-.191.095-.286.095-.095 0-.19.095-.19.095l-4.949 2.843.856-.284c.286-.095.571-.095.857 0 .19 0 .476.094.666.094.095 0 .19 0 .381.095.285.095.666.284 1.047.474l12.944 7.487c.381.19.666.379 1.047.663h.095c.286.38.571.664.952.948Z" fill="#222122"/><path d="M173.992 56.756c2.951 1.61 5.33 5.78 5.33 9.098l-.095 20.85-23.604-13.553.095-20.85c0-3.411 2.379-4.738 5.33-3.032l12.944 7.487Z" fill="#2B2B2C"/><path d="M111.079 22.45v2.56l49.969 29v-2.654L111.079 22.45Z" fill="#131111"/><path d="m86.428 90.972 1.999-1.327 49.397 29-1.523 1.706-49.873-29.379Z" fill="#1B1819"/><path d="M142.107 72.491V7.004l-1.998-1.232-.096 65.582 2.094 1.137Z" fill="#131111"/><path d="m145.534.465-36.263 20.944-.191.19-.095.095s-.095.094-.19.094l-.19.19-.096.095c0 .094-.095.19-.19.284l-.095.095-.19.19-.096.094-.285.284-.095.095-.381.38-.095.094c-.095.095-.191.284-.381.38l-.095.094-.095.095c-.191.284-.381.473-.667.758l-.095.095c-.285.284-.476.568-.761.947-.191.285-.381.569-.666.853l-.191.19c-.19.284-.476.568-.666.947l-.095.095c-.191.285-.381.474-.571.758-.095.095-.095.19-.191.285-.19.379-.476.663-.666 1.042-.19.38-.476.664-.666 1.043-.095.095-.095.19-.19.284-.191.284-.381.569-.476.853 0 .095-.096.19-.096.19l-.095.094c-.19.38-.38.758-.666 1.138 0 0 0 .094-.095.094-.19.38-.476.853-.666 1.232 0 0 0 .095-.096.095 0 .095-.095.19-.095.284-.19.285-.38.664-.57 1.043-.096.19-.191.284-.191.474-.19.379-.38.758-.571 1.232 0 .095-.095.095-.095.19-.286.473-.476 1.042-.762 1.61-.095.095-.095.285-.19.474-.19.38-.38.853-.571 1.232 0 .095-.095.19-.095.285-.096.19-.19.379-.19.568-.572 1.232-1.048 2.559-1.524 3.886-.475 1.137-.856 2.37-1.332 3.506l-.286.853c-.095.285-.19.569-.285.948-.19.663-.38 1.327-.666 1.99-.096.38-.19.758-.381 1.043-.38 1.232-.762 2.464-1.142 3.79v.095c-.381 1.517-.857 3.033-1.238 4.55 0 .189-.095.378-.095.568-.285 1.327-.666 2.748-.952 4.17v.19a316.915 316.915 0 0 0-.856 4.17c-.095.378-.095.757-.19 1.137-.19 1.137-.381 2.18-.572 3.317-.095.568-.19 1.042-.285 1.61-.19 1.043-.286 1.99-.476 3.033-.095.569-.19 1.138-.19 1.706 0 .285-.096.664-.096.948l-.285 2.275c-.095.473-.095 1.042-.19 1.516-.19 1.61-.381 3.222-.476 4.833-.19 1.611-.286 3.317-.381 5.023 0 .569-.095 1.137-.095 1.611-.095 1.137-.19 2.369-.19 3.507 0 .663-.096 1.326-.096 1.895-.095 1.137-.095 2.275-.19 3.412 0 .663-.095 1.327-.095 1.99 0 1.232-.096 2.464-.096 3.696v8.34l2 1.137v-8.34c0-1.232.094-2.464.094-3.696 0-.663 0-1.327.096-1.99 0-1.137.095-2.274.19-3.412 0-.663.095-1.326.095-1.895.095-1.232.095-2.369.19-3.507 0-.568.096-1.137.096-1.61.095-1.707.285-3.412.38-5.024.19-1.61.286-3.317.476-4.928.095-.474.095-1.042.19-1.516.096-1.137.286-2.18.381-3.317.096-.569.19-1.137.19-1.706.191-1.042.286-2.085.477-3.033.095-.568.19-1.042.285-1.61.19-1.138.38-2.275.571-3.318.095-.379.095-.758.19-1.137.286-1.421.572-2.938.857-4.36.286-1.421.666-2.748.952-4.075.095-.19.095-.379.095-.568.38-1.516.761-3.033 1.237-4.55.381-1.326.762-2.653 1.143-3.885.095-.379.19-.758.38-1.042.286-.948.571-1.896.952-2.843.095-.285.19-.57.286-.853.38-1.232.856-2.37 1.332-3.507.476-1.327 1.047-2.559 1.523-3.886.095-.284.286-.568.38-.852.191-.474.381-.853.572-1.233.095-.094.19-.189.285-.379.286-.568.476-1.042.762-1.61 0-.096.095-.19.095-.285.19-.38.381-.853.571-1.232.095-.19.19-.284.19-.474.191-.379.381-.663.476-1.042.095-.095.095-.285.191-.38.19-.473.475-.852.666-1.231v-.095c.19-.38.476-.758.666-1.137.095-.095.095-.19.19-.38.191-.284.381-.568.476-.852.095-.095.095-.19.191-.285.19-.379.476-.758.666-1.042.19-.38.476-.664.666-1.043.095-.095.095-.19.19-.284.191-.284.381-.569.572-.758 0-.095.095-.095.095-.19.19-.284.476-.663.666-.948l.19-.19c.191-.283.381-.568.667-.852.285-.38.475-.663.761-.948l.095-.095c.191-.284.476-.568.666-.758l.096-.094c.095-.19.285-.285.38-.38v-.094c.095-.19.286-.285.381-.38l.095-.094.286-.284.095-.095.19-.19.095-.095.286-.284.095-.095c.095-.094.191-.094.191-.19.095-.094.095-.094.19-.094l.095-.095.19-.19 36.358-20.849-1.998-1.137Z" fill="#1C191A"/><path d="M99.182 44.44c5.711-13.458 11.517-18.955 12.278-19.618l30.647-17.817v65.487l5.425-3.033V1.603L111.27 22.547l-.191.19c-.285.19-6.948 5.78-13.42 21.039-8.566 20.091-12.944 46.532-12.849 78.849v1.138l1.999-1.138v-2.274c0-38.761 6.757-62.644 12.373-75.912Z" fill="#1B1819"/><path d="M123.548 73.72c0 .096-.857 4.645-2.189 4.929-1.333.284-3.046-1.517-3.046-1.706-.095-.284 5.235-3.317 5.235-3.222ZM150.388 87.37c.095 2.653-3.427 3.506-4.093 5.875-.095.569-.381 1.422-.19 1.99.285.759.856.948 1.427.569 0 0-.285.758.381.948.381.095.762-.19.857-.474 0 0-.095.474.095.758.285.38.857.474 1.237 0 .191.948 1.142.758 1.523.095.381-.758-.095-1.706.381-2.37.476-.947 1.047-.663 1.237-1.705.095-.853 0-1.801 0-2.654.095 0 .19-.095.19-.095-.095.19-.095.474-.19.569l-2.855-3.507Z" fill="#FED8A7"/><path d="M146.486 49.46c-2.856 5.782-7.71 15.543-11.041 15.164-.857-.095-2.665-3.696-1.713-5.591 2.284-4.265 4.378-10.046 6.091-13.647 2.855-5.781 4.759-6.16 6.758-5.118 2.094.948 2.76 3.412-.095 9.193Z" fill="#13659C"/><path d="M136.492 112.2c.666.19 1.047 1.043 1.332 1.611.381.758.571 1.706-.285 2.749-.857 1.042-2.665 1.042-3.331 1.706-.667.663-3.332 2.274-5.33 3.317-1.047.568-3.236.568-3.903-.285-.476-.663-.285-2.369.095-2.748 1.428-1.232 1.809-1.896 2.665-2.938.857-.853.667-.663 1.428-1.516.286-.379 1.333-2.275 1.999-1.801l5.33-.095Z" fill="#1E160D"/><path d="M154.766 86.8c-3.046.948-5.711 2.749-8.661 3.98-3.522 1.422-7.043 4.17-10.946 4.36-1.142.095-3.521-.569-4.378-2.559-.571-1.137-1.523-3.601-.666-3.79.856-.285 1.903-1.612 2.57-1.99 1.332-.664 9.042-4.929 11.516-6.35 1.904-1.138 3.236-1.801 5.425-3.033 0 0 3.903-2.749 5.901 2.464 2.094 5.212-.285 6.729-.761 6.918Z" fill="#0E598C"/><path d="M164.474 92.203c-3.046.947-5.711 2.748-8.661 3.98-3.522 1.422-7.043 4.17-10.946 4.36-1.142.094-3.521-.57-4.378-2.56-.476-1.136-1.427-3.6-.666-3.79.761-.284 1.808-1.611 2.57-1.99 1.332-.664 9.042-4.928 11.421-6.35 1.999-1.137 3.236-1.8 5.521-3.033 0 0 8.09-4.36 10.088.853 1.999 5.213-4.473 8.435-4.949 8.53Z" fill="#13659C"/><path d="M138.871 92.11c-.38-1.99-.095-3.602-.095-5.877 0-1.705-8.852.095-9.042 4.17 0 0 1.618 15.732.476 20.66l-.19.853s-.286.759.285 1.327c0 0 .857.758 1.999.948 1.523.379 3.617.189 4.664-.948 2.76-2.843 2.95-14.31 1.903-21.134Z" fill="#0E598C"/><path d="M148.484 118.832c.667.095 1.047 1.042 1.333 1.611.381.758.666 1.801-.286 2.748-.38.379-2.665 1.043-3.331 1.706-.666.664-3.617 2.654-4.473 3.128-.762.379-1.523.853-2.285.947-1.047.095-2.379-.094-3.141-1.042-.475-.664-.571-1.327-.095-1.706 1.523-1.232 2.189-2.559 3.046-3.507.857-.853 1.142-1.042 1.904-1.99.285-.379 1.332-2.274 1.998-1.8l5.33-.095Z" fill="#1E160D"/><path d="M148.484 98.743c-.476-1.99-.38-3.6-.571-5.875-.19-1.611-9.137-.853-8.947 3.222 0 0 3.237 17.153 2.475 22.176l-.095.853s-.19.758.476 1.232c.095 0 .952.664 2.094.853 1.618.284 3.617-.095 4.568-1.327 2.38-3.032 1.618-14.405 0-21.134Z" fill="#13659C"/><path d="M155.052 42.542c.476.095 5.901 2.843 8.375 5.592 1.809 1.99 1.999 6.634 1.999 7.297-.095 1.99 3.712 18.765 3.712 20.566 0 1.705.571 6.823.381 7.676-.571 2.748-7.805 2.18-9.137 2.085-4.474-.19-10.089-3.601-9.613-5.781 1.332-6.16-6.282-20.281-6.853-22.46-.571-2.18-4.949-13.553-1.523-16.586.952-.853 2.76-1.327 3.807-1.232 3.807.095 8.281 2.749 8.852 2.843Z" fill="#1976B3"/><path d="M152.291 40.648c-.095.094-4.092-.095-6.567 2.653-2.474 2.749-1.808 2.37-1.808 2.37l1.713-.569s1.047 3.886 1.904 4.833l6.376-1.327.572 3.128s5.33-5.781 4.568-7.297c-1.713-3.602-5.901-4.928-6.758-3.791Z" fill="#228FD8"/><path d="M150.198 41.501s-2.57 1.896-2.665 2.559c-.096.569 0 5.876 0 5.876 0-.285 3.616-.569 7.043-3.033.38-.284 4.092-3.032 0-4.833l-4.378-.569Z" fill="#FCCB95"/><path d="M154.481 46.903c-1.523.095-3.236 0-4.379-.474-1.427-.474-2.189-1.516-2.569-2.37-1.143 3.128 0 5.877 0 5.877.571 0 3.616-.569 6.948-3.033Z" fill="#FCCB95"/><path d="M155.623 36.004c0 1.8-.286 2.654-.096 4.833.096.664.381 1.517.381 2.464 0 1.611-1.808 2.275-2.665 2.749-.856.379-4.188-.664-3.997-1.896.19-.948 0-2.274.285-3.222.381-.853 1.333-1.422 1.333-2.464l4.759-2.464Z" fill="#FCCB95"/><path d="M146.2 29.273c0 .948-.381 1.896-.666 2.843-.191.664-.191.853 0 1.422.38.948.285 1.706 0 2.653-.286 1.043 0 2.275.38 3.317.286.853.381 1.896 1.143 2.37 1.903 1.327 4.092 0 5.996-.664 1.903-.663 1.618-3.411 2.284-4.928 1.142-2.843.381-6.823-2.76-8.15-1.428-.569-3.807-.853-5.235-.38-.476.19-1.523 1.328-1.047 1.896l-.095-.379Z" fill="#FED8A7"/><path d="M156.765 25.01c-1.809-1.612-5.521-1.138-8.566.284-1.523.663-1.904 2.748-1.904 2.748-.381.568 1.237 1.8 1.713 2.085.857.379 1.809.568 2.761.663h1.808c.381 0 .952-.19 1.332-.19.952.095.952 1.327 1.047 1.99.096.57.286 1.138.381 1.707 0 .284-.476 3.601 0 3.696.571.095 3.141-2.843 3.331-4.55.096-1.136 1.428-5.401-1.903-8.434Z" fill="url(#a)"/><path d="M156.86 36.004c-.381 1.043-1.142 1.706-1.618 1.517-.476-.19-.952-1.233-.571-2.275.476-.948 1.618-1.611 2.094-1.422.476.095.476 1.138.095 2.18Z" fill="#FED8A7"/><path d="M165.14 57.232c-.761 6.35-2.569 19.522-4.854 19.238-.856-.095-3.521-5.686-3.141-7.771.667-4.739-.19-9.193.286-13.268.761-6.35 2.475-7.297 4.759-7.013 2.284.284 3.712 2.464 2.95 8.814Z" fill="#228FD8"/><path d="M146.39 27.284s.952-2.938 2.665-3.601c2.189-.948 5.33-1.327 6.377-.853 1.333.663 2.665 1.516 3.236 3.127.762 2.37.381 3.98.381 3.98s0 .19-.095.285c-.762.663-3.712 2.843-5.901 2.275a41.551 41.551 0 0 0-3.141-.569l-3.522-4.644Z" fill="#FFB200"/><path d="M146.486 27.283s.38-.569 2.95.853c1.713.853 4.569 3.98 3.998 4.644-1.047 1.137-3.808 1.232-5.33.568-1.809-.758-2.57-3.885-5.426-3.506-2.094.284 1.809-2.18 3.712-2.559h.096Z" fill="#FFBF29"/><path d="M137.729 92.96s-.095 0 0 0c-.381-.094-.666-.094-1.047-.283-.476-.095-.857-.285-1.332-.474-.476-.19-.952-.474-1.428-.758a25.562 25.562 0 0 1-2.094-1.327c-.761-.569-1.523-1.137-2.189-1.706l-1.999-1.706c-.666-.663-1.237-1.232-1.808-1.895l-1.428 1.516.095.095.095.094.096.095.095.095.095.095.095.094.095.095.096.095.095.095.095.095.095.094.095.095.095.095.096.095.19.19.19.189c.286.284.571.474.857.758l.19.19.286.284.095.095.095.094.095.095.096.095.095.095.095.094.095.095.095.095.095.095.096.095.095.094.095.095.095.095.095.095.095.094.096.095.095.095.095.095c.095 0 .095.094.19.094.096 0 .096.095.191.095s.095.095.19.095c.381.095.381.19.476.19.095 0 .095.094.19.094l.191.19c.095.095.19.19.285.19.095.094.191.094.286.189.095.095.19.19.285.19.095.094.191.189.381.189l.286.284c.095 0 .285.095.38.19.095.095.286.095.381.19.095.094.19.094.285.189.096.095.286.095.381.19.095 0 .191.094.286.094h.095c.095 0 .19.095.19.095.191.095.286.19.381.19.095 0 .19.094.286.094.095 0 .19.095.285.095.286.19.381.19.476.19.095 0 .19.094.381.094.095 0 .285.095.38.095h1.047l1.142-1.516h-.761Z" fill="#646162"/><path d="M122.976 81.21c-.285-.473-.475-.852-.666-1.232-.19-.379-.285-.663-.38-.947-.096-.285-.191-.569-.191-.853V77.514c.095-.19.095-.379.286-.474l-1.428 1.517c-.095.095-.19.284-.19.379v.948c0 .094 0 .19.095.284 0 .095 0 .19.095.284 0 .095 0 .095.095.19 0 .095.095.19.095.284 0 .095.096.19.096.284 0 .095.095.095.095.19v.095c0 .094.095.19.095.284.095.095.095.19.19.284.095.095.095.19.191.285.095.094.095.19.19.284.095.095.095.19.19.284.096.095.191.19.191.38.095.094.19.189.285.378.095.095.191.19.286.38l1.427-1.517c-.475-.474-.761-.948-1.047-1.327Z" fill="#211D1E"/><path d="m128.878 83.012-1.428 1.516-4.949-.474 1.427-1.516 4.95.474ZM139.442 92.487l-1.332 1.516-8.281-8.055 1.428-1.517 8.185 8.056Z" fill="#211D1E"/><path d="m131.257 84.43-1.428 1.517-2.094-5.307 1.333-1.517 2.189 5.307Z" fill="#191617"/><path d="M142.203 93.72v-.853c0-.095 0-.284-.096-.38 0-.094-.095-.189-.095-.378v-.095c0-.095-.095-.19-.095-.284 0-.095-.095-.285-.095-.38-.191.095-.191 0-.286-.189 0-.095-.095-.19-.095-.284 0 0 0-.095-.095-.095 0-.095-.095-.19-.19-.284-.096-.095-.096-.285-.191-.38-.095-.094-.19-.284-.19-.379-.095-.19-.191-.284-.286-.473 0-.095-.095-.095-.095-.19s-.095-.095-.095-.19c-.095-.094-.19-.284-.286-.379-.095-.094-.19-.284-.285-.379-.19-.19-.286-.379-.381-.474-.095-.094-.19-.284-.285-.379l-.096-.094c-.095-.095-.095-.19-.19-.19 0-.19-.095-.284-.19-.379l-.286-.284c-.095-.095-.095-.19-.19-.19-.095-.095-.095-.19-.191-.19 0-.189-.095-.189-.19-.284l-.19-.19c0-.094-.095-.094-.095-.189s-.096-.095-.191-.19c0-.094-.095-.094-.095-.189l-.095-.095c0-.094-.095-.094-.095-.19l-.095-.094-.096-.095-.095-.094-.095-.095-.095-.095-.095-.095-.096-.095-.095-.094-.095-.095-.095-.095-.095-.095-.095-.094-.096-.095c-.475-.474-.571-.569-.666-.569-.095-.095-.095-.19-.19-.284-.095-.095-.191-.095-.191-.19-.38-.284-.666-.663-1.047-.947-.095-.095-.19-.19-.285-.19l-.286-.284c-.095-.095-.19-.095-.285-.19-.095 0-.095-.095-.19-.095-.096 0-.096-.094-.191-.094s-.095-.095-.19-.095-.095-.095-.191-.095c-.095 0-.095-.095-.19-.095s-.095-.094-.19-.094l-.095-.095-.096-.095-.095-.095-.095-.094-.095-.095-.095-.095c-.096 0-.096-.095-.191-.095s-.095-.095-.19-.095-.095-.094-.19-.094c-.096 0-.096-.095-.191-.095s-.095-.095-.19-.095-.095-.095-.19-.095c-.096-.094-.191-.094-.191-.19-.095-.094-.19-.094-.19-.189.095-.379 0-.474 0-.568-.095 0-.191-.095-.286-.095-.095-.095-.19-.19-.285-.19l-.095-.094c-.096 0-.096-.095-.191-.095-.095-.19-.285-.19-.381-.285-.095-.094-.285-.19-.38-.284-.095-.095-.286-.19-.381-.284-.19-.095-.285-.19-.476-.284-.19-.095-.285-.19-.476-.285-.19-.095-.285-.19-.476-.284-.19-.095-.285-.19-.475-.285-.096-.094-.286-.189-.381-.189-.191-.095-.286-.095-.381-.19-.19-.094-.285-.094-.381-.19-.095 0-.19-.094-.285-.094h-.191c-.095-.095-.285-.095-.38-.19-.095-.094-.286-.094-.381-.189h-.19c-.095 0-.191-.095-.191-.095-.19 0-.285-.094-.476-.094h-.38c-.191 0-.381-.095-.571-.095H120.787c-.19 0-.285.094-.475.094-.096 0-.096 0-.191.095-.19.095-.381.19-.476.38l-1.427 1.42c.095-.094.285-.283.475-.378.096 0 .096 0 .191-.095.095 0 .285-.095.476-.095h.571c.19 0 .476 0 .761.095h.095c.286.095.571.095.857.19h.095c.286.284.666.379.952.474l1.142.568c.381.19.857.474 1.237.663.762.38 1.523.853 2.19 1.422 1.713 1.137 3.236 2.275 4.663 3.507.762.663 1.428 1.326 2.094 1.99 1.333 1.327 2.57 2.653 3.617 3.98a74.29 74.29 0 0 1 1.332 1.896c.476.758.762 1.421 1.047 1.99.286.379.381.853.571 1.232.096.379.191.758.191 1.042v.095c0 .284 0 .569-.095.758v.095c-.096.19-.191.474-.286.569l1.428-1.517.285-.568v-.19s.096-.095.096-.284Z" fill="#231F20"/><path d="M140.013 92.49c-2.284-4.74-8.946-11.278-14.847-14.69-5.901-3.412-8.947-2.37-6.663 2.37 2.284 4.738 8.947 11.277 14.848 14.689 5.996 3.317 8.947 2.274 6.662-2.37Zm-12.278-11.847c4.188 2.843 8.471 7.203 9.994 10.52.666 1.326.762 2.369.381 2.843l-8.281-8.056-2.094-5.307Zm1.618 6.16 7.805 7.677c-.952.094-2.57-.38-4.664-1.517-2.76-1.61-5.806-4.075-8.09-6.634l4.949.474Zm-8.47-5.402c-1.714-3.506.38-4.36 4.473-2.274l2.094 5.402-4.949-.569c-.667-.853-1.238-1.706-1.618-2.559Z" fill="#121010"/><path d="M131.733 89.17V88.412s0-.095-.095-.095c0 0 0-.094-.095-.094 0 0 0-.095-.096-.095 0 0 0-.095-.095-.095v-.189l-.095-.095-.095-.095-.095-.095-.096-.094v-.095s0-.095-.095-.095c0 0 0-.095-.095-.095l-.095-.095-.095-.094-.095-.095V86.8l-.096-.095-.095-.094-.095-.095-.285-.284-.096-.095h-.095l-.095-.095h-.571s-.095 0-.095-.095h-.095s-.096 0-.096-.095l-.095-.094s-.095 0-.095-.095l-.095-.095-.095-.095s-.096 0-.096-.094c0 0-.095 0-.095-.095 0 0-.095 0-.095-.095 0 0-.095 0-.095-.095 0 0-.095 0-.095-.094h-.952c-.095 0-.19.094-.286.094l-14.847 16.206c.095-.095.19-.095.285-.095h.381c.19 0 .381.095.571.19.19.095.381.189.666.379.191.095.381.284.571.379.191.095.381.284.571.474.191.189.381.284.571.474l.572.568c.38.379.666.759.951 1.043.095.189.286.379.381.474.095.189.19.379.286.474.095.094.095.189.095.379 0 .094.095.189.095.284v.19c0 .094-.095.094-.095.189l13.896-17.248s.095-.095.095-.19v-.095c0 .095 0 0 0 0Z" fill="#191617"/><path d="M114.886 105.281c-1.618-.948-3.426-2.654-3.997-3.981-.571-1.232.19-1.516 1.808-.663 1.618.947 3.332 2.653 3.998 3.98.666 1.232-.191 1.516-1.809.664Z" fill="#121010"/><path d="m114.03 109.076 7.614-4.359v9.856l-7.614 4.359v-9.856Z" fill="#1B1819"/><path d="m98.135 99.976 7.614-4.454 15.895 9.193-7.614 4.359-15.895-9.098Z" fill="#1E1B1C"/><path d="M114.03 109.076v9.856l-15.99-9.098.095-9.856 15.895 9.098Z" fill="#131111"/><path d="M138.015 63.583c-3.617 4.644-11.517 12.036-13.04 10.804-.571-.474-2.76-1.8-1.808-3.412 1.428-2.558 7.995-7.581 10.85-12.51.666-1.137 2.475-1.895 4.093-.663 1.523 1.232 2.474 2.559-.095 5.781Z" fill="#13659C"/><path d="M124.214 71.732c-1.237-.38-1.809 1.042-2.38 1.232-1.142.474-1.998.379-2.855 1.327-.381.379-.857 1.327-.857 1.327a7.99 7.99 0 0 0-.475 1.61c0 .285-.191.759-.096 1.043.096.38.571.569.857.569.095 0 .286-.19.381-.19.095.284.095.758.951.853.667-.474.476.19.857.38.381.189.571-.38.857-.285.38.095.761.758 1.142.474.476-.285.19-.853.19-1.517.191-.947.952-1.8 1.713-2.274.667-.38.762-.38 1.047-1.137.096-.285.571-1.422.286-2.18-.381-.758-1.618-1.232-1.618-1.232Z" fill="#FED8A7"/><path d="M158.859 78.368c-4.664 3.601-14.658 9.382-15.895 7.771-.476-.569-2.094-2.464-.857-3.79 1.999-2.18 9.518-6.919 14.182-10.71 1.047-.948 4.854-4.17 6.091-2.559 1.142 1.706-.285 6.73-3.521 9.288Z" fill="#228FD8"/><path d="M142.393 82.16c-1.618.38-4.854.948-5.996 1.99-.952.664-1.333 1.138-1.143 1.517.191.474.476.379.572.663.095.284-.096.569.095.948.285.474.666.284.761.663.286.569-.285 1.043.762 1.327 0 0 .475.095.475.19.096.094 0 .568.191.663.571.474 1.713-.38 1.808-.853.286-.19 1.904-.569 2.951-1.422 1.047-.853 1.427-2.18 1.618-2.938.476-1.99-1.713-2.843-2.094-2.748Z" fill="#FED8A7"/><path d="M147.057 1.792V3.31l-2.189 1.232V3.024l2.189-1.232Z" fill="#1B1819"/><path d="M151.34 4.162v1.516l-4.283-2.37V1.793l4.283 2.37ZM149.151 5.487l-.096 1.517-4.187-2.464V3.023l4.283 2.464ZM152.672 7.574v1.422l-3.617-1.99.096-1.517 3.521 2.085ZM156.955 9.942v1.516l-4.283-2.464V7.572l4.283 2.37ZM160.477 12.027v1.516l-3.522-2.085V9.942l3.522 2.085ZM164.76 14.493v1.421l-4.283-2.37V12.03l4.283 2.464ZM168.281 16.48v1.517l-3.521-2.085v-1.421l3.521 1.99ZM174.753 17.712v1.422l-2.189-1.137.095-1.517 2.094 1.232ZM172.564 18.945v1.516l-4.283-2.464V16.48l4.283 2.465ZM176.086 21.032v1.516l-3.522-2.085v-1.516l3.522 2.085ZM180.369 23.399v1.516l-4.283-2.37V21.03l4.283 2.37Z" fill="#131111"/><path d="m112.983 21.505 34.074-19.713-2.19 1.233 4.284 2.464-31.98 18.48-4.188-2.464Z" fill="#1E1B1C"/><path d="m149.151 5.49-.096 1.516-31.884 18.385V23.97l31.98-18.48Z" fill="#1B1819"/><path d="M117.171 23.97v1.421l-4.188-2.37v-1.516l4.188 2.464ZM183.891 25.484V27l-3.522-2.085v-1.516l3.522 2.085ZM188.174 27.95v1.515l-4.283-2.464v-1.516l4.283 2.464ZM124.975 28.422v1.516l-4.188-2.464v-1.517l4.188 2.465Z" fill="#131111"/><path d="M156.955 9.942v1.516l-31.98 18.48v-1.516l31.98-18.48Z" fill="#1B1819"/><path d="m152.672 7.572 4.283 2.37-31.98 18.48-4.188-2.464 31.885-18.386Z" fill="#1E1B1C"/><path d="M191.695 30.032v1.422l-3.522-1.99v-1.516l3.522 2.084Z" fill="#131111"/><path d="M172.564 18.947v1.516l-31.98 18.48v-1.516l31.98-18.48Z" fill="#1B1819"/><path d="m147.057 1.792 4.283 2.37 21.319 12.32 2.094 1.232 23.414 13.458-2.189 1.232-4.283-2.37-3.521-2.085-4.283-2.464-3.522-2.085-4.283-2.369-3.522-2.085-4.283-2.464-3.521-1.99-4.283-2.464-3.522-2.085-4.283-2.37-3.522-2.084-4.283-2.464 2.19-1.233Z" fill="#1E1B1C"/><path d="M195.978 32.404v1.516l-4.283-2.464v-1.422l4.283 2.37Z" fill="#131111"/><path d="M198.167 31.172v1.516l-2.189 1.232v-1.516l2.189-1.232Z" fill="#1B1819"/><path d="M132.78 32.876v1.516l-4.188-2.37v-1.516l4.188 2.37Z" fill="#131111"/><path d="m164.76 14.49-.095 1.422-31.885 18.48v-1.516l31.98-18.385Z" fill="#1B1819"/><path d="m160.477 12.029 4.283 2.464-31.98 18.385-4.188-2.37 31.885-18.48Z" fill="#1E1B1C"/><path d="M129.449 33.541v1.516l-18.655-10.804v-1.516l18.655 10.804ZM130.591 34.205v1.422l-1.142-.57v-1.516l1.142.664Z" fill="#131111"/><path d="M130.591 34.205v1.516l-1.142-.663V33.54l1.142.664Z" fill="#131111"/><path d="m130.591 34.205-1.142-.663 1.142.663Z" fill="#1E1B1C"/><path d="M134.208 36.288v1.422l-3.617-2.085v-1.422l3.617 2.085ZM140.584 37.426v1.517l-4.187-2.464v-1.517l4.187 2.464Z" fill="#131111"/><path d="m136.397 34.96 31.884-18.48 4.283 2.465-31.98 18.48-4.187-2.464Z" fill="#1E1B1C"/><path d="M136.301 37.428v1.516l-2.094-1.232V36.29l2.094 1.138Z" fill="#131111"/><path d="M136.301 37.428v1.516l-2.094-1.232V36.29l2.094 1.138ZM148.389 41.88v1.517l-4.188-2.464V39.51l4.188 2.37Z" fill="#131111"/><path d="M180.369 23.399v1.516l-31.98 18.48V41.88l31.98-18.48Z" fill="#1B1819"/><path d="m176.086 21.03 4.283 2.369-31.98 18.48-4.188-2.37 31.885-18.48ZM183.891 25.485l4.283 2.464-31.98 18.48-4.188-2.464 31.885-18.48Z" fill="#1E1B1C"/><path d="M188.174 27.948v1.516l-31.98 18.385v-1.421l31.98-18.48Z" fill="#1B1819"/><path d="M156.194 46.431v1.422l-4.188-2.37v-1.516l4.188 2.464ZM157.621 49.745v1.421l-21.32-12.225v-1.516l21.32 12.32ZM163.998 50.883v1.516l-4.188-2.464V48.42l4.188 2.464Z" fill="#131111"/><path d="M163.998 50.885v1.517l-2.189 1.232v-1.517l2.189-1.232Z" fill="#1B1819"/><path d="m112.983 21.505 4.188 2.464 3.616 1.99 4.188 2.465 3.617 2.085 4.188 2.369 3.617 2.085 4.187 2.464 3.617 2.085 4.188 2.37 3.617 2.084 4.188 2.464 3.616 1.99 4.188 2.464-2.189 1.232-4.188-2.369-21.32-12.32-2.093-1.137-3.617-2.085-1.142-.664-18.655-10.804 2.189-1.232Z" fill="#1E1B1C"/><path d="m198.167 31.172-36.358 20.944-4.188-2.37 4.188 2.37 2.189-1.232-4.188-2.464 31.885-18.386 4.283 2.37 2.189-1.232Z" fill="#1E1B1C"/><path d="M161.809 52.116v1.516l-4.188-2.464v-1.421l4.188 2.37Z" fill="#131111"/><path d="M161.809 52.116v1.516l-4.188-2.369v-1.516l4.188 2.37Z" fill="#131111"/><path d="M198.167 31.172v1.516l-36.358 20.945v-1.517l36.358-20.944Z" fill="#1B1819"/><path d="m193.123 102.249.095-65.487-1.999-1.138-.095 65.487 1.999 1.138Z" fill="#131111"/><path d="m196.644 30.224-36.262 20.944-.191.19-.095.095s-.095.094-.19.094c-.096.095-.096.19-.191.19l-.095.095-.285.284-.096.095-.19.19-.095.094c-.095.095-.095.19-.19.284l-.096.095-.38.38-.096.094c-.095.095-.19.284-.38.38l-.095.094-.096.095c-.19.284-.38.474-.666.758l-.095.095c-.286.284-.476.568-.761.947-.191.285-.381.569-.667.853l-.19.19c0 .284-.19.568-.476.853l-.095.095c-.19.284-.381.473-.571.758 0 .19-.095.284-.191.379-.19.379-.38.663-.666 1.042-.19.38-.476.758-.666 1.043-.095.19-.095.284-.19.379-.191.284-.381.568-.476.853 0 .095-.095.095-.095.19l-.096.094c-.19.38-.38.758-.666 1.137 0 0 0 .095-.095.095-.19.38-.476.853-.666 1.232 0 0 0 .095-.096.095 0 .095-.095.19-.095.284-.19.284-.38.664-.571 1.043-.095.19-.095.379-.19.474-.19.379-.381.758-.571 1.231 0 .095-.095.095-.095.19-.286.474-.476 1.043-.762 1.611-.095.095-.095.285-.19.474-.286.38-.476.853-.666 1.232 0 .095-.096.19-.096.284-.095.19-.19.38-.19.569a47.588 47.588 0 0 0-1.618 3.886c-.476 1.137-.857 2.369-1.332 3.506l-.286.853c-.095.284-.19.569-.286.948-.19.663-.38 1.327-.666 1.99-.095.284-.19.663-.285 1.043-.381 1.231-.762 2.463-1.142 3.79v.095c-.476 1.516-.857 3.033-1.238 4.55 0 .189-.095.378-.095.568-.285 1.326-.666 2.748-.952 4.17v.19a318.772 318.772 0 0 0-.856 4.169c-.095.379-.095.758-.191 1.137-.19 1.138-.38 2.18-.571 3.317-.095.569-.19 1.043-.285 1.611-.191 1.043-.286 1.991-.476 3.033-.095.569-.191 1.137-.191 1.706 0 .284-.095.663-.095.948l-.285 2.274c-.095.474-.095 1.043-.191 1.517-.19 1.611-.38 3.222-.475 4.833v.095c-.191 1.611-.286 3.317-.381 5.023 0 .568-.095 1.137-.095 1.611-.096 1.137-.191 2.369-.191 3.506 0 .664-.095 1.327-.095 1.896-.095 1.137-.095 2.274-.19 3.411 0 .664-.095 1.327-.095 1.991 0 1.232-.096 2.464-.096 3.696v8.339l1.809 1.422v-8.34c0-1.232.095-2.464.095-3.696 0-.663 0-1.327.095-1.99 0-1.137.095-2.275.19-3.412 0-.663.096-1.327.096-1.895.095-1.232.095-2.37.19-3.507 0-.568.095-1.137.095-1.611.191-1.895.286-3.601.476-5.212.19-1.611.286-3.317.476-4.928.095-.474.095-1.043.19-1.517.096-1.137.286-2.179.381-3.317.095-.568.19-1.137.19-1.706.191-1.042.286-2.085.476-3.032.095-.569.191-1.043.286-1.611.19-1.138.381-2.18.571-3.317.095-.379.095-.759.19-1.138.286-1.421.571-2.938.857-4.36.285-1.42.571-2.748.952-4.074.095-.19.19-.38.19-.569.381-1.611.761-3.127 1.237-4.644.381-1.326.762-2.558 1.142-3.885.096-.38.191-.664.286-1.043.286-.948.571-1.895.952-2.843.095-.379.19-.663.38-.948.381-1.137.762-2.369 1.238-3.506a47.588 47.588 0 0 1 1.618-3.886l.285-.853c.191-.379.381-.853.571-1.232.096-.19.191-.284.286-.474.19-.473.476-1.042.666-1.516 0-.095.095-.19.095-.284.286-.38.476-.853.667-1.232.095-.095.19-.284.19-.38.19-.378.381-.663.571-1.042.095-.095.095-.284.19-.379.191-.474.476-.853.667-1.232v-.095c.285-.379.476-.758.761-1.137 0-.095.095-.284.19-.379.191-.284.286-.569.476-.853.096-.095.096-.19.191-.284.285-.38.476-.758.666-1.137.285-.285.476-.664.666-.948.095-.095.191-.19.191-.285l.571-.852c0-.095.095-.095.095-.19.19-.284.476-.663.666-.948.095 0 .095-.094.19-.19.191-.284.381-.473.571-.758.381-.379.572-.663.857-.947l.095-.095c.191-.284.381-.569.571-.758l.095-.095c.191-.19.286-.379.381-.474v-.094c.191-.095.286-.285.476-.38l.095-.094c.095-.095.095-.19.191-.285l.095-.094c.095-.095.19-.095.285-.19l.096-.095c.095-.095.19-.19.19-.284l.095-.095c.095 0 .19-.095.19-.095.096-.094.191-.19.191-.19l.095-.094.19-.095 36.263-21.039-1.999-1.137Z" fill="#1C191A"/><path d="M150.293 74.198c5.71-13.457 11.516-18.954 12.278-19.617l30.647-17.817-.095 65.487 5.52-3.033V31.362L162.38 52.306l-.19.19c-.286.284-6.948 5.78-13.42 21.039-8.566 20.091-12.944 46.627-12.849 78.85v1.137l1.999-1.137v-2.275c0-38.667 6.757-62.644 12.373-75.912Z" fill="#1B1819"/><path opacity=".2" d="m142.774 40.552-2.094-1.137-1.999-1.137-25.508-14.5-1.999-1.138-.19.19c-.285.19-6.948 5.781-13.42 21.04-5.52 12.888-9.327 28.525-11.231 46.627l49.112 28.715c.095-.474.095-.948.095-1.327.095-.474.095-1.042.19-1.516l.286-2.275c0-.284.095-.663.095-.947.095-.569.19-1.138.19-1.706.191-1.137.381-2.18.572-3.222 0-.474.095-1.043.19-1.611.19-1.138.381-2.18.571-3.317.095-.38.095-.759.19-1.138.286-1.421.571-2.748.857-4.17v-.19c.285-1.42.666-2.748.952-4.17a.723.723 0 0 0 .19-.473c.381-1.611.761-3.127 1.237-4.644v-.094c.381-1.327.762-2.56 1.142-3.791.096-.38.191-.664.286-1.043.286-.663.476-1.327.666-1.99l.286-.853c.095-.379.19-.663.381-.948.38-1.137.761-2.369 1.237-3.506a47.588 47.588 0 0 1 1.618-3.886c0-.19.095-.379.19-.474 0-.094.095-.19.095-.284.286-.474.381-.948.571-1.327.096-.19.191-.284.286-.474.19-.474.476-1.042.666-1.516 0-.095.095-.095.095-.19.286-.473.476-.852.667-1.326.095-.095.19-.285.19-.38.19-.379.381-.663.571-1.042 0-.095.095-.19.095-.284 0 0 0-.095.095-.095.191-.474.476-.853.667-1.232 0 0 0-.095.095-.095.19-.379.381-.758.666-1.137l.095-.095c0-.095.095-.095.095-.19.191-.378.286-.663.476-.947.096-.095.191-.19.191-.284.285-.38.476-.759.666-1.138.286-.284.476-.663.666-.947.095-.095.191-.19.191-.285l.571-.853.095-.094c.285-.38.476-.664.666-.948.095-.095.095-.19.19-.284.191-.285.381-.569.667-.758.285-.38.476-.664.761-.948l.095-.095c.191-.284.381-.569.571-.758l.096-.095.095-.095c.095-.095.19-.284.285-.379v-.095c.191-.094.286-.284.476-.379l.095-.094c.095-.095.095-.19.191-.285l.095-.095c.095-.094.19-.094.285-.189l.096-.095c.095-.095.19-.19.19-.284l.095-.095c.095 0 .19-.095.19-.095.096-.094.191-.19.191-.19l.095-.094.19-.095.191-.095-17.703-10.614Z" fill="#D9D9F9"/><path d="M84.81 119.687v3.507l.095.569 49.112 28.62-.095-.568V144.612c0-1.232.095-2.464.095-3.696 0-.663 0-1.327.095-1.99 0-1.137.095-2.275.191-3.412 0-.663.095-1.327.095-1.895.095-1.232.095-2.369.19-3.507 0-.568.095-1.137.095-1.611.096-1.706.286-3.412.381-5.023.095-1.232.286-2.369.381-3.506L86.333 91.256a322.827 322.827 0 0 0-1.523 28.431Z" fill="#131111"/><path d="m116.124 17.047 1.713-1.042v8.245l-1.713.947v-8.15Z" fill="#1B1819"/><path d="m110.889 14.016 1.713-1.043 5.235 3.033-1.713 1.043-5.235-3.033Z" fill="#1E1B1C"/><path d="M116.124 17.048v8.15l-5.235-2.938v-8.245l5.235 3.033Z" fill="#131111"/><path d="M118.789 18.375v-1.043c0-.094 0-.189-.095-.284V16.764c0-.095 0-.19-.096-.284 0-.095 0-.095-.095-.19 0-.095-.095-.19-.095-.284 0-.095-.095-.19-.095-.284 0-.095 0-.095-.095-.19 0-.095-.096-.19-.096-.19 0-.094 0-.094-.095-.19 0-.094-.095-.189-.095-.189 0-.094-.095-.19-.095-.284v-.095c0-.094-.095-.094-.095-.19 0-.094-.095-.189-.095-.284 0 0 0-.094-.096-.094v-.095c0-.095-.095-.095-.095-.19-.095-.094-.095-.19-.19-.284v-.095c-.095-.19-.191-.284-.286-.379-.095-.095-.095-.19-.19-.284-.095-.095-.095-.19-.19-.19-.096-.094-.096-.19-.191-.19l-.19-.189-.095-.095-.191-.189-.095-.095h-.095l-.095-.095-.191-.19-.095-.094h-.095l-.095-.095-.19-.19c-.096 0-.096-.094-.191-.094-.095-.095-.19-.095-.19-.095-.095 0-.095-.095-.19-.095-.096 0-.096-.094-.191-.094s-.095-.095-.19-.095c0 0-.095 0-.095-.095-.096 0-.096-.095-.191-.095s-.095-.094-.19-.094h-.095c-.095 0-.095 0-.191-.095H111.841c-.095 0-.191 0-.286.095-.095 0-.285.094-.381.19l-1.713 1.042c.095-.095.286-.095.381-.19.095 0 .19-.095.285-.095h.952c.191 0 .286 0 .381.095.095 0 .286.095.381.095.19.095.285.095.476.19.19.094.285.189.475.284.191.095.286.19.476.284.191.095.286.19.476.284.095.095.286.19.381.38l.381.379c.095.19.285.284.38.473.096.19.286.285.381.474.095.19.19.285.286.474.095.095.095.19.19.284.095.095.095.19.19.285 0 0 0 .095.096.095.095.189.19.284.285.473v.095l.286.569c.095.19.19.379.19.568.095.19.095.38.19.569.095.19.095.38.191.569v.094c0 .19.095.38.095.569 0 .19.095.38.095.569v1.137c0 .19 0 .284-.095.474v.095c0 .094-.095.284-.095.379v.094c0 .095-.096.19-.096.38-.095.094-.095.189-.19.379s-.19.284-.285.379l-.096.094c-.095.095-.285.19-.38.285l1.713-1.043c.19-.095.285-.19.381-.284l-.381-.474c.095-.095.19-.284.285-.379.096-.095.096-.19.191-.284 0-.095.095-.19.095-.19V20.176c0-.095 0-.19.095-.284V18.849c.286-.284.286-.38.286-.474Z" fill="#262626"/><path d="M112.221 11.364c2.665 1.516 4.759 5.212 4.759 8.245 0 3.032-2.189 4.264-4.759 2.748-2.665-1.516-4.759-5.212-4.759-8.245 0-3.033 2.189-4.265 4.759-2.748Z" fill="#2B2B2B"/><path d="M115.743 19.988c0 .568-.095 1.137-.286 1.61-.571.664-1.237 1.138-2.094 1.517-.666.284-1.427.474-2.189.474-3.236 0-5.806-2.749-5.806-6.066 0-1.895.857-3.6 2.19-4.738.38-.38.856-.664 1.332-.853.666-.095 1.523 0 2.475.569 2.474 1.326 4.378 4.643 4.378 7.487Z" fill="#FE5236"/><path d="m162.571 43.775 1.713-1.043v8.245l-1.808 1.043.095-8.245Z" fill="#1B1819"/><path d="m157.336 40.741 1.713-.947 5.235 2.938-1.713 1.042-5.235-3.033Z" fill="#1E1B1C"/><path d="m162.571 43.775-.095 8.245-5.14-3.033v-8.245l5.235 3.033Z" fill="#131111"/><path d="M165.141 45.195V44.153c0-.095 0-.19-.096-.284V43.584c0-.095 0-.19-.095-.284 0-.095 0-.095-.095-.19 0-.094-.095-.19-.095-.284 0-.095-.095-.19-.095-.284 0-.095 0-.095-.096-.19-.095-.19-.095-.284-.095-.284 0-.095-.095-.095-.095-.19 0-.094-.095-.19-.095-.284 0-.095-.095-.19-.095-.284v-.095c0-.095-.095-.095-.095-.19 0-.094-.096-.19-.096-.284 0 0 0-.095-.095-.095v-.094c0-.095-.095-.095-.095-.19-.286-.095-.286-.19-.381-.284v-.095c-.095-.19-.19-.284-.285-.38l-.286-.283-.19-.19c0-.095-.095-.19-.19-.19l-.191-.189-.095-.095a1.293 1.293 0 0 0-.286-.379l-.095-.095h-.095l-.095-.094s0-.095-.095-.19l-.095-.095h-.096l-.095-.094-.19-.19c-.095 0-.095-.095-.191-.095-.095 0-.095-.095-.19-.095s-.095-.094-.19-.094-.095-.095-.191-.095c-.095 0-.095-.095-.19-.095 0 0-.095 0-.095-.095-.095 0-.095-.094-.19-.094-.096 0-.096-.095-.191-.095h-.095c-.095 0-.095 0-.19-.095h-1.333c-.095 0-.19 0-.285.095-.096 0-.286.095-.381.19l-1.713 1.042c-.191-.19-.095-.285 0-.38H156.955c.095 0 .286 0 .381.096.095 0 .285.094.381.094.19 0 .285 0 .475.095.191.095.381.19.476.284.191.095.381.19.476.285.191.094.381.19.476.379.191.095.381.19.476.379.19.095.286.284.476.379.095.19.285.379.381.474.19.19.285.379.38.568.191.095.286.285.381.474.095.095.095.19.19.285 0 .094.096.19.191.284 0 0 0 .095.095.095 0 .19.095.284.19.474v.094c.096.095.191.285.286.474.095.19.19.38.19.569.095.284.191.379.191.568.095.285.19.474.19.664v.095c0 .19.095.379.095.568 0 .19.095.38.095.569V46.9c0 .19 0 .285-.095.474v.095c0 .095-.095.284-.095.379v.095c0 .095-.095.19-.095.379-.095.095-.095.19-.191.379-.19.095-.285.19-.38.284l-.095.095c-.096.095-.286.19-.381.284l1.713-.947c.095-.095.286-.19.381-.285l.095-.095c.095-.094.19-.284.285-.378.096-.19.191-.285.191-.38 0-.094.095-.19.095-.19V46.807c0-.094 0-.189.095-.284V45.48c.191-.189.191-.284.191-.284Z" fill="#262626"/><path d="M158.668 38.18c2.665 1.517 4.759 5.213 4.759 8.245 0 3.033-2.189 4.265-4.759 2.749-2.665-1.517-4.759-5.213-4.759-8.245 0-3.033 2.19-4.265 4.759-2.749Z" fill="#2B2B2B"/><path d="M162.19 46.713c0 .568-.095 1.137-.285 1.61-.572.57-1.238 1.138-1.999 1.422-.666.285-1.428.474-2.189.474-3.236 0-5.806-2.748-5.806-6.065 0-1.896.856-3.602 2.189-4.739.381-.379.761-.663 1.332-.853.667-.094 1.523 0 2.475.569 2.38 1.422 4.283 4.739 4.283 7.582Z" fill="#FE5236"/><path d="M132.497 180.058h.096l-.007 2.274h-.095l.006-2.274Z" fill="#D98851"/><path d="M132.495 180.059v2.275l-5.329-3.128v-2.179l5.329 3.032Z" fill="#F5BC6F"/><path d="m127.19 177.018 5.357 3.081-.047.082-5.358-3.081.048-.082Z" fill="#FFD18D"/><path d="M69.486 143.949v2.274l-5.235 3.033v-2.18l5.235-3.127Z" fill="#D98851"/><path d="M69.677 150.11v2.274l-5.425-3.127v-2.18l5.425 3.033ZM93.09 163.566v2.275l-23.413-13.458v-2.274l23.414 13.457Z" fill="#F5BC6F"/><path d="M69.677 150.109v2.274l-26.27 15.164v-2.275l26.27-15.163Z" fill="#D98851"/><path d="M98.516 166.693v2.274l-5.425-3.127v-2.275l5.425 3.128Z" fill="#F5BC6F"/><path d="M43.407 165.273v2.274l-5.33 3.033v-2.18l5.33-3.127Z" fill="#D98851"/><path d="m121.834 180.056-.095 2.274-23.223-13.362v-2.275l23.318 13.363Z" fill="#F5BC6F"/><path d="M98.516 166.693v2.275l-26.27 15.163v-2.275l26.27-15.163ZM66.916 178.826v2.18l-5.425 3.127.096-2.274 5.33-3.033Z" fill="#D98851"/><path d="m61.587 181.858-.096 2.274-23.413-13.552v-2.18l23.508 13.458Z" fill="#F5BC6F"/><path d="m38.078 168.4 5.33-3.127 23.508 13.552-5.33 3.033L38.079 168.4Z" fill="#FFD18D"/><path d="M127.164 183.184v2.275l-5.425-3.128.095-2.274 5.33 3.127Z" fill="#F5BC6F"/><path d="M132.494 180.057v2.274l-5.33 3.128v-2.275l5.33-3.127Z" fill="#D98851"/><path d="m132.495 180.057-5.329 3.128-5.33-3.128-23.32-13.362-5.424-3.128-23.414-13.457-5.425-3.033 5.234-3.128 57.679 33.076 5.329 3.032Z" fill="#FFD18D"/><path d="M38.078 168.4v2.18l-26.365 15.353v-2.275L38.078 168.4ZM6.288 180.53v2.274l-5.33 3.127v-2.274l5.33-3.127ZM72.246 181.857v2.275l-5.33 3.032v-2.179l5.33-3.128Z" fill="#D98851"/><path d="m69.486 143.949-5.234 3.127 5.425 3.033-26.27 15.163-5.33 3.128-26.364 15.258-5.33 3.128-5.425-3.128 5.33-3.127 63.198-36.582Z" fill="#FFD18D"/><path d="M11.713 183.657v2.275l-5.425 3.033.095-2.18 5.33-3.128ZM40.552 200.242v2.275l-5.33 3.033v-2.18l5.33-3.128ZM63.87 213.606l-.094 2.275-5.14 3.033v-2.275l5.235-3.033Z" fill="#D98851"/><path d="M63.966 219.765v2.274l-5.33-3.127v-2.275l5.33 3.128Z" fill="#F5BC6F"/><path d="M63.966 219.765v2.275L.958 185.932v-2.275l63.008 36.108Z" fill="#F5BC6F"/><path d="m6.383 186.785-.095 2.18-5.33-3.033v-2.275l5.425 3.128ZM90.235 198.348v2.274l-23.318-13.457v-2.18l23.318 13.363Z" fill="#F5BC6F"/><path d="m72.246 181.857 23.32 13.458-5.33 3.032-23.32-13.362 5.33-3.128Z" fill="#FFD18D"/><path d="M95.565 195.314v2.18l-5.33 3.127v-2.274l5.33-3.033ZM66.916 184.985v2.18l-26.364 15.353v-2.275l26.364-15.258ZM35.127 197.115v2.274l-5.33 3.127v-2.274l5.33-3.127Z" fill="#D98851"/><path d="m98.516 166.693-26.27 15.163-5.33 3.127-26.364 15.259-5.33 3.127-5.425-3.127 5.33-3.128 26.46-15.258 5.33-3.033 26.174-15.258 5.425 3.128Z" fill="#FFD18D"/><path d="M35.222 203.37v2.18l-5.425-3.033v-2.275l5.425 3.128Z" fill="#F5BC6F"/><path d="m95.565 195.315 26.269-15.258 5.33 3.127-63.198 36.582-5.33-3.127 5.235-3.033 26.364-15.258 5.33-3.033Z" fill="#FFD18D"/><path d="M127.164 183.186v2.274l-63.198 36.582v-2.275l63.198-36.581Z" fill="#D98851"/><path d="m63.87 213.605-5.234 3.032 5.33 3.128L.958 183.657l5.33-3.127-5.33 3.127 5.425 3.127 5.33-3.127 23.414 13.457-5.33 3.128 5.425 3.127 5.33-3.127 23.319 13.363Z" fill="#FFD18D"/><path d="m123.452 56.758 10.375-6.066-.381 117.801-10.374 6.065.38-117.8Z" fill="#212122"/><path d="m119.265 54.388 10.374-6.065 4.188 2.369-10.375 6.065-4.187-2.369Z" fill="#343335"/><path d="m123.452 56.758-.38 117.801-4.188-2.369.381-117.8 4.187 2.368Z" fill="#353435"/><path d="m84.049 34.104 10.374-5.97-.286 117.8-10.47 5.971.382-117.8Z" fill="#212122"/><path d="m79.86 31.736 10.375-6.065 4.188 2.464-10.374 5.97-4.188-2.368Z" fill="#343335"/><path d="m84.049 34.107-.381 117.8-4.188-2.369.38-117.8 4.189 2.369Z" fill="#353435"/><path d="M111.65 40.363h3.617v121.022h-3.617V40.363ZM93.567 34.865h3.616v121.023h-3.617V34.865Z" fill="#000"/><path d="m120.407 147.739 2.665-1.611-.095 28.526-2.665 1.517.095-28.432Z" fill="#444546"/><path d="m76.815 122.719 2.665-1.611 43.592 25.019-2.665 1.611-43.592-25.019Z" fill="#4C4D4E"/><path d="m120.407 147.738-.095 28.432-43.592-25.02.095-28.431 43.592 25.019Z" fill="#2F3031"/><path d="M21.04 190.956c-.665.379-1.427.664-2.188.948 0 0-.096 0-.096.095-.475.189-.951.284-1.522.379-.381.094-.762.094-1.047.189-.381 0-.762.095-1.143.095h-.095c-.38 0-.761 0-1.142-.095-.38-.095-.666-.095-.952-.189h-.095c-.285-.095-.57-.19-.856-.379-.857-.474-1.238-1.138-1.238-1.896v1.517c0 .758.381 1.421 1.238 1.895l.57.284c.096 0 .191.095.286.095h.191c.19 0 .285.095.476.095.095 0 .285.095.38.095.19 0 .286 0 .476.094H15.52c.19 0 .476 0 .667-.094.285 0 .666-.095.951-.095h.096c.475-.095.951-.19 1.522-.379h.191c.761-.285 1.523-.569 2.189-.948l63.579-36.771v-1.516l-63.674 36.581Z" fill="#222122"/><path d="m84.62 154.183-63.578 36.771c-2.95 1.706-7.043 2.085-9.137.853-2.19-1.232-1.523-3.601 1.427-5.307l63.58-36.771 7.709 4.454Z" fill="#383739"/><path d="M56.733 211.428c-.667.379-1.428.663-2.19.947 0 0-.095 0-.095.095-.476.19-.952.284-1.523.379-.38.095-.761.095-1.047.19-.38 0-.761.094-1.142 0h-.095c-.38 0-.761 0-1.142-.095-.38-.095-.666-.095-.952-.19h-.095c-.285-.094-.571-.189-.857-.379-.856-.474-1.237-1.137-1.237-1.895v1.516c0 .758.38 1.422 1.237 1.896l.572.284c.095 0 .19.095.285.095h.19c.19 0 .286.094.476.094.096 0 .286 0 .381.095.19 0 .285 0 .476.095h1.903c.286 0 .667-.095.952-.095h.095c.476-.095.952-.189 1.523-.379h.191c.761-.284 1.522-.568 2.189-.948l63.579-36.771v-1.516l-63.674 36.582Z" fill="#222122"/><path d="m120.313 174.654-63.58 36.772c-2.95 1.705-7.042 2.085-9.136.853-2.19-1.232-1.523-3.602 1.427-5.308l63.579-36.771 7.71 4.454Z" fill="#383739"/><path d="m125.166 53.915 10.66-6.065-.096 7.676-10.564 6.16v-7.77Z" fill="#EAA61F"/><path d="m77.576 26.62 10.565-6.16 47.685 27.389-10.66 6.065-47.59-27.294Z" fill="#FFE24E"/><path d="M125.166 53.914v7.771l-47.59-27.389V26.62l47.59 27.294Z" fill="#FDD506"/><path d="M160.001 139.968c.38.379.666.758.856 1.232 0 .095.096.189.096.189l.571 1.138c0 .095.095.189.095.284l.571 1.422c0 .094 0 .094.095.189.19.474.286 1.043.381 1.611v.19c.095.568.19 1.232.285 1.895v.095c.095.663.095 1.327.095 2.085l7.805 4.549v-1.327c0-.284 0-.474-.095-.758v-.095c0-.284-.095-.568-.095-.853 0-.284-.095-.568-.095-.853v-.379c0-.189-.096-.284-.096-.474-.095-.284-.095-.568-.19-.853 0-.094-.095-.189-.095-.284 0-.095 0-.095-.095-.189 0-.095-.096-.19-.096-.285-.095-.284-.19-.568-.38-.853 0-.094-.095-.094-.095-.189s-.096-.19-.096-.284c-.095-.19-.095-.285-.19-.474-.095-.19-.285-.474-.381-.664 0-.094-.095-.189-.095-.189v-.095c-.285-.379-.571-.758-.856-1.043l-.762-.758-.285-.284a3.934 3.934 0 0 0-1.333-1.042l-7.805-4.549c.381.284.857.568 1.238.852l.285.285.762.758Z" fill="#E29205"/><path d="M162.666 158.921v-.758c0-.095 0-.284-.095-.379 0-.095 0-.284-.096-.379v-.095c0-.095 0-.189-.095-.284 0-.095-.095-.284-.095-.379 0-.095-.095-.285-.095-.379-.095-.19-.095-.285-.19-.379 0 0 0-.095-.096-.095v-.095c0-.095-.095-.189-.095-.284-.095-.19-.19-.285-.285-.474-.096-.19-.286-.379-.381-.474-.286-.379-.666-.569-1.047-.853l-.095-.095-2.094-1.421-5.616-3.317c.381.189.762.568 1.047.853.286.379.571.758.762 1.232v.095c.19.473.38 1.042.476 1.611.095.568.19 1.232.19 1.895s-.095 1.422-.19 2.18c-.096.758-.286 1.421-.476 2.179a8.669 8.669 0 0 1-.857 2.18l-.856 1.706c-.191.284-.286.569-.476.758-.381.569-.667 1.138-1.047 1.611a13.876 13.876 0 0 1-1.523 1.801c-.571.569-1.047 1.043-1.618 1.516-.571.474-1.238.853-1.809 1.232-.285.19-.571.285-.951.474l-.857.285h-.095c-.191.568-.476.663-.762.758h-.095c-.285.095-.476.095-.761.095h-.762c-.285 0-.475 0-.666-.095-.285 0-.381-.095-.571-.095h-.19c-.191-.095-.476-.19-.667-.284l7.805 4.454c.19.095.381.189.666.284h.191c.19.095.38.095.571.19.19 0 .38.095.571.095h1.142c.19 0 .286 0 .476-.095h.19c.095 0 .191 0 .191-.095.095 0 .285-.095.38-.095.095 0 .095 0 .191-.095h.095c.095 0 .095 0 .19-.094.095 0 .286-.095.381-.19.095 0 .19-.095.285-.095.096-.094.286-.094.381-.189.095-.095.286-.095.381-.19l.095-.095c.095 0 .19-.094.19-.094.096-.095.286-.19.381-.19.095-.095.286-.189.381-.284.095-.095.285-.19.381-.284.095-.095.285-.19.38-.285l.095-.095.191-.189c.19-.095.285-.19.38-.284.096-.095.191-.19.381-.285l.286-.284.285-.284.095-.095.096-.095.285-.284c.191-.285.286-.379.381-.474.095-.095.19-.19.19-.284.095-.095.191-.19.191-.285.095-.094.19-.189.19-.284.095-.095.095-.19.19-.284.095-.095.191-.19.191-.285.095-.094.19-.284.285-.379.095-.094.191-.284.286-.379.095-.189.19-.379.285-.474.191-.284.286-.568.476-.758.095-.189.19-.379.286-.474.095-.189.19-.284.19-.473.095-.095.095-.285.19-.38.096-.094.096-.189.191-.379.095-.094.095-.189.095-.284 0-.095.095-.19.095-.379 0-.095.095-.19.095-.379 0-.095.095-.19.095-.379 0-.095.096-.285.096-.379 0-.095.095-.285.095-.379v-.095c0-.095 0-.19.095-.19 0-.094.095-.284.095-.379 0-.189.095-.284.095-.474 0-.189.096-.284.096-.474 0-.189.095-.284.095-.473V161.196c0-.19 0-.285.095-.474v-1.516c.476-.19.476-.19.476-.285Z" fill="#313132"/><path d="M153.053 151.622c.381-.094.571-.189.856-.284h.096c.285-.095.475-.095.761-.095h.952c.19 0 .381 0 .571.095.19 0 .285.095.476.095.095 0 .19 0 .285.095.191.094.476.189.667.284l-7.805-4.549c-.19-.095-.476-.19-.666-.284-.095 0-.191 0-.286-.095-.19-.095-.285-.095-.476-.095h-.095c-.19 0-.285 0-.476-.095H146.676c-.19 0-.286 0-.476.095h-.19c-.096 0-.191 0-.191.095-.095 0-.285.095-.38.095 0 0-.096 0-.191.094h-.095c-.095 0-.095 0-.19.095-.096 0-.286.095-.381.19-.095 0-.19.095-.286.095-.095.094-.285.094-.38.189-.095.095-.286.095-.381.19l-.095.094c-.095 0-.191.095-.191.095-.095.095-.285.19-.38.19-.095.094-.286.189-.381.284-.095.095-.285.19-.381.284-.095.095-.285.19-.38.285l-.096.094-.19.19c-.095.095-.19.189-.381.284-.095.095-.19.19-.38.285l-.286.284-.285.284-.096.095-.095.095-.285.284-.286.284c-.095.095-.19.19-.19.285-.095.094-.191.189-.191.284 0 .095-.19.19-.19.284-.095.095-.095.19-.19.285-.095.094-.191.189-.191.284-.095.095-.19.284-.285.379-.095.095-.191.284-.286.379-.095.19-.19.379-.285.474-.381.569-.476.853-.666 1.042-.096.19-.191.38-.286.474-.095.19-.19.285-.19.474-.096.095-.096.284-.191.379-.095.095-.095.19-.19.379 0 .095-.095.19-.095.285 0 .094-.095.189-.095.379 0 .094-.096.189-.096.379 0 .095-.095.189-.095.379 0 .095-.095.284-.095.379 0 .095-.095.284-.095.379v.19c0 .094 0 .189-.095.189 0 .095-.096.284-.096.379 0 .19-.095.285-.095.474 0 .19-.095.284-.095.474 0 .189-.095.284-.095.474v.379c0 .189 0 .284-.095.474v2.653c0 .095 0 .285.095.379 0 .095 0 .285.095.379v.095c0 .095 0 .19.095.285 0 .094.095.284.095.379 0 .094.096.284.096.379.095.189.095.284.19.379 0 0 0 .095.095.095v.094c0 .095.095.19.095.285.096.189.191.284.286.474.095.189.285.379.381.568a2.96 2.96 0 0 0 1.047.853l7.804 4.549c-.381-.189-.761-.569-1.047-.853-.285-.379-.571-.758-.761-1.232v-.095a7.903 7.903 0 0 1-.476-1.611c-.095-.568-.19-1.232-.19-1.895 0-.664.095-1.422.19-2.18v-.095c.095-.758.285-1.421.476-2.179.19-.759.476-1.517.856-2.18l.857-1.706c.19-.284.286-.569.476-.758.381-.569.666-1.137 1.047-1.611.476-.664.952-1.232 1.523-1.801s1.047-1.042 1.618-1.516c.571-.474 1.237-.853 1.808-1.232.286-.19.571-.379.952-.474-.095-.474.19-.569.476-.664Z" fill="#B7B8B8"/><path d="M151.244 152.476c4.95-2.843 9.042-.568 9.042 5.118s-3.997 12.604-8.946 15.448c-4.95 2.843-9.042.568-9.042-5.118s3.997-12.605 8.946-15.448Z" fill="#7B7C7C"/><path d="M146.771 164.229c0-.095.095-.285.19-.379.096-.095.191-.19.191-.285.095-.094.19-.189.285-.189.095-.095.191-.095.286-.095h.19l-.285-.19-.476-.284H146.866s-.095 0-.095.095c-.095.095-.19.095-.285.189 0 0 0 .095-.096.095l-.095.095V164.323c0 .19.095.38.191.474l.761.379a.72.72 0 0 1-.19-.473c-.286-.19-.286-.38-.286-.474Z" fill="#262626"/><path d="M147.437 163.282c.381-.19.762-.095.762.379s-.286 1.043-.762 1.232c-.38.19-.761.095-.761-.379.095-.379.381-.948.761-1.232Z" fill="#2B2B2B"/><path d="M148.579 169.629c0-.095.096-.284.191-.379.095-.095.19-.189.19-.284.095-.095.19-.19.286-.19.095-.094.19-.094.285-.094.095 0 .191 0 .191.094l-.762-.379H148.675s-.096 0-.096.095c-.095.095-.19.095-.285.19l-.095.094-.095.095v1.043a.72.72 0 0 0 .19.473l.761.379a.72.72 0 0 1-.19-.473c-.381-.474-.286-.569-.286-.664Z" fill="#262626"/><path d="M149.246 168.678c.38-.189.761 0 .761.379 0 .474-.285 1.043-.761 1.233-.381.189-.762 0-.762-.38 0-.473.381-1.042.762-1.232Z" fill="#2B2B2B"/><path d="M154.481 166.219c0-.095.095-.285.19-.379.095-.095.095-.19.19-.285.095-.094.191-.189.286-.189.095-.095.19-.095.285-.095h.191l-.476-.284-.286-.19H154.576s-.095 0-.095.095c-.096.095-.191.095-.286.189l-.095.095-.095.095V166.313c0 .19.095.38.19.474l.761.379a.72.72 0 0 1-.19-.473c-.381-.19-.381-.38-.285-.474Z" fill="#262626"/><path d="M155.147 165.365c.38-.189.761-.095.761.379s-.285 1.043-.761 1.232c-.381.19-.762.095-.762-.379s.286-1.042.762-1.232Z" fill="#2B2B2B"/><path d="M156.194 158.827c0-.094.095-.284.19-.379.095-.095.19-.189.19-.284.096-.095.191-.19.286-.19.095-.094.19-.094.285-.094h.191l-.286-.19-.476-.284H156.289s-.095 0-.095.095c-.096.094-.191.094-.286.189 0 0 0 .095-.095.095l-.095.095V158.827c0 .19.095.379.19.474l.476.379a.723.723 0 0 1-.19-.474c-.096-.094 0-.284 0-.379Z" fill="#262626"/><path d="M156.86 157.879c.381-.19.761 0 .761.379 0 .473-.285 1.042-.761 1.232-.381.189-.762 0-.762-.379 0-.38.381-.948.762-1.232Z" fill="#2B2B2B"/><path d="M151.911 156.268h-.381s-.095 0-.095.095c-.095.095-.191.095-.286.189l-.095.095-.095.095V157.784c0 .19.095.379.19.474l.762.379a.716.716 0 0 1-.191-.474c0-.094 0-.284.095-.379 0-.094.096-.284.191-.379.095-.094.19-.189.19-.284.095-.095.191-.19.286-.19.095-.094.19-.094.285-.094h.191l-1.047-.569Z" fill="#262626"/><path d="M152.196 156.743c.381-.19.762-.095.762.379s-.286 1.042-.762 1.232c-.381.19-.761.095-.761-.379 0-.379.285-.948.761-1.232Z" fill="#2B2B2B"/><path d="M150.388 163.66c.095-.379.285-.759.476-1.043.19-.379.476-.663.666-.948.286-.284.571-.473.857-.663.095-.095.285-.095.38-.189h.095c.096 0 .286-.095.381-.095h.381c.095 0 .19.095.285.095l-1.142-.664s-.095 0-.095-.095H151.53c-.095 0-.19.095-.286.19-.285.189-.475.379-.761.569l-.095.094-.095.095c-.096.095-.096.19-.191.19l-.19.189c0 .095-.095.095-.095.19 0 .094-.095.094-.095.189s-.096.095-.096.19-.095.095-.095.189c0 .095-.095.095-.095.19s-.095.095-.095.189c0 .095-.095.095-.095.19v.189c0 .095 0 .19-.095.285 0 .095 0 .189-.096.284v.474c0 .663.286 1.232.667 1.422l1.142.663c-.381-.19-.667-.758-.667-1.422 0-.189 0-.568.191-.947Z" fill="#262626"/><path d="M152.387 160.912c1.237-.758 2.284-.095 2.284 1.327s-.952 3.127-2.189 3.886c-1.238.663-2.284.094-2.284-1.232 0-1.517.951-3.223 2.189-3.981Z" fill="#2B2B2B"/><path d="M140.394 182.141c-.285-.38-.571-.664-.761-1.043 0-.095-.095-.095-.095-.19a8.29 8.29 0 0 1-.572-.947c0-.095-.095-.095-.095-.19-.19-.379-.285-.758-.476-1.232 0-.095 0-.095-.095-.189-.095-.474-.285-.853-.381-1.327v-.095c-.095-.474-.19-1.042-.19-1.611v-.095c-.095-.568-.095-1.137-.095-1.8 0-.664 0-1.232.095-1.896v-.095c.095-.568.095-1.232.19-1.8v-.19c.096-.663.191-1.232.381-1.895.191-.664.286-1.327.476-1.896v-.094c.19-.664.381-1.232.666-1.896v-.095c.286-.663.476-1.326.762-1.895.285-.663.571-1.232.856-1.895 0 0 0-.095.096-.095.095-.095.19-.285.19-.379.476-.948 1.047-1.896 1.618-2.843.095-.095.19-.285.285-.38l.096-.094 1.142-1.706c.381-.569.856-1.137 1.237-1.611 0 0 0-.095.095-.095.476-.474.857-1.043 1.333-1.516l.095-.095 1.428-1.422s.095 0 .095-.095c.476-.473.952-.852 1.427-1.232l.096-.094c.476-.379 1.047-.758 1.523-1.138h.095c.571-.379 1.047-.663 1.618-1.042.571-.284 1.047-.569 1.618-.853.761-.284 1.237-.474 1.713-.569.095 0 .095 0 .19-.094.476-.19.952-.285 1.428-.379h.19c.476-.095.857-.19 1.333-.19H161.714c.381 0 .761.095 1.047.095.286.095.571.189.857.189.19 0 .285.095.475.095.381.19.857.379 1.238.569l-7.805-4.549c-.381-.19-.761-.379-1.237-.569-.095-.095-.286-.095-.381-.095-.285-.094-.571-.189-.856-.189h-.096c-.285-.095-.571-.095-.856-.095h-2.094c-.286 0-.571.095-.762.095h-.38c-.095 0-.286.095-.381.095-.19.094-.476.094-.666.189-.095 0-.191.095-.286.095-.095 0-.095 0-.19.095-.095 0-.19.094-.286.094-.19.095-.476.19-.666.285-.19.094-.381.189-.571.189h-.19c-.191.095-.476.19-.667.285-.19.094-.475.189-.666.379-.095.094-.19.094-.285.189-.096.095-.286.19-.381.284-.19.095-.476.285-.666.38-.191.094-.381.284-.571.379h-.096c-.19.189-.475.284-.666.473-.19.19-.476.285-.666.474l-.19.19-.096.095c-.095.094-.19.189-.38.284-.191.19-.381.379-.667.569-.19.094-.285.284-.475.379l-.096.094-.095.095-.571.569-.571.568-.19.19-.095.095-.191.189c-.19.19-.285.379-.476.474-.19.19-.285.379-.476.474-.095.095-.095.19-.19.284l-.095.095-.191.19c-.095.189-.285.284-.38.474-.095.189-.286.379-.381.473-.095.19-.19.285-.381.474-.095.19-.285.379-.38.569-.191.189-.286.474-.476.663-.095.095-.191.285-.286.379l-.095.095c0 .095-.095.095-.095.19 0 .094-.095.189-.095.189-.571.948-1.142 1.896-1.618 2.843 0 .095-.096.095-.096.19s-.095.095-.095.189c0 0 0 .095-.095.095-.095.19-.19.285-.285.474-.096.284-.286.474-.381.758l-.286.569-.285.568-.286.569c-.095.19-.19.379-.19.569 0 .094 0 .095-.095.189v.095c0 .095-.095.19-.095.379-.096.19-.191.474-.191.664-.095.189-.19.473-.19.663 0 .095 0 .189-.095.189v.095c0 .095-.096.285-.096.379-.095.285-.095.474-.19.758-.095.285-.095.569-.19.759-.095.284-.095.474-.191.758-.095.284-.095.568-.19.853v.474c0 .094 0 .189-.095.379 0 .284-.095.568-.095.758 0 .189 0 .474-.095.663v.19c0 .284 0 .474-.096.758v2.274c0 .19 0 .38.096.664v.095c0 .284.095.474.095.663 0 .284.095.474.095.663V172.095c0 .095.095.284.095.379.095.284.095.474.19.663 0 .095.096.19.096.285 0 .094 0 .094.095.189 0 .095.095.19.095.284.095.285.19.474.285.759 0 .094.096.094.096.189s.095.095.095.19c.095.094.095.284.19.379.095.189.191.379.381.568 0 .095.095.095.095.19v.095c.19.284.476.568.666.853 0 0 0 .094.096.094l.571.569c.095.095.19.284.38.379.286.284.667.474 1.047.664l7.805 4.549c-.381-.19-.666-.474-1.047-.759l-.286-.284c-.19.284-.476.095-.666-.189Z" fill="#313132"/><path d="M137.634 173.515c0 10.141 7.233 14.216 16.085 9.098 8.852-5.117 15.99-17.437 15.99-27.578 0-10.14-7.234-14.216-16.085-9.098-8.852 5.118-15.99 17.438-15.99 27.578Zm16.085 1.043c-4.949 2.843-9.042.569-9.042-5.118 0-5.686 3.998-12.604 8.947-15.447 4.949-2.844 9.042-.569 9.042 5.117.095 5.686-3.998 12.605-8.947 15.448Z" fill="#212122"/><path d="M132.97 171.999v-.19c.191-.758.286-1.516.476-2.274.191-.759.381-1.611.666-2.37v-.189c.191-.758.476-1.516.762-2.275v-.094c.285-.759.571-1.612.952-2.37.38-.758.666-1.516 1.047-2.274 0-.095.095-.095.095-.19.38-.758.761-1.516 1.237-2.274.381-.758.857-1.422 1.333-2.18 0-.095.095-.095.095-.19.476-.663.952-1.421 1.427-2.085.476-.663 1.047-1.326 1.523-1.99l.095-.094c.572-.664 1.047-1.233 1.618-1.801l.096-.095 1.713-1.706.095-.095c.571-.568 1.142-1.042 1.713-1.516.095 0 .095-.095.191-.095.571-.474 1.237-.947 1.808-1.421h.095c.666-.474 1.333-.853 1.999-1.232.381-.19.666-.379.952-.474.095 0 .095-.095.19-.095.286-.189.571-.284.952-.474.095 0 .19-.095.285-.095.191-.094.476-.189.667-.284.095 0 .19-.095.285-.095l.571-.284c.095 0 .286-.095.381-.095.19-.094.381-.094.571-.189.095 0 .286-.095.381-.095.19 0 .38-.095.476-.095.095 0 .285-.095.38-.095.095 0 .286-.094.381-.094.19 0 .381-.095.571-.095h.381c.19 0 .381 0 .666-.095H161.524c.476 0 .856.095 1.332.19h.191c.19 0 .285.094.475.094.096 0 .191.095.381.095.191 0 .286.095.476.19.095 0 .19.095.286.095.19.094.38.094.475.189.096 0 .191.095.286.095.286.095.476.284.666.379l-7.804-4.549c-.191-.095-.476-.284-.667-.379-.095 0-.19-.095-.285-.095-.19-.095-.286-.189-.476-.189-.095 0-.19-.095-.286-.095-.19-.095-.285-.095-.475-.19-.096 0-.191-.095-.381-.095s-.286-.094-.476-.094h-.19c-.476-.095-.952-.095-1.333-.19H152.387c-.191 0-.381 0-.667.095h-.38c-.191 0-.381.095-.571.095-.096 0-.191 0-.286.094h-.095c-.095 0-.286.095-.381.095-.095 0-.19.095-.381.095h-.19c-.095 0-.285.095-.381.095-.095 0-.19.095-.285.095-.095 0-.19.094-.19.094-.096 0-.286.095-.381.095-.095 0-.191.095-.286.095-.095 0-.19.095-.285.095-.095 0-.191.094-.286.094-.095 0-.095 0-.19.095-.191.095-.381.19-.476.19-.095 0-.19.094-.19.094-.286.095-.571.285-.857.38h-.095c-.095 0-.095.094-.191.094l-.571.285c-.095.094-.19.094-.285.189-.191.095-.286.19-.476.285-.286.189-.571.284-.761.473-.191.19-.476.285-.667.474h-.19c-.286.19-.571.379-.762.569-.285.189-.571.379-.761.568-.095.095-.19.095-.19.19-.095 0-.095.095-.191.095-.095.095-.285.189-.38.284-.286.19-.476.474-.762.663-.19.19-.38.38-.571.474l-.095.095-.095.095-.666.663-.667.664c-.38.474-.38.568-.476.663l-.095.095-.285.284c-.191.19-.381.379-.571.664a4.063 4.063 0 0 0-.571.663l-.286.284-.095.095-.191.19c-.19.189-.285.379-.475.568-.191.19-.286.379-.476.664-.191.189-.286.379-.381.568-.19.19-.286.474-.476.664l-.571.853c-.095.189-.19.379-.381.568 0 .095-.095.095-.095.19-.095.095-.095.189-.19.189-.381.664-.762 1.232-1.142 1.896l-1.142 1.99c0 .095-.096.189-.096.189 0 .095-.095.095-.095.19l-.285.569c-.191.284-.286.568-.476.947a2.844 2.844 0 0 1-.381.759c-.095.189-.19.473-.286.663-.095.284-.19.474-.285.758-.095.284-.19.474-.286.758 0 .095-.095.095-.095.19v.095c-.095.189-.095.284-.19.473l-.286.853-.285.853c0 .095-.095.19-.095.285v.189c0 .19-.096.284-.096.474-.095.284-.19.569-.285.948-.095.284-.19.663-.19.947-.096.285-.191.664-.191.948-.095.379-.095.664-.19.948 0 .095 0 .284-.095.379v.189c0 .19-.096.285-.096.474 0 .285-.095.664-.095.948 0 .284-.095.569-.095.853v.19c0 .284 0 .663-.095.947v1.327l7.805 4.549c0-.758 0-1.516.095-2.369v-.095c.095-.853.19-1.611.285-2.369Z" fill="#FFE24E"/><path d="M152.101 142.999c10.85-6.255 19.607-1.232 19.702 11.183l-.762.474c0-11.846-8.47-16.68-18.845-10.709-10.374 5.97-18.75 20.47-18.75 32.317l-.761.474c-.096-12.415 8.661-27.579 19.416-33.739Z" fill="#FFA800"/><path d="M132.495 173.71v6.728l-5.329-3.032v-6.729l5.329 3.033Z" fill="#F5BC6F"/><path d="M127.164 170.677v6.729l-5.425 3.032.095-6.728 5.33-3.033Z" fill="#D98851"/><path d="M127.164 176.836v6.728l-5.425-3.127.095-6.729 5.33 3.128Z" fill="#F5BC6F"/><path d="m132.495 173.71-5.329 3.127-5.33-3.127 5.33-3.033 5.329 3.033Z" fill="#FFD18D"/><path d="M132.494 173.708v6.729l-5.33 3.127v-6.728l5.33-3.128Z" fill="#D98851"/><path d="M127.164 176.836v6.728l-5.425-3.127.095-6.729 5.33 3.128Z" fill="#F5BC6F"/><path d="M132.59 173.71h-.095l-5.33-3.033-5.33 3.033 5.33 3.127-5.33-3.127 5.33-3.033 5.425 3.033Z" fill="#FFD18D"/><path d="m100.99 191.997-.095 6.728-5.33 3.128v-6.729l5.425-3.127Z" fill="#D98851"/><path d="M95.565 195.124v6.729l-5.33-3.128v-6.728l5.33 3.127Z" fill="#F5BC6F"/><path d="m100.99 191.998-5.425 3.127-5.33-3.127 5.33-3.033 5.425 3.033Z" fill="#FFD18D"/><path d="M69.2 210.385v6.729l-5.234 3.033v-6.729l5.235-3.033Z" fill="#D98851"/><path d="M63.966 213.416v6.729l-5.33-3.128v-6.728l5.33 3.127Z" fill="#F5BC6F"/><path d="m69.2 210.385-5.234 3.032-5.33-3.127 5.235-3.033 5.33 3.128Z" fill="#FFD18D"/><path d="M72.246 175.508v6.729l-5.33 3.128v-6.729l5.33-3.128Z" fill="#D98851"/><path d="M66.916 178.636v6.729l-5.425-3.128.096-6.729 5.33 3.128Z" fill="#F5BC6F"/><path d="m72.246 175.51-5.33 3.127-5.33-3.127 5.33-3.033 5.33 3.033Z" fill="#FFD18D"/><path d="M40.552 193.893v6.729l-5.425 3.033.095-6.634 5.33-3.128Z" fill="#D98851"/><path d="m35.222 197.021-.095 6.634-5.33-3.033v-6.729l5.425 3.128Z" fill="#F5BC6F"/><path d="m40.552 193.893-5.33 3.127-5.425-3.127 5.33-3.128 5.425 3.128Z" fill="#FFD18D"/><path d="M43.407 158.923v6.729l-5.33 3.127v-6.728l5.33-3.128Z" fill="#D98851"/><path d="M38.078 162.051v6.728l-5.426-3.127.096-6.729 5.33 3.128Z" fill="#F5BC6F"/><path d="m43.407 158.925-5.33 3.127-5.33-3.127 5.33-3.033 5.33 3.033Z" fill="#FFD18D"/><path d="M11.713 177.308v6.729l-5.425 3.033.095-6.634 5.33-3.128Z" fill="#D98851"/><path d="m6.383 180.436-.095 6.634-5.33-3.033v-6.729l5.425 3.128Z" fill="#F5BC6F"/><path d="m11.713 177.308-5.33 3.127-5.425-3.127 5.33-3.128 5.425 3.128Z" fill="#FFD18D"/><path d="M74.912 140.728v6.729l-5.235 3.032v-6.729l5.234-3.032Z" fill="#D98851"/><path d="M69.677 143.758v6.729l-5.426-3.127v-6.729l5.426 3.127Z" fill="#F5BC6F"/><path d="m74.912 140.727-5.235 3.033-5.425-3.127 5.234-3.033 5.425 3.127Z" fill="#FFD18D"/><path d="M103.75 157.313v6.729l-5.234 3.032v-6.728l5.234-3.033Z" fill="#D98851"/><path d="M98.516 160.344v6.728l-5.425-3.127v-6.729l5.425 3.128Z" fill="#F5BC6F"/><path d="m103.75 157.312-5.234 3.033-5.425-3.128 5.33-3.032 5.329 3.127Z" fill="#FFD18D"/><path d="m132.497 172.57.095.001-.007 2.274h-.095l.007-2.275Z" fill="#D98851"/><path d="M132.495 172.571v2.18l-5.329-3.033v-2.275l5.329 3.128Z" fill="#F5BC6F"/><path d="m127.209 169.43 5.358 3.08-.048.082-5.357-3.08.047-.082Z" fill="#FFD18D"/><path d="M69.486 136.462v2.18l-5.235 3.033v-2.18l5.235-3.033Z" fill="#D98851"/><path d="M69.677 142.526v2.275l-5.426-3.128v-2.18l5.426 3.033ZM93.09 156.081v2.18l-23.413-13.458v-2.274l23.413 13.552Z" fill="#F5BC6F"/><path d="M69.677 142.529v2.274l-26.27 15.164v-2.18l26.27-15.258Z" fill="#D98851"/><path d="M98.516 159.111v2.275l-5.425-3.128v-2.18l5.425 3.033Z" fill="#F5BC6F"/><path d="M43.407 157.786v2.18l-5.33 3.127v-2.274l5.33-3.033Z" fill="#D98851"/><path d="m121.834 172.571-.095 2.18-23.223-13.363v-2.275l23.318 13.458Z" fill="#F5BC6F"/><path d="M98.516 159.113v2.275l-26.27 15.163v-2.18l26.27-15.258ZM66.916 171.243v2.274l-5.425 3.033.096-2.18 5.33-3.127Z" fill="#D98851"/><path d="m61.587 174.369-.096 2.18-23.413-13.457v-2.275l23.508 13.552Z" fill="#F5BC6F"/><path d="m38.078 160.819 5.33-3.033 23.508 13.458-5.33 3.127-23.508-13.552Z" fill="#FFD18D"/><path d="M127.164 175.603v2.274l-5.425-3.127.095-2.18 5.33 3.033Z" fill="#F5BC6F"/><path d="M132.494 172.57v2.18l-5.33 3.127v-2.274l5.33-3.033Z" fill="#D98851"/><path d="m132.494 172.571-5.33 3.033-5.33-3.033-23.319-13.458-5.425-3.032-23.414-13.553-5.425-3.032 5.235-3.033 57.678 32.98 5.33 3.128Z" fill="#FFD18D"/><path d="M38.078 160.817v2.275L11.713 178.35v-2.275l26.364-15.258ZM6.288 173.043v2.179l-5.33 3.128v-2.275l5.33-3.032ZM72.246 174.371v2.179l-5.33 3.128v-2.275l5.33-3.032Z" fill="#D98851"/><path d="m69.486 136.462-5.235 3.033 5.426 3.033-26.27 15.258-5.33 3.032-26.364 15.258-5.33 3.128-5.425-3.128 5.33-3.032 63.198-36.582Z" fill="#FFD18D"/><path d="M11.713 176.078v2.275l-5.425 3.127.095-2.274 5.33-3.128ZM40.552 192.663v2.275l-5.33 3.127v-2.274l5.33-3.128ZM63.87 206.12l-.094 2.179-5.14 3.033v-2.18l5.235-3.032Z" fill="#D98851"/><path d="M63.966 212.184v2.274l-5.33-3.127v-2.18l5.33 3.033Z" fill="#F5BC6F"/><path d="M63.966 212.186v2.274L.958 178.353v-2.275l63.008 36.108Z" fill="#F5BC6F"/><path d="m6.383 179.206-.095 2.274-5.33-3.127v-2.275l5.425 3.128ZM90.235 190.86v2.18l-23.319-13.363v-2.275l23.32 13.458Z" fill="#F5BC6F"/><path d="m72.246 174.371 23.32 13.362-5.33 3.128-23.32-13.458 5.33-3.032Z" fill="#FFD18D"/><path d="M95.565 187.734v2.275l-5.33 3.033v-2.18l5.33-3.128ZM66.916 177.402v2.275l-26.364 15.258v-2.274l26.364-15.259ZM35.127 189.628v2.18l-5.33 3.127v-2.274l5.33-3.033Z" fill="#D98851"/><path d="m98.516 159.111-26.27 15.258-5.33 3.033-26.364 15.258-5.33 3.127-5.425-3.127 5.33-3.033 26.46-15.258 5.33-3.127 26.174-15.164 5.425 3.033Z" fill="#FFD18D"/><path d="M35.222 195.791v2.274l-5.425-3.127v-2.275l5.425 3.128Z" fill="#F5BC6F"/><path d="m95.565 187.734 26.269-15.164 5.33 3.033-63.198 36.582-5.33-3.033 5.235-3.033 26.364-15.258 5.33-3.127Z" fill="#FFD18D"/><path d="M127.164 175.602v2.275l-63.198 36.581v-2.274l63.198-36.582Z" fill="#D98851"/><path d="m63.87 206.118-5.234 3.033 5.33 3.032L.958 176.075l5.33-3.032-5.33 3.032 5.425 3.128 5.33-3.128 23.414 13.553-5.33 3.032 5.425 3.128 5.33-3.128 23.319 13.458Z" fill="#FFD18D"/><path d="M81.003 142.811v1.137l-68.624 39.709v-1.137l68.624-39.709Z" fill="#D98851"/><path d="M12.38 182.52v1.137L.957 177.118v-1.138l11.421 6.54Z" fill="#F5BC6F"/><path d="M81.003 142.811 12.379 182.52.958 175.981l68.623-39.709 11.422 6.539Z" fill="#FFD18D"/><path d="M93.947 150.202v1.137l-68.719 39.709v-1.042l68.719-39.804Z" fill="#D98851"/><path d="M25.228 190.005v1.043l-11.421-6.54.095-1.137 11.326 6.634Z" fill="#F5BC6F"/><path d="m93.947 150.202-68.719 39.804-11.326-6.634 68.624-39.709 11.421 6.539Z" fill="#FFD18D"/><path d="M106.796 157.596v1.137l-68.623 39.709V197.4l68.623-39.804Z" fill="#D98851"/><path d="M38.173 197.4v1.042l-11.422-6.539v-1.137l11.422 6.634Z" fill="#F5BC6F"/><path d="M106.796 157.596 38.173 197.4l-11.422-6.634 68.624-39.709 11.421 6.539Z" fill="#FFD18D"/><path d="M119.645 165.083v1.043L51.022 205.93v-1.137l68.623-39.71Z" fill="#D98851"/><path d="M51.022 204.792v1.137L39.6 199.295v-1.042l11.422 6.539Z" fill="#F5BC6F"/><path d="m119.645 165.082-68.623 39.709-11.422-6.539 68.624-39.804 11.421 6.634Z" fill="#FFD18D"/><path d="M132.494 172.477v1.043l-68.623 39.804v-1.138l68.623-39.709Z" fill="#D98851"/><path d="M63.87 212.186v1.137l-11.42-6.634v-1.042l11.42 6.539Z" fill="#F5BC6F"/><path d="m132.494 172.475-68.623 39.709-11.422-6.539 68.719-39.804 11.326 6.634Z" fill="#FFD18D"/><path d="m11.047 122.626.19 54.872 50.064 29-.095-54.872-50.159-29Z" fill="#FFCF7A"/><path d="m61.206 151.626.095 54.872 50.54-29-.191-54.872-50.444 29Z" fill="#E8AE69"/><path d="m11.048 122.625 50.159 29 50.444-29-50.159-29-50.444 29Z" fill="#FCD495"/><path d="M96.422 177.875c1.142-.664 1.999-2.085 1.999-3.317v-2.654l-3.903 2.275v2.653c0 1.137.857 1.611 1.904 1.043Z" fill="#BC896D"/><path d="M96.327 181.572c.095-.095.19-.19.19-.284v-5.023c0-.095-.095-.095-.19-.095-.096.095-.19.189-.19.284v5.023c.095.19.094.19.19.095Z" fill="#BC896D"/><path d="m94.518 182.708 3.712-2.179c.096-.095.19-.19.19-.285 0-.095-.094-.095-.19-.095l-3.712 2.18c-.095.095-.19.19-.19.284 0 .095.095.19.19.095ZM91.568 179.014c.38-.19.666-.285.951-.19-.095-2.18-1.713-3.033-3.616-1.895-1.999 1.137-3.617 3.885-3.617 6.255a4.057 4.057 0 0 1 1.047-1.138c.571-.379 1.142-.189 1.332.19.19-.758.762-1.422 1.333-1.706.571-.379 1.142-.19 1.332.19.096-.664.572-1.327 1.238-1.706Z" fill="#BC896D"/><path d="m90.045 185.269.666-.379c.095-.095.19-.189.19-.284 0-.095-.095-.095-.19-.095l-.666.379c-.571.284-1.047.095-1.047-.568v-4.549c0-.095-.095-.095-.19-.095-.096.095-.19.189-.19.284v4.549c0 .853.666 1.137 1.427.758ZM105.083 173.894l.476-2.464 1.903-.474-.38.474.666.853c.095.095.095.189 0 .379l-.952 2.369-1.237-1.706-.476.569Z" fill="#BC896D"/><path d="m105.464 173.895 1.047 1.516-2.475 1.421v-2.085l1.428-.852ZM101.942 175.981v-.569l1.428.758-1.428 2.369v-.568l-1.237.758c-.095.095-.19.095-.286 0l-.951-1.327 2.474-1.421Z" fill="#BC896D"/><path d="m99.468 177.118 1.237-3.127 1.523.095-.762 1.895-1.998 1.137ZM101.752 171.429l.666-1.611c.095-.189.19-.284.286-.379l1.903-1.042-1.237 3.127h.381l-1.904 1.706-.476-1.99.381.189Z" fill="#BC896D"/><path d="m104.797 168.304 1.238 1.706-1.523 1.895-.761-1.042 1.046-2.559Z" fill="#BC896D"/><path d="m33.224 135.515 3.712 2.085 50.825-29.095-3.712-2.085-50.825 29.095Z" fill="#CF9975"/><path d="m33.224 144.043 3.711 2.085v-8.435l-3.712-2.18v8.53Z" fill="#CF9975"/><path d="m41.409 159.587 14.467 8.34v-15.069l-14.467-8.34v15.069Z" fill="#F1F2F2"/><path d="m42.646 151.721.762.379v-4.549l-.762-.474v4.644ZM44.169 152.572l.761.474v-4.644l-.761-.474v4.644ZM45.692 153.426l.761.474v-4.644l-.761-.379v4.549ZM47.215 155.226l.761.379v-5.402l-.761-.474v5.497ZM48.833 155.228l.761.474v-4.644l-.761-.474v4.644ZM50.356 156.081l.761.474v-4.643l-.761-.38v4.549ZM51.879 157.881l.76.379v-5.402l-.76-.474v5.497ZM53.401 157.88l.762.379v-4.549l-.762-.473v4.643ZM42.551 158.356l11.707 6.634v-.379l-11.707-6.729v.474ZM42.551 156.555l11.707 6.729v-.474l-11.707-6.729v.474ZM42.551 154.848l11.707 6.634v-.379l-11.707-6.729v.474Z" fill="#6D6E71"/><path d="m29.892 93.056.096 35.539 32.455 18.86-.095-35.634-32.456-18.765Z" fill="#FFCF7A"/><path d="m62.348 111.821.095 35.634 32.741-18.86-.095-35.539-32.741 18.765Z" fill="#E8AE69"/><path d="m29.893 93.056 32.456 18.765 32.742-18.765L62.54 74.292 29.892 93.056Z" fill="#FCD495"/><path d="M85.192 128.881c.666-.379 1.237-1.327 1.237-2.18v-1.706l-2.475 1.422v1.706c0 .852.572 1.137 1.238.758Z" fill="#BC896D"/><path d="M85.19 131.249c.096 0 .096-.095.096-.19v-3.317c0-.095 0-.095-.095-.095-.096 0-.096.095-.096.19v3.317c0 .189 0 .189.096.095Z" fill="#BC896D"/><path d="m83.953 132.005 2.475-1.422c.095 0 .095-.094.095-.189s0-.095-.095-.095l-2.475 1.422c-.095 0-.095.094-.095.189s0 .095.095.095ZM82.05 129.639c.19-.095.476-.189.571-.095-.095-1.421-1.047-1.99-2.38-1.232-1.332.758-2.379 2.559-2.379 4.075.19-.284.38-.568.666-.758.381-.189.762-.189.857.19.19-.474.476-.948.856-1.137.381-.19.762-.19.857.189.19-.569.571-1.042.952-1.232Z" fill="#BC896D"/><path d="m81.003 133.619.38-.189c.096 0 .096-.095.096-.19 0-.094 0-.094-.095-.094l-.381.189c-.38.19-.666 0-.666-.379v-2.938c0-.095 0-.095-.096-.095-.095 0-.095.095-.095.19v3.033c0 .568.381.758.857.473ZM90.806 126.321l.286-1.611 1.237-.284-.285.284.38.569v.284l-.57 1.517-.762-1.138-.286.379Z" fill="#BC896D"/><path d="m91.092 126.323.666.948-1.618.948v-1.327l.952-.569ZM88.808 127.651v-.379l.951.474-.951 1.516v-.379l-.857.474h-.19l-.572-.853 1.619-.853Z" fill="#BC896D"/><path d="m87.19 128.408.761-2.085 1.047.095-.476 1.232-1.333.758ZM88.617 124.711l.38-1.042c0-.095.096-.19.191-.19l1.237-.663-.76 2.085h.285l-1.238 1.137-.285-1.232.19-.095Z" fill="#BC896D"/><path d="m90.616 122.626.761 1.137-.951 1.232-.476-.663.666-1.706Z" fill="#BC896D"/><path d="m44.264 101.397 2.38 1.422 32.931-18.86-2.38-1.421-32.93 18.859ZM44.264 106.896l2.38 1.421v-5.497l-2.38-1.421v5.497Z" fill="#CF9975"/><path d="m49.499 117.033 9.423 5.402v-9.761l-9.423-5.402v9.761Z" fill="#F1F2F2"/><path d="m50.356 111.915.475.284v-3.032l-.475-.285v3.033ZM51.307 112.484l.476.284v-3.032l-.476-.285v3.033ZM52.355 113.053l.475.284v-3.033l-.475-.284v3.033ZM53.306 114.191l.476.284v-3.601l-.476-.285v3.602ZM54.353 114.191l.476.284v-3.032l-.476-.285v3.033ZM55.305 114.757l.476.284v-3.033l-.476-.284v3.033ZM56.257 115.897l.57.284v-3.507l-.57-.284v3.507ZM57.304 115.897l.475.284v-2.938l-.475-.284v2.938ZM50.26 116.182l7.615 4.359v-.284l-7.614-4.36v.285ZM50.26 115.043l7.615 4.36v-.285l-7.614-4.359v.284ZM50.26 113.905l7.615 4.36v-.284l-7.614-4.36v.284Z" fill="#6D6E71"/><defs><linearGradient id="a" x1="159.09" y1="32.43" x2="146.27" y2="27.927" gradientUnits="userSpaceOnUse"><stop stop-color="#231F20"/><stop offset=".09" stop-color="#231F20"/><stop offset="1" stop-color="#231F20"/></linearGradient></defs></svg>