<svg width="90" height="223" fill="none" xmlns="http://www.w3.org/2000/svg"><path d="M39.595 101.524s.296 4.582 2.368 5.469c2.073.887 5.773-3.547 5.773-3.547l-8.141-1.922Z" fill="#FED8A7"/><path d="M57.21 190.954s3.997 5.617 2.073 10.494c-.444 1.183-4.737 3.992-5.773 3.992-1.037 0-1.48.147-2.517 1.034-1.036 1.035-.74 1.331-2.369 2.661-1.628 1.182-8.881 4.434-14.358.591 0 0-.296-2.365 0-3.104.296-.739 4.145-3.991 5.92-5.026 1.777-.887 6.662-6.356 7.106-7.39.444-1.183 2.22-1.774 2.22-1.774s3.553-4.139 7.698-1.478ZM76.75 201.741s3.997 5.617 2.073 10.495c-.444 1.182-4.737 3.991-5.774 3.991-1.036 0-1.48.148-2.516 1.034-1.036 1.035-.74 1.331-2.368 2.661-1.629 1.183-8.882 4.435-14.36.591 0 0-.295-2.365 0-3.104.297-.739 4.145-3.991 5.922-5.025 1.776-.887 6.661-6.356 7.105-7.391.444-1.183 2.22-1.774 2.22-1.774s3.553-4.287 7.698-1.478Z" fill="#1E160D"/><path d="M67.276 114.533c-1.48 5.617-1.48 11.53-2.664 17.147-1.332 6.799-.74 14.929-4.441 21.137-1.184 1.774-4.441 4.731-8.29 4.139-2.22-.443-6.217-1.478-6.513-2.956-.444-2.513-.592-4.582-.296-5.913.296-2.808 1.628-18.624 1.924-23.798.148-4.287.444-6.799.889-11.382 0 0-.889-5.173 9.03-2.956 10.065 2.217 10.657 3.843 10.361 4.582Z" fill="#5A6369"/><path d="M61.503 156.218c-.592-3.696-.148-6.652-.296-10.791-.148-3.104-16.135.444-16.283 7.834 0 0 3.257 28.677 1.332 37.693l-.296 1.479s-.444 1.33.592 2.365c.148 0 1.629 1.33 3.701 1.773 2.813.592 6.513.296 8.586-1.773 4.737-5.322 4.737-26.164 2.664-38.58Z" fill="#5A6369"/><path d="M78.378 115.274c-.592 5.765 1.629 13.895 1.333 19.807-.148 6.947-.444 18.329.592 26.163.296 2.07-4.885.739-8.734.739-2.22 0-5.773-.591-6.81-1.773-.295-.444-1.035-1.035-1.331-2.218-.889-3.843-1.333-19.807-2.369-27.197-.444-4.287-.888-7.983-2.517-12.121 0 0-.444-5.469 9.622-5.617 8.586-.148 10.214 2.217 10.214 2.217Z" fill="#687178"/><path d="M80.303 161.24c-3.405-16.851-15.1-9.017-16.431-1.774 0 0 5.477 31.928 2.22 40.649l-.444 1.478s-.592 1.331.296 2.366c.148 0 1.48 1.478 3.405 2.217 2.664 1.034 6.513 1.182 8.733-.592 5.478-4.582 4.737-32.075 2.22-44.344Z" fill="#687178"/><path d="M55.434 49.201c-2.22 11.234-6.957 30.006-10.954 29.267-1.48-.295-4.441-4.73-3.701-8.277 2.072-8.426.74-18.181 2.22-25.129 2.22-11.234 4.441-12.712 8.438-11.825 3.997.74 6.217 4.73 3.997 15.964Z" fill="#000"/><path d="M45.664 78.168c-9.474 4.582-20.576 3.251-25.757 5.616-1.184.592-3.257-5.32-.74-7.538 3.996-3.4 16.727-4.287 25.609-10.347 0 0-.444-.296 1.332 2.808 1.924 2.957 3.997 7.391-.444 9.46Z" fill="#000"/><path d="M68.46 36.782c.889.148 10.659 5.025 14.952 9.903 3.108 3.696.74 12.121.592 13.156-.148 3.547-5.033 25.572-5.922 30.45-.592 4.878 1.333 8.425 1.629 13.894.148 3.548.444 11.826.148 13.304-.888 4.878-14.951 4.139-17.468 3.991-7.845-.592-17.911-6.504-17.023-10.495 1.924-8.869 1.628-31.633 1.036-42.275-.148-2.513-.296-4.435-.592-5.174-1.036-3.99-5.921-24.242.148-29.71 1.628-1.331 4.737-2.218 6.661-2.218 6.662.296 14.655 5.026 15.84 5.174Z" fill="#B2EF0D"/><path d="M49.365 80.238C46.7 77.282 46.7 74.77 46.7 74.77c0 2.808.148 5.913.148 9.165 1.629 2.365 4.293 3.99 7.55 5.764 8.437 4.583 20.28 2.513 23.684 1.035v-.591c.297-1.33.74-3.548 1.333-6.208-1.629 1.034-3.109 1.921-6.514 2.512-9.03 1.774-20.132-2.66-23.536-6.208Z" fill="#7C7C7C"/><path d="M79.118 99.6c-.295-1.625-.74-3.251-.888-4.877-1.184.74-2.664 1.33-5.18 1.922-9.178 1.773-21.02-2.365-24.425-5.913-.74-.74-1.333-1.478-1.629-2.07 0 2.07 0 4.14-.148 6.061 1.629 2.217 4.589 3.695 7.698 5.469 9.325 4.878 22.5.591 24.572-.591Z" fill="#7C7C7C"/><path d="M62.392 32.79c-.149.148-6.218-.147-9.77 3.992-3.701 4.138-2.665 3.547-2.665 3.547l2.517-.887s.888 10.643 2.072 12.121l10.362-6.8.74 4.73s7.846-8.72 6.81-10.938c-2.369-5.469-8.734-7.538-10.066-5.764Z" fill="#0A0C11"/><path d="M59.283 34.12s-4.441 1.477-5.033 7.39c-.592 5.913.444 10.052.444 10.052 0-.444 6.069-5.765 11.102-9.46.592-.444 6.07-4.435 0-7.243l-6.513-.74Z" fill="#FCCB95"/><path d="M68.905 25.545c0 3.252-.592 4.73-.148 8.574.148 1.182.74 2.808.74 4.434 0 2.956-3.109 4.139-4.737 5.026-1.48.739-7.55-1.33-7.106-3.252.296-1.626 0-4.139.445-5.765.592-1.626 2.368-2.66 2.368-4.582l8.438-4.435Z" fill="#FCCB95"/><path d="M51.437 12.247c0 1.774 0 3.4-.444 5.025-.296 1.183.148 4.287-.296 7.539-.296 2.07.444 4.139 1.036 6.06.444 1.626.592 3.4 2.073 4.287 3.404 2.365 7.401 0 10.954-1.183 3.552-1.182 2.96-6.208 4.145-9.164 1.924-5.174.592-12.564-5.181-14.93-2.517-1.034-6.81-1.625-9.474-.59-.889.295-2.96 1.034-2.813 2.956Z" fill="#FED8A7"/><path d="M69.94 5.889c-3.256-2.957-9.917-2.07-15.394.443-2.665 1.183-3.405 5.026-3.405 5.026-.592 1.034 2.369 3.252 3.109 3.547 1.48.887 3.108 1.035 4.885 1.183h3.256c.593 0 1.777-.296 2.369-.296 1.628.148 1.628 2.365 1.924 3.696.148 1.034.592 1.921.592 3.104 0 .591-.888 6.356-.148 6.504 1.185.147 5.773-5.174 6.218-8.13.148-2.07 2.368-9.756-3.405-15.077Z" fill="url(#a)"/><path d="M69.94 25.546c-.74 1.922-2.072 3.105-2.812 2.809-.888-.296-1.628-2.217-.888-3.991.74-1.922 2.813-3.104 3.7-2.809.741.296.889 2.07 0 3.991Z" fill="#FED8A7"/><path d="M88.444 60.728c1.629 11.382 2.517 32.372-1.48 32.815-1.48.148-8.438-3.104-8.734-6.651-.888-8.573-2.812-18.477-3.848-25.72-1.629-11.382.888-13.747 5.033-14.338 3.996-.591 7.401 2.513 9.03 13.894Z" fill="#0A0C11"/><path d="M81.043 97.683c-9.178 5.025-27.385 11.381-29.162 8.129-.592-1.182-2.812-4.877-.148-6.8 4.293-3.251 17.024-6.799 26.497-12.12 2.073-1.182 7.994-1.478 9.622 1.626 1.629 3.252-.148 5.617-6.809 9.165Z" fill="#0A0C11"/><path d="M51.29 11.212s-6.514.296-5.626 1.774c.888 1.478 9.03 6.8 13.323 6.947 4.44.148 10.51-1.33 10.51-1.33l-18.208-7.391Z" fill="#FFDA3E"/><path d="M57.062 16.973c-4.589-1.626-6.957-2.956-8.733-5.321C50.105 4.26 57.653-.617 65.203 1.009c7.845 1.626 12.73 9.312 11.102 16.999-.444 1.921-1.184 3.695-2.22 5.173-2.961 0-13.323-4.878-17.024-6.208Z" fill="#FFBC00"/><path d="M1.403 83.784 28.05 99.157l29.31 7.538L30.86 91.323l-29.458-7.54Z" fill="#002368"/><path d="m7.768 86 24.13 12.86 22.204 6.208-23.537-13.451L7.768 86Z" fill="#fff"/><path d="M50.549 13.867C54.102 2.633 62.39 3.52 62.39 3.52l3.553.443c-9.918 2.218-11.694 9.313-11.99 11.678-1.333-.591-2.517-1.183-3.405-1.774Z" fill="#FFDA3E"/><path d="M19.463 76.69c-.444-.148-.74-.592-1.185-.74-1.48-.59-1.776 1.626-2.368 2.513-.296.592-.74 1.183-1.184 1.774-.444.444 3.552 3.104 4.293 2.956.74 0 1.628-1.034 1.924-1.626.444-.59.888-3.695-1.48-4.877Z" fill="#FED8A7"/><path d="M15.022 74.326c-.296-.295-1.036-.147-1.332-.147-.74 0-1.333-.148-2.073-.296-1.184-.296-1.776-.591-2.812 0-.74.148-1.185.296-1.925.443-.74.148-1.036.296-1.776.887-.74.74-1.48 1.33-2.369 2.07-.296.147-1.184.739-1.332 1.182-.296 1.33 2.517.296 2.96.148.74-.444 1.481-1.035 2.221-1.183 1.332-.59 2.96-.295 4.145-.147.74.147 1.332.443 2.072.295.889-.148 2.073-.739 2.961-1.035l-.74-2.217Z" fill="#FCCB95"/><path d="M18.13 71.073.812 80.977l17.32-9.904Z" fill="#FCCB95"/><path d="M2.143 82.897c-.148 0-.444 0-.592-.296-.148-.147-.148-.591.148-.739l15.84-12.12c.295-.148.74-.148.888.147.148.296.148.592-.148.887L2.439 82.75c-.148.148-.148.148-.296.148Z" fill="#231F20"/><path d="M19.61 80.975c.297 1.035-7.549-4.286-7.697-4.138l-5.329 1.182c-.592.591-1.776 1.478-1.184 2.217.296.591.888.591 1.48.74-.296.59-.592 1.33-.148 1.773.444.296 1.036.148 1.629.148-.148.591-.296 1.035.148 1.33.592.444 1.924 0 2.516-.295 1.628-.444 10.954.886 8.586-2.957Z" fill="#FCCB95"/><path d="M19.907 80.53c-.444.886-8.734-2.218-8.586-3.253.296-1.626 1.925-2.66 3.109-3.104 1.48-.591 3.553 1.035 4.737 2.07.592.443.888 1.625.74 2.66-.148 1.626 0 1.626 0 1.626Z" fill="#FED8A7"/><path d="M11.321 75.805c-.592.59-3.405.886-4.145.886-1.184 0-3.108 1.626-1.332 2.366 1.184.59 2.517-.296 3.849-.444 1.036-.296 1.184-.148 1.776.591.592.592 1.184 1.183 1.925 1.774 1.332 1.035 2.96 1.33 4.737.74.592-.296 1.776-.74 2.072-1.331.888-2.07-1.48-2.956-2.96-3.4-1.037-.295-1.629-.591-2.517-1.182-1.184-.592-2.369-.887-3.405 0ZM54.102 101.524c-1.333-1.33-4.293-1.773-5.033-1.773-1.333-.148-2.813-1.183-4.145-.296-.592.591-1.036.887-1.925.887-.888.148-.592.443 0 .887.593.443 1.037.739 1.777.591.74-.443 2.072-.591 2.368.739.148 1.33-1.036 1.183-1.924 1.626-1.48.739-2.369.887-3.257 2.217-.444.739.592 1.922 1.925 1.478 0 .296-.444.296-.296.739.74.887 1.924 1.035 2.664.444-1.036 1.33 1.332 1.921 2.22.887 0 1.182 2.369.739 2.961.443 1.184-.739 2.96-2.217 3.7-3.104.593-.887.889-3.104.297-3.991-.296-.443-.888-1.478-1.332-1.774Z" fill="#FED8A7"/><defs><linearGradient id="a" x1="74.028" y1="19.135" x2="51.139" y2="11.119" gradientUnits="userSpaceOnUse"><stop stop-color="#231F20"/><stop offset=".09" stop-color="#231F20"/><stop offset="1" stop-color="#231F20"/></linearGradient></defs></svg>