<svg width="20" height="19" fill="none" xmlns="http://www.w3.org/2000/svg"><path d="M4.453 7.533H2.987A6.54 6.54 0 0 1 9.5 1.484a6.559 6.559 0 0 1 6.128 4.266.742.742 0 0 0 1.392-.515 7.995 7.995 0 0 0-2.89-3.763A7.964 7.964 0 0 0 9.5 0a7.963 7.963 0 0 0-5.668 2.348 7.961 7.961 0 0 0-2.347 5.584A2.97 2.97 0 0 0 0 10.502v2.523a2.972 2.972 0 0 0 2.969 2.97h1.484c.41 0 .742-.333.742-.743V8.275a.742.742 0 0 0-.742-.742Zm-.742 6.977h-.742a1.486 1.486 0 0 1-1.485-1.485v-2.523c0-.819.666-1.484 1.485-1.484h.742v5.492Z" fill="#EECE21"/><path d="M16.082 7.533h-1.485a.742.742 0 0 0-.742.742v7.757c0 .409-.333.741-.742.741h-2.264v.024a1.484 1.484 0 1 0 0 1.437v.024h2.264a2.23 2.23 0 0 0 2.227-2.227v-.037h.742a2.972 2.972 0 0 0 2.968-2.969v-2.523a2.972 2.972 0 0 0-2.968-2.969Zm1.484 5.492c0 .819-.666 1.485-1.484 1.485h-.742V9.018h.742c.818 0 1.484.665 1.484 1.484v2.523Z" fill="#EECE21"/></svg>