<svg width="19" height="19" fill="none" xmlns="http://www.w3.org/2000/svg"><path d="M9.013 0c2.449 0 2.755.009 3.715.054s1.614.196 2.189.42a4.395 4.395 0 0 1 1.597 1.038c.458.451.813.996 1.04 1.598.222.574.373 1.228.418 2.188.043.96.054 1.266.054 3.715s-.009 2.755-.054 3.715-.196 1.614-.419 2.189a4.4 4.4 0 0 1-1.04 1.597 4.43 4.43 0 0 1-1.596 1.04c-.574.222-1.229.373-2.189.418-.96.043-1.266.054-3.715.054s-2.754-.009-3.715-.054c-.96-.045-1.613-.196-2.188-.419a4.408 4.408 0 0 1-1.598-1.04 4.42 4.42 0 0 1-1.039-1.596C.25 14.343.1 13.688.054 12.728.012 11.768 0 11.462 0 9.013S.009 6.26.054 5.298C.1 4.338.25 3.685.474 3.11a4.398 4.398 0 0 1 1.038-1.598C1.962 1.054 2.508.7 3.11.473 3.685.25 4.337.1 5.298.054 6.258.012 6.564 0 9.013 0Zm0 4.507a4.507 4.507 0 1 0 0 9.013 4.507 4.507 0 0 0 0-9.013Zm5.859-.226a1.127 1.127 0 1 0-2.254 0 1.127 1.127 0 0 0 2.254 0ZM9.013 6.31a2.704 2.704 0 1 1 0 5.408 2.704 2.704 0 0 1 0-5.408Z" fill="url(#a)"/><defs><linearGradient id="a" x1="0" y1="9.013" x2="18.026" y2="9.013" gradientUnits="userSpaceOnUse"><stop stop-color="#EECE21"/><stop offset="1" stop-color="#EECE21"/></linearGradient></defs></svg>