<svg width="25" height="25" fill="none" xmlns="http://www.w3.org/2000/svg"><path d="m13.308.358.001 3.367a8.8 8.8 0 0 1 7.628 7.629h3.366v2.199h-3.366a8.8 8.8 0 0 1-7.628 7.628v3.367h-2.2v-3.366a8.801 8.801 0 0 1-7.629-7.628l-3.366-.001v-2.2H3.48a8.8 8.8 0 0 1 7.629-7.628V.358h2.2Zm-1.1 9.896a2.2 2.2 0 1 0 0 4.399 2.2 2.2 0 0 0 0-4.399Z" fill="url(#a)"/><defs><linearGradient id="a" x1=".114" y1="12.453" x2="24.303" y2="12.453" gradientUnits="userSpaceOnUse"><stop stop-color="#283745"/><stop offset="1" stop-color="#152331"/></linearGradient></defs></svg>