<svg width="19" height="14" fill="none" xmlns="http://www.w3.org/2000/svg"><path d="M18.833.955 13.07 6.68l5.763 5.725A1.65 1.65 0 0 0 19 11.69V1.67a1.65 1.65 0 0 0-.167-.715ZM17.33 0H1.67a1.65 1.65 0 0 0-.716.167L8.32 7.495c.651.651 1.71.651 2.362 0L18.046.167A1.65 1.65 0 0 0 17.33 0ZM.167.955A1.65 1.65 0 0 0 0 1.67v10.02c0 .257.063.497.167.715L5.93 6.68.167.955Z" fill="#EECE21"/><path d="m12.283 7.467-.815.815a2.786 2.786 0 0 1-3.936 0l-.815-.815-5.763 5.725c.218.104.459.167.716.167h15.66c.257 0 .498-.063.716-.167l-5.763-5.725Z" fill="#EECE21"/></svg>