<svg width="21" height="21" fill="none" xmlns="http://www.w3.org/2000/svg"><path d="M20.73 15.107v3.888a1.099 1.099 0 0 1-1.023 1.098c-.48.033-.873.05-1.177.05C8.814 20.143.937 12.267.937 2.55c0-.303.017-.696.051-1.176A1.1 1.1 0 0 1 2.085.35h3.888a.55.55 0 0 1 .548.495c.025.253.048.454.07.607a15.284 15.284 0 0 0 1.329 4.4.501.501 0 0 1-.162.623L5.385 8.17a14.346 14.346 0 0 0 7.526 7.526l1.693-2.369a.507.507 0 0 1 .63-.164c1.39.661 2.874 1.108 4.398 1.325.153.022.354.046.605.07a.55.55 0 0 1 .493.548Z" fill="url(#a)"/><defs><linearGradient id="a" x1=".938" y1="10.247" x2="20.73" y2="10.247" gradientUnits="userSpaceOnUse"><stop stop-color="#283745"/><stop offset="1" stop-color="#152331"/></linearGradient></defs></svg>