<svg width="19" height="19" fill="none" xmlns="http://www.w3.org/2000/svg"><path d="M9.013 18.026A9.013 9.013 0 0 1 0 9.013 9.013 9.013 0 0 1 9.013 0a9.013 9.013 0 0 1 9.013 9.013 9.013 9.013 0 0 1-9.013 9.013ZM6.21 10.068l.012-.007.784 2.587c.1.28.24.33.408.308.17-.023.259-.114.37-.22l1.07-1.035 2.299 1.702c.42.231.722.111.826-.39l1.494-7.05c.165-.656-.124-.92-.633-.71L4.068 8.642c-.599.24-.595.575-.109.724l2.251.703v-.001Z" fill="url(#a)"/><defs><linearGradient id="a" x1="0" y1="9.013" x2="18.026" y2="9.013" gradientUnits="userSpaceOnUse"><stop stop-color="#EECE21"/><stop offset="1" stop-color="#EECE21"/></linearGradient></defs></svg>