<svg width="161" height="153" fill="none" xmlns="http://www.w3.org/2000/svg"><path d="M28.297 57.068s-.188 2.597-1.342 3.117c-1.177.519-3.249-2.007-3.249-2.007l4.59-1.11Z" fill="#FED8A7"/><path d="M18.362 107.713s-2.213 3.164-1.13 5.927c.26.637 2.637 2.29 3.225 2.267.613-.024.871.047 1.413.59.565.543.447.779 1.318 1.464.871.708 5.015 2.479 8.099.307 0 0 .14-1.346-.024-1.771-.165-.425-2.307-2.29-3.343-2.81-1.036-.519-3.79-3.565-4.026-4.203-.258-.637-1.294-1.015-1.294-1.015s-1.907-2.314-4.238-.756ZM7.345 113.806s-2.213 3.163-1.13 5.926c.259.637 2.637 2.29 3.225 2.267.612-.024.871.047 1.413.59.565.543.447.779 1.318 1.464.87.708 5.014 2.479 8.098.307 0 0 .141-1.346-.023-1.771-.165-.425-2.331-2.29-3.367-2.81-1.036-.519-3.79-3.565-4.025-4.203-.26-.637-1.295-1.015-1.295-1.015s-1.86-2.337-4.214-.755Z" fill="#1E160D"/><path d="M12.642 64.458c.918 3.188.918 6.47 1.577 9.704.8 3.849.424 8.453 2.496 11.924.635 1.039 2.518 2.692 4.66 2.314 1.248-.213 3.461-.803 3.65-1.677.282-1.44.306-2.573.188-3.376-.212-1.511-.942-10.507-1.083-13.411-.118-2.385-.282-3.849-.541-6.47 0 0 .47-2.904-5.132-1.629-5.58 1.275-5.956 2.149-5.815 2.621Z" fill="#5A6369"/><path d="M15.914 88.022c.33-2.101.094-3.754.165-6.092.047-1.723 9.087.236 9.204 4.416 0 0-1.86 16.197-.73 21.344l.142.85s.259.779-.353 1.322c-.047.024-.918.756-2.048 1.016-1.601.354-3.72.165-4.803-1.039-2.684-2.975-2.707-14.78-1.577-21.817Z" fill="#5A6369"/><path d="M6.427 64.86c.353 3.282-.895 7.886-.777 11.191.118 3.92.259 10.366-.33 14.78-.164 1.205 2.778.473 4.944.473 1.248 0 3.296-.354 3.86-1.015.213-.236.59-.567.754-1.275.471-2.125.73-11.168 1.248-15.418.282-2.361.518-4.51 1.412-6.824 0 0 .283-3.14-5.461-3.187-4.756-.071-5.65 1.275-5.65 1.275Z" fill="#687178"/><path d="M5.32 90.832c1.907-9.515 8.522-5.124 9.229-1.015 0 0-3.06 18.062-1.225 22.997l.26.826s.376.732-.165 1.346c-.048.047-.8.874-1.884 1.275-1.53.59-3.649.685-4.92-.354-3.084-2.55-2.707-18.11-1.295-25.075Z" fill="#687178"/><path d="M19.328 27.436c1.247 6.399 3.954 16.977 6.215 16.528.847-.165 2.518-2.644 2.048-4.675-1.107-4.77-.424-10.224-1.201-14.238-1.248-6.398-2.519-7.177-4.779-6.729-2.26.473-3.531 2.716-2.284 9.114Z" fill="#000"/><path d="M24.86 43.87c5.32 2.573 11.606 1.864 14.478 3.14.706.306 1.883-3 .47-4.25-2.212-1.96-9.392-2.456-14.454-5.88 0 0 .283-.189-.777 1.559-1.06 1.77-2.19 4.226.283 5.43Z" fill="#000"/><path d="M12.006 20.423c-.518.118-5.98 2.857-8.404 5.62-1.79 2.03-.4 6.8-.377 7.437.07 2.054 2.872 14.474 3.296 17.236.424 2.763-.706 4.77-.847 7.816-.095 1.983-.236 6.658-.095 7.508.518 2.786 8.428 2.337 9.817 2.267 4.473-.26 10.1-3.66 9.652-5.856-1.083-5.076-.965-17.968-.588-23.965.094-1.44.212-2.48.306-2.928.565-2.243 3.343-13.765-.094-16.811-.872-.78-2.637-1.299-3.72-1.228-3.814.165-8.31 2.786-8.946 2.904Z" fill="#B2EF0D"/><path d="M22.788 44.979c1.53-1.63 1.53-3.07 1.53-3.07a171.81 171.81 0 0 0-.094 5.171c-.942 1.37-2.448 2.29-4.308 3.282-4.779 2.597-11.465 1.393-13.348.567-.023-.118-.023-.213-.023-.33a99.363 99.363 0 0 0-.683-3.519c.918.59 1.718 1.11 3.625 1.488 5.109.991 11.37-1.535 13.301-3.59Z" fill="#7C7C7C"/><path d="M6.003 55.982c.189-.968.4-1.865.518-2.763.706.425 1.507.78 2.943 1.063 5.132 1.015 11.865-1.299 13.771-3.377.424-.448.707-.85.942-1.204 0 1.157.024 2.314.07 3.447-1.012 1.299-2.66 2.149-4.425 3.117-5.18 2.833-12.665.354-13.819-.283Z" fill="#7C7C7C"/><path d="M15.42 18.133c.094.095 3.484-.07 5.532 2.267 2.048 2.338 1.483 1.983 1.483 1.983L21 21.911s-.518 6.021-1.2 6.871l-5.792-3.825-.447 2.668s-4.45-4.935-3.86-6.21c1.435-3.093 4.966-4.226 5.72-3.282Z" fill="#0A0C11"/><path d="M17.162 18.888s2.495.85 2.848 4.203c.353 3.353-.235 5.69-.235 5.69-.024-.236-3.46-3.234-6.286-5.336-.306-.236-3.413-2.55 0-4.132l3.673-.425Z" fill="#FCCB95"/><path d="M11.794 14.096c0 1.794.306 2.715.047 4.887-.07.685-.4 1.558-.4 2.526 0 1.63 1.79 2.338 2.684 2.81.824.425 4.214-.708 4.026-1.865-.165-.945.047-2.314-.283-3.235-.377-1.015-1.318-1.582-1.318-2.644l-4.756-2.48Z" fill="#FCCB95"/><path d="M21.634 6.493c-.023 1.015 0 1.889.236 2.88.165.685-.094 2.432.141 4.274.165 1.157-.235 2.338-.541 3.447-.26.85-.377 1.89-1.177 2.432-1.954 1.346-4.167-.047-6.168-.732-1.978-.66-1.695-3.541-2.33-5.17-1.154-2.952-.377-7.107 2.848-8.43 1.46-.59 3.837-.897 5.344-.354.518.189 1.671.614 1.648 1.653Z" fill="#FED8A7"/><path d="M11.182 2.928c1.86-1.7 5.603-1.157 8.687.236 1.53.708 1.907 2.81 1.907 2.81.353.59-1.319 1.841-1.742 2.077-.871.473-1.79.59-2.778.661a9.278 9.278 0 0 1-1.813-.023c-.377-.024-.965-.19-1.318-.142-.918.095-.918 1.322-1.083 2.054-.141.614-.33 1.086-.377 1.747-.023.307.495 3.613.047 3.707-.659.119-3.248-2.927-3.413-4.627-.118-1.11-1.413-5.502 1.883-8.5Z" fill="url(#a)"/><path d="M11.135 14.049c.447 1.062 1.154 1.77 1.624 1.582.471-.19.966-1.205.518-2.267-.423-1.063-1.6-1.771-2.071-1.582-.471.189-.495 1.204-.07 2.267Z" fill="#FED8A7"/><path d="M.777 33.93c-.895 6.445-1.436 18.298.847 18.605.848.118 4.709-1.724 4.944-3.802.495-4.863 1.554-10.483 2.119-14.52.894-6.446-.542-7.816-2.802-8.123-2.283-.307-4.237 1.393-5.108 7.84Z" fill="#0A0C11"/><path d="M4.897 54.872c5.202 2.81 15.466 6.422 16.385 4.604.353-.684 1.577-2.715.07-3.872-2.354-1.794-9.51-3.778-14.807-6.847-1.154-.661-4.473-.874-5.415.944-.918 1.818.07 3.188 3.767 5.171Z" fill="#0A0C11"/><path d="M21.729 5.95s3.625.165 3.13 1.039c-.494.85-5.06 3.872-7.556 3.943-2.472.07-5.909-.708-5.909-.708L21.729 5.95Z" fill="#FFDA3E"/><path d="M18.433 9.208c2.59-.944 3.884-1.676 4.92-2.975-1.036-4.273-5.226-6.965-9.51-6.068-4.38.945-7.18 5.242-6.24 9.61a8.432 8.432 0 0 0 1.272 2.975c1.6-.047 7.463-2.786 9.558-3.542Z" fill="#FFBC00"/><path d="m49.767 47.033-14.996 8.69-16.526 4.226 14.995-8.69 16.527-4.226Z" fill="#002368"/><path d="m46.188 48.261-13.536 7.296-12.571 3.541 13.324-7.65 12.783-3.187Z" fill="#fff"/><path d="M22.082 7.438c-1.978-6.328-6.71-5.832-6.71-5.832l-1.93.26c5.603 1.25 6.592 5.241 6.756 6.61.777-.33 1.366-.66 1.884-1.038Z" fill="#FFDA3E"/><path d="M39.597 43.019c.259-.118.447-.33.706-.449.871-.377.989.898 1.318 1.464.189.33.424.661.683.945.259.283-2 1.723-2.401 1.7-.377-.024-.895-.614-1.107-.921-.282-.33-.517-2.078.8-2.74Z" fill="#FED8A7"/><path d="M42.163 41.673c.141-.141.565-.07.777-.094.4-.047.753-.07 1.153-.165.636-.142.989-.307 1.601-.024.353.166.636.236 1.012.307.471.071.612.213.966.496.447.378.87.78 1.318 1.133.141.118.683.449.73.638.165.779-1.39.189-1.648.047-.424-.236-.824-.543-1.248-.685-.683-.236-1.6-.07-2.283.047-.4.071-.73.213-1.13.119-.565-.118-1.178-.378-1.695-.567l.447-1.252ZM40.374 39.784l9.722 5.643-9.722-5.643Z" fill="#FCCB95"/><path d="M49.367 46.514a.306.306 0 0 0 .306-.118c.117-.142.07-.355-.071-.449l-8.946-6.824c-.141-.118-.353-.07-.47.071-.118.142-.071.354.07.449l8.946 6.823c.07.024.117.048.165.048Z" fill="#231F20"/><path d="M39.573 45.428c-.212.543 4.261-2.432 4.332-2.338l3.013.685c.306.307.965.826.66 1.299-.142.236-.519.306-.872.306.189.355.353.732.071.992-.188.189-.541.165-.871.095.118.306.141.59-.094.779-.33.26-1.06-.047-1.413-.142-.918-.236-6.215.472-4.826-1.676Z" fill="#FCCB95"/><path d="M39.385 45.168c.212.52 4.92-1.228 4.802-1.818-.164-.898-1.083-1.511-1.695-1.771-.894-.354-2.024.543-2.683 1.133-.353.307-.495.897-.448 1.535.095.944.024.92.024.92Z" fill="#FED8A7"/><path d="M44.258 42.5c.377.283 1.93.472 2.33.472.66.024 1.766.897.777 1.37-.753.354-1.506-.142-2.212-.284-.589-.118-.683-.07-1.036.355-.306.354-.66.708-1.036.991-.777.567-1.719.756-2.637.425-.353-.118-1.06-.378-1.224-.732-.494-1.133.871-1.653 1.695-1.889a4.67 4.67 0 0 0 1.436-.66c.565-.426 1.318-.52 1.907-.048ZM20.128 57.044c.706-.731 2.378-.968 2.778-1.015.777-.118 1.6-.685 2.33-.118.377.283.66.472 1.107.52.47.047.33.26 0 .472-.306.212-.612.425-.965.283-.471-.189-1.224-.307-1.319.472-.094.756.518.661 1.036.945.8.448 1.342.472 1.813 1.275.282.401-.353 1.039-1.107.803.048.094.33.118.189.377a1.058 1.058 0 0 1-1.507.26c.589.756-.777 1.039-1.271.472.047.661-1.295.402-1.648.213-.636-.33-1.6-1.157-2.025-1.724-.353-.448-.494-1.7-.164-2.267.164-.212.517-.802.753-.968Z" fill="#FED8A7"/><path d="M113.07 148.301c0-.071-.024-.141-.024-.212 0-.071-.023-.142-.047-.236 0-.048-.023-.095-.023-.166 0-.047-.024-.094-.047-.141-.024-.071-.024-.142-.047-.213 0-.047-.024-.071-.048-.118-.023-.071-.047-.142-.07-.236 0-.024-.024-.071-.024-.094-.047-.095-.07-.213-.117-.307 0-.024 0-.024-.024-.048l-.141-.283c-.024-.024-.024-.047-.047-.094-.047-.095-.094-.166-.142-.26 0-.024-.023-.024-.023-.047-.047-.095-.118-.189-.188-.284-.024-.023-.048-.047-.048-.071l-.141-.212c-.023-.047-.047-.071-.07-.118a.704.704 0 0 1-.118-.165c-.047-.048-.071-.095-.118-.142l-.117-.118c-.071-.071-.118-.142-.189-.213l-.118-.118-.094-.094c-.047-.047-.117-.095-.164-.142-.024-.023-.071-.047-.095-.071-.07-.047-.117-.094-.188-.141a.332.332 0 0 0-.094-.071 1.687 1.687 0 0 0-.283-.165c-.117-.071-.235-.118-.353-.189-.047-.024-.07-.024-.117-.047a26.419 26.419 0 0 0-.212-.071c-.047-.024-.095-.024-.118-.048-.047 0-.071-.023-.118-.023s-.094-.024-.141-.024H108.856c-.094 0-.165.024-.235.024h-.024c-.071.023-.118.023-.165.047-.023 0-.023 0-.047.024a.675.675 0 0 0-.188.094l1.883-1.11h.024l.141-.07h.023c.024 0 .048-.024.048-.024s.047-.024.07-.024c0 0 .047-.023.071-.023h.07c.047 0 .118-.024.165-.024H111.069s.07.024.094.024c.047 0 .071.023.118.023.023 0 .047 0 .07.024 0 0 .047.024.071.024l.212.07c.023 0 .047.024.07.024.024 0 .024.024.048.024.117.047.235.118.353.189.094.047.188.118.282.165.024.023.047.047.094.071.071.047.118.094.189.141.023.024.07.048.094.071.047.047.118.095.165.142l.094.094c.023.024.047.047.07.047l.071.071c.071.071.118.142.188.213l.071.071c.024.023.024.047.047.047.047.047.071.094.118.142a.317.317 0 0 1 .07.094c.024.024.047.047.047.071a.475.475 0 0 1 .071.118c.024.023.047.047.047.071.024.047.047.094.094.118.024.023.047.047.047.094l.024.024c.047.071.094.165.141.236.024.024.024.047.024.047.023.047.07.118.094.165.023.024.023.048.047.071.024.024.024.047.047.095.024.023.024.047.047.071.024.07.071.141.094.212 0 .024 0 .024.024.047.047.095.071.166.118.26 0 .024 0 .024.023.047 0 .024.024.071.024.095.023.047.023.094.047.118 0 .023.023.071.023.094.024.047.024.071.047.118 0 .024.024.047.024.071a.306.306 0 0 1 .023.142c.024.047.024.094.048.141 0 .024 0 .024.023.048 0 .023 0 .07.024.094.023.071.023.142.047.236v.071c0 .047 0 .094.023.142v.094c0 .118.024.213.024.307 0 .779-.236 1.369-.659 1.7a.52.52 0 0 1-.189.118l-1.883 1.11c.518-.307.824-.945.824-1.842 0-.094 0-.212-.024-.307 0 .071 0 .047-.023 0Z" fill="#231F20"/><path d="M110.245 143.791c-1.577-.921-2.849-.189-2.872 1.629 0 1.818 1.271 4.038 2.848 4.935 1.578.921 2.849.189 2.872-1.629.024-1.818-1.271-4.038-2.848-4.935Z" fill="#2B2B2B"/><path d="M109.279 150.544c0-.071-.023-.142-.023-.212 0-.071-.024-.142-.047-.236 0-.048-.024-.095-.024-.166a.327.327 0 0 0-.047-.141c-.023-.071-.023-.142-.047-.213 0-.047-.023-.071-.047-.118a3.043 3.043 0 0 1-.071-.236c0-.024-.023-.071-.023-.095-.047-.094-.071-.212-.118-.306 0-.024 0-.024-.023-.048l-.142-.283c-.023-.024-.023-.047-.047-.094-.047-.095-.094-.166-.141-.26 0-.024-.024-.024-.024-.047a1.934 1.934 0 0 0-.188-.284c-.023-.023-.047-.047-.047-.071l-.141-.212c-.024-.047-.047-.071-.071-.118a.735.735 0 0 1-.118-.165c-.047-.048-.07-.095-.117-.142l-.118-.118c-.071-.071-.118-.142-.188-.213l-.118-.118-.094-.094c-.047-.047-.118-.095-.165-.142-.023-.023-.071-.047-.094-.071-.071-.047-.118-.094-.188-.141a.32.32 0 0 0-.095-.071 1.72 1.72 0 0 0-.282-.165c-.118-.071-.235-.118-.353-.189-.047-.024-.071-.024-.118-.048l-.212-.07c-.047-.024-.094-.024-.117-.048-.048 0-.071-.023-.071-.023-.094-.024-.141-.024-.141-.024a.291.291 0 0 1-.118-.023h-.235s-.165.023-.236.023l-.047.024c-.047.023-.118.023-.165.047l-.047.024a.69.69 0 0 0-.188.094l1.883-1.11h.024l.141-.07h.023s.024 0 .048-.024c.023 0 .047-.024.047-.024.047-.023.07-.023.117-.023 0 0 .024 0 .047-.024h.024c.047 0 .118-.024.165-.024H107.302l.071.024c.047 0 .07.024.117.024l.071.023c.023 0 .047.024.071.024l.211.071c.024 0 .047.023.071.023 0 0 .024.024.047.024.118.047.236.118.353.189.094.047.189.118.283.165a.318.318 0 0 0 .094.071c.071.047.118.094.188.142.024.023.071.047.094.07.047.048.118.095.165.142l.094.095c.024.023.047.047.071.047l.071.071c.07.07.117.141.188.212l.071.071c.023.024.023.047.047.047.047.047.07.095.117.142a.318.318 0 0 1 .071.094c.023.024.047.048.047.071.024.024.047.071.071.118.023.024.047.047.047.071.023.047.047.094.094.118.023.024.047.047.047.095 0 .023.024.023.024.023.047.071.094.165.141.236v.024c0 .023.023.023.023.047.024.047.071.118.094.165.024.024.024.048.048.071.023.024.023.047.047.095.023.023.023.047.047.07.023.071.07.142.094.213 0 .024 0 .024.023.047.048.095.071.165.095.26 0 .024 0 .024.023.047 0 .024.024.071.024.095.023.047.023.094.047.118 0 .023.023.07.023.094.024.047.024.071.047.118 0 .024.024.047.024.071a.306.306 0 0 1 .023.142c.024.047.024.094.048.141 0 .024 0 .024.023.048 0 .023 0 .07.024.094.023.071.023.142.047.236v.071c0 .047 0 .094.023.142v.094c0 .118.024.213.024.307 0 .779-.236 1.369-.659 1.7a.52.52 0 0 1-.189.118l-1.883 1.11c.518-.307.824-.945.824-1.842 0-.094 0-.212-.024-.307 0 .047 0 .071 0 0Z" fill="#231F20"/><path d="M106.455 146.035c-1.578-.921-2.849-.189-2.872 1.629 0 1.818 1.271 4.037 2.848 4.934 1.577.921 2.849.189 2.872-1.629 0-1.818-1.271-4.037-2.848-4.934Z" fill="#2B2B2B"/><path d="M156.009 123.439c0-.071-.023-.142-.023-.213 0-.07-.024-.141-.047-.236 0-.047-.024-.094-.024-.165a.336.336 0 0 0-.047-.142c-.023-.07-.023-.141-.047-.212 0-.047-.024-.071-.047-.118a3.043 3.043 0 0 1-.071-.236c0-.024-.023-.071-.023-.095-.047-.094-.071-.212-.118-.307 0-.023 0-.023-.024-.047l-.141-.283c-.023.023-.023-.024-.047-.047-.047-.095-.094-.166-.141-.26 0-.024-.024-.024-.024-.047a1.934 1.934 0 0 0-.188-.284c-.024-.023-.047-.047-.047-.071l-.141-.212c-.024-.047-.047-.071-.071-.118a.735.735 0 0 1-.118-.165c-.047-.048-.07-.095-.117-.142l-.118-.118c-.071-.071-.118-.142-.188-.213l-.118-.118-.094-.094c-.047-.047-.118-.095-.165-.142-.024-.023-.071-.047-.094-.071a1.29 1.29 0 0 0-.189-.141.302.302 0 0 0-.094-.071c-.094-.071-.188-.118-.282-.165-.118-.071-.236-.118-.353-.189-.047-.024-.071-.024-.118-.048l-.212-.07c-.047-.024-.094-.024-.118-.024-.047 0-.07-.024-.117-.024s-.094-.023-.142-.023H151.795c-.094 0-.164.023-.235.023h-.024c-.07.024-.117.024-.164.048-.024 0-.024 0-.047.023a.699.699 0 0 0-.189.095l1.884-1.11h.023l.141-.071h.024c.023 0 .047-.023.047-.023s.047-.024.071-.024c.023 0 .047-.024.047-.024.047 0 .07-.023.07-.023h.047c.047 0 .118-.024.165-.024H154.032a.1.1 0 0 1 .07.024c.071 0 .095.023.095.023.07.024.07.024.094.024l.07.024.212.07c.024 0 .047.024.071.024.023 0 .023.024.047.024.118.047.235.118.353.188.094.048.188.119.283.166a.336.336 0 0 0 .094.071c.07.047.117.094.188.141.024.024.071.047.094.071.047.047.118.095.165.142l.094.094c.024.024.047.047.071.047l.07.071c.071.071.118.142.189.213l.07.071c.024.023.024.047.048.047.047.047.07.094.117.141a.339.339 0 0 1 .071.095c.023.024.047.047.047.071.023.023.047.071.071.118.023.023.047.047.047.071.023.047.047.094.094.118.023.023.047.047.047.094 0 .024.023.024.023.024.048.071.095.165.142.236.023.023.023.047.023.047.024.047.071.118.094.165.024.024.024.048.047.071.024.024.024.047.048.095.023.023.023.047.047.07.023.071.07.142.094.213 0 .024 0 .024.023.047.047.095.071.165.118.26 0 .024 0 .024.024.047 0 .024.023.071.023.095.024.047.024.094.047.118 0 .023.024.07.024.094.023.047.023.071.047.118 0 .024.023.047.023.071 0 .047.024.094.024.142.023.047.023.094.047.141 0 .024 0 .024.024.048 0 .023 0 .07.023.094.024.071.024.142.047.236v.071c0 .047 0 .094.024.142v.094c0 .118.023.213.023.307 0 .779-.235 1.369-.659 1.7a.524.524 0 0 1-.188.118l-1.884 1.11c.518-.307.824-.945.824-1.842 0-.094 0-.212-.023-.307-.024.024-.024-.023-.024-.047Z" fill="#231F20"/><path d="M153.184 118.906c-1.577-.921-2.848-.189-2.872 1.629 0 1.818 1.271 4.037 2.849 4.934 1.577.921 2.848.189 2.872-1.629 0-1.794-1.271-4.014-2.849-4.934Z" fill="#2B2B2B"/><path d="M152.196 125.682c0-.071-.024-.142-.024-.213 0-.07-.023-.141-.047-.236 0-.047-.024-.094-.024-.165a.336.336 0 0 0-.047-.142c-.023-.071-.023-.141-.047-.212 0-.047-.023-.071-.047-.118-.023-.071-.047-.142-.07-.236 0-.024-.024-.071-.024-.095-.047-.094-.071-.212-.118-.307 0-.023 0-.023-.023-.047l-.141-.283c-.024-.024-.024-.048-.048-.095-.047-.094-.094-.165-.141-.259 0-.024-.023-.024-.023-.048a1.936 1.936 0 0 0-.189-.283c-.023-.024-.047-.047-.047-.071l-.141-.212c-.024-.048-.047-.071-.071-.118a.703.703 0 0 1-.117-.166c-.047-.047-.071-.094-.118-.141l-.118-.118c-.07-.071-.117-.142-.188-.213l-.118-.118a4.166 4.166 0 0 0-.094-.094c-.047-.048-.118-.095-.165-.142-.023-.024-.07-.047-.094-.071-.071-.047-.118-.094-.188-.142-.024-.023-.047-.047-.094-.07-.095-.071-.189-.118-.283-.166-.118-.071-.235-.118-.353-.189-.047-.023-.071-.023-.118-.047l-.212-.071c-.047-.023-.094-.023-.117-.047-.047 0-.071-.023-.071-.023-.094-.024-.141-.024-.188-.024H148.005c-.094 0-.165.024-.235.024 0 0-.024 0-.047.023-.047.024-.118.024-.165.047l-.047.024a.704.704 0 0 0-.188.094l1.883-1.109h.023l.142-.071h.023l.047-.024c.024 0 .047-.023.071-.023.023 0 .047-.024.07-.024H149.653c.047 0 .118-.024.118-.024h.471l.07.024c.047 0 .071.024.118.024l.071.023c.023 0 .047.024.07.024l.212.071c.024 0 .047.023.071.023 0 0 .023.024.047.024.118.047.235.118.353.189.094.047.188.118.282.165a.339.339 0 0 0 .095.071c.07.047.117.094.188.142.023.023.071.047.094.07.047.048.118.095.165.142l.094.095c.024.023.047.047.071.047l.07.071c.071.07.118.141.189.212l.07.071c.024.024.024.047.047.047.047.047.071.095.118.142a.318.318 0 0 1 .071.094c.023.024.047.047.047.071a.53.53 0 0 1 .07.118c.024.024.047.047.047.071.024.047.048.094.095.118.023.024.047.047.047.094l.023.024c.047.071.094.165.141.236v.024c0 .023.024.023.024.047.024.047.071.118.094.165.024.024.024.048.047.071.024.024.024.047.047.095.024.023.024.047.047.07.024.071.071.142.095.213 0 .024 0 .024.023.047.047.095.071.165.094.26 0 .023 0 .023.024.047 0 .024.023.071.023.095.024.047.024.094.047.118 0 .023.024.07.024.094.024.047.024.071.047.118 0 .024.024.047.024.071 0 .047.023.094.023.142.024.047.024.094.047.141 0 .024 0 .024.024.047 0 .024 0 .071.023.095.024.071.024.142.047.236v.071c0 .047 0 .094.024.142v.094c0 .118.024.212.024.307 0 .779-.236 1.369-.66 1.7a.515.515 0 0 1-.188.118l-1.883 1.11c.518-.307.824-.945.824-1.842 0-.094 0-.212-.024-.307 0 .024-.023-.024-.023-.047Z" fill="#231F20"/><path d="M149.371 121.149c-1.578-.921-2.849-.189-2.872 1.629 0 1.818 1.271 4.037 2.848 4.935 1.577.921 2.849.189 2.872-1.629 0-1.795-1.271-4.014-2.848-4.935Z" fill="#2B2B2B"/><path d="m64.857 87.526.023 13.364 5.156 2.998-.047-13.364-5.132-2.998Z" fill="#939598"/><path d="m69.989 90.525.047 13.363 13.371-7.744-.047-13.364-13.371 7.745Z" fill="#808285"/><path d="m64.857 87.526 5.132 2.999L83.36 82.78l-5.132-2.999-13.371 7.745Z" fill="#E6E7E8"/><path d="m68.765 29.207.164 58.484 1.978 1.157-.165-58.484-1.977-1.157Z" fill="#A7A9AC"/><path d="m70.742 30.364.165 58.484L79.5 83.89l-.165-58.485-8.593 4.959Z" fill="#D5D7E3"/><path d="m68.765 29.207 1.977 1.157 8.593-4.959-2.001-1.18-8.57 4.982Z" fill="#909294"/><path d="M50.544 117.418v2.338l54.404 31.709v-2.337l-54.404-31.71Z" fill="#6D6E71"/><path d="M104.948 149.128v2.337l54.781-31.709-.024-2.338-54.757 31.71Z" fill="#6D6E71"/><path d="m50.544 117.418 54.404 31.71 54.757-31.71-54.404-31.71-54.758 31.71Z" fill="#1E1B1C"/><path d="m49.249 105.518.047 11.687 55.675 32.466-.047-11.711-55.675-32.442Z" fill="#BCBEC0"/><path d="m104.924 137.96.047 11.711L161 117.205l-.023-11.687-56.053 32.442Z" fill="#BCBEC0"/><path d="m49.249 105.518 55.675 32.441 56.053-32.441-55.676-32.442-56.052 32.442Z" fill="#D1D3D4"/><path d="M50.544 103.062v2.362l54.404 31.709v-2.337l-54.404-31.734Z" fill="#D1D3D4"/><path d="M104.948 134.796v2.337l54.781-31.71-.024-2.337-54.757 31.71Z" fill="#D1D3D4"/><path d="m50.544 103.062 54.404 31.734 54.757-31.71-54.404-31.733-54.758 31.709Z" fill="#F1F2F2"/><path d="m89.905 26.137-2.472.19-.918.542 2.448-.189.942-.543Z" fill="#161314"/><path d="m88.963 26.68-2.448.19.094.283 2.472-.213-.118-.26ZM84.443 11.9l-2.472.189 5.462 14.237 2.472-.189L84.443 11.9Z" fill="#121011"/><path d="m87.998 24.154-2.472.189.989 2.526 2.448-.189-.965-2.526Z" fill="#121011"/><path d="m86.068 8.098-2.449.19L90.87 27.2l2.472-.19-7.274-18.912Z" fill="#616263"/><path d="m89.081 26.94-2.472.212-3.06 1.771 2.472-.189 3.06-1.794Z" fill="#161314"/><path d="m85.903 28.451-2.448.19.094.283 2.472-.19-.118-.283Z" fill="#793224"/><path d="m84.443 11.9-2.472.189 3.626 9.444 2.448-.189-3.602-9.444Z" fill="#121011"/><path d="m87.998 24.154-2.472.189-3.06 1.77 2.472-.188 3.06-1.77Z" fill="#923C2B"/><path d="m84.938 25.925-2.472.189.989 2.526 2.448-.189-.965-2.526Z" fill="#793224"/><path d="m84.938 25.925.965 2.526.118.284 3.06-1.795-.118-.26-.965-2.526-3.06 1.77Z" fill="#D7583F"/><path d="m85.903 28.451-2.449.19-1.812 1.062 2.448-.213 1.813-1.039Z" fill="#161314"/><path d="m84.09 29.49-2.448.213.094.26 2.472-.19-.118-.283Z" fill="#121011"/><path d="m83.125 26.964-2.448.189.965 2.55 2.448-.213-.965-2.526Z" fill="#121011"/><path d="m84.208 29.773-2.472.19-3.06 1.77 2.471-.189 3.06-1.77Z" fill="#161314"/><path d="m81.03 31.26-2.448.213.094.26 2.472-.189-.118-.283Z" fill="#186A3B"/><path d="m80.064 28.735-2.448.212.965 2.527 2.449-.213-.966-2.526Z" fill="#186A3B"/><path d="m83.125 26.964-2.448.189-3.06 1.794 2.447-.212 3.06-1.771Z" fill="#1D7F47"/><path d="m79.217 32.324-2.448.189.094.283 2.472-.19-.118-.282Z" fill="#121011"/><path d="m81.03 31.26-2.448.213-1.813 1.04 2.448-.19 1.813-1.062Z" fill="#161314"/><path d="m78.252 29.797-2.472.189.989 2.526 2.448-.189-.965-2.526Z" fill="#121011"/><path d="m79.335 32.607-2.472.189-3.06 1.77 2.471-.188 3.06-1.771Z" fill="#161314"/><path d="m76.157 34.094-2.448.19.094.283 2.472-.19-.118-.283ZM75.192 31.568l-2.472.188.989 2.527 2.448-.189-.965-2.526Z" fill="#616263"/><path d="m78.252 29.797-2.472.189-3.06 1.77 2.472-.188 3.06-1.771Z" fill="#757778"/><path d="m75.191 31.568.966 2.526.117.283 3.06-1.77-.117-.284-.965-2.526-3.06 1.77Z" fill="#ADAFB1"/><path d="m74.344 35.133-2.448.213.094.26 2.472-.19-.118-.283Z" fill="#121011"/><path d="m76.157 34.094-2.449.19-1.812 1.062 2.448-.213 1.813-1.039Z" fill="#161314"/><path d="m73.379 32.607-2.472.212.989 2.527 2.448-.213-.965-2.526Z" fill="#121011"/><path d="m74.462 35.417-2.472.188-3.06 1.771 2.471-.188 3.06-1.771Z" fill="#161314"/><path d="m71.284 36.928-2.449.188.094.26 2.472-.189-.117-.26Z" fill="#616263"/><path d="m70.318 34.378-2.448.212.965 2.527 2.449-.19-.966-2.55Z" fill="#616263"/><path d="m73.379 32.607-2.472.212-3.037 1.771 2.448-.212 3.06-1.771Z" fill="#757778"/><path d="m71.284 36.928-2.449.188-1.812 1.04 2.472-.19 1.789-1.038Z" fill="#161314"/><path d="m69.495 37.967-2.472.189.094.283 2.472-.212-.094-.26ZM68.506 35.44l-2.449.189.966 2.526 2.471-.189-.988-2.526Z" fill="#121011"/><path d="m69.589 38.226-2.472.213-3.06 1.77 2.471-.212 3.06-1.77Z" fill="#161314"/><path d="m66.434 39.738-2.472.189.094.283 2.472-.213-.094-.26Z" fill="#616263"/><path d="m68.506 35.44-2.448.189-3.06 1.77 2.447-.188 3.06-1.771Z" fill="#757778"/><path d="m66.434 39.738-2.472.189-.942.543 2.472-.19.942-.542Z" fill="#161314"/><path d="m65.445 37.21-2.448.19.965 2.526 2.472-.189-.989-2.526Z" fill="#616263"/><path d="m63.656 35.464-2.472.212 1.837 4.793 2.471-.188-1.836-4.817Z" fill="#121011"/><path d="m65.445 37.21.99 2.527.093.26 3.06-1.77-.094-.26-.988-2.527-3.06 1.77Z" fill="#ADAFB1"/><path d="m93.342 27.011-2.472.189-29.474 17.07 2.449-.188L93.342 27.01Z" fill="#757778"/><path d="m60.03 26.043 3.626 9.42 24.39-14.119-3.603-9.444-24.412 14.143Z" fill="#177FC0"/><path d="m60.03 26.043-2.471.189 3.625 9.444 2.472-.212-3.625-9.421Z" fill="#2E2E2F"/><path d="m84.443 11.9-2.472.189L57.56 26.232l2.472-.189L84.443 11.9Z" fill="#373839"/><path d="m86.068 8.098-2.449.19-29.497 17.094 2.472-.213L86.068 8.1Z" fill="#161314"/><path d="m56.594 25.17-2.472.212 7.274 18.889 2.448-.19-7.25-18.912Z" fill="#121011"/><path d="m95.626 27.578-32.864 19.03-8.452-22.005 32.864-19.03 8.451 22.005ZM63.845 44.082 93.342 27.01l-7.25-18.889-29.498 17.07 7.25 18.89Z" fill="#E6E7E8"/><path d="m89.905 26.137-.942.544-.965-2.527-3.06 1.771.965 2.526-1.813 1.04-.965-2.527-3.06 1.77.965 2.527-1.813 1.063-.965-2.527-3.06 1.771.965 2.526-1.813 1.04-.965-2.527-3.06 1.77.965 2.55-1.79 1.04-.988-2.527-3.06 1.771.988 2.526-.941.544-1.837-4.817 24.39-14.12 1.859 4.793Z" fill="#201D1D"/><path d="m56.594 25.17 7.25 18.888 29.498-17.07-7.25-18.89L56.593 25.17Zm8.898 15.11-1.836-4.793-3.625-9.444L84.443 11.9l5.462 14.237-.942.543.094.26-3.06 1.77-.094-.259-1.813 1.039.094.26-3.06 1.77-.094-.26-1.813 1.063.094.26-3.06 1.77-.094-.259-1.813 1.04.118.282-3.06 1.771-.095-.26-1.813 1.04.095.26-3.06 1.77-.095-.26-.942.543Z" fill="#201D1D"/><path d="m84.09 29.49.118.284-3.06 1.77-.118-.283-.965-2.526 3.06-1.771.965 2.526Z" fill="#2ABC68"/><path d="m70.318 34.378.966 2.55.117.26 3.06-1.771-.117-.284-.965-2.526-3.06 1.77Z" fill="#ADAFB1"/><path d="m87.174 5.572-2.472.189-32.864 19.054 2.449-.212 32.887-19.03Z" fill="#F1F2F2"/><path d="m54.287 24.603-2.449.212 8.452 21.982 2.448-.189-8.451-22.005Z" fill="#BCBEC0"/><path d="M80.747 86.062v21.25l25.637 15.04.023-21.226-25.66-15.064Z" fill="#F5BC6F"/><path d="m106.408 101.126-.024 21.227 25.919-14.899V86.228l-25.895 14.898Z" fill="#FFCF7A"/><path d="m80.747 86.062 25.66 15.064 25.896-14.898-25.66-15.04-25.896 14.874Z" fill="#FCD495"/><path d="m91.011 108.729 11.371 6.611.024-11.9-11.347-6.611-.047 11.9Z" fill="#F1F2F2"/><path d="m92.024 102.495.612.355v-3.637l-.588-.354-.024 3.636ZM93.224 103.203l.612.355v-3.636l-.588-.355-.024 3.636ZM94.425 103.912l.612.331v-3.613l-.588-.354-.024 3.636ZM95.626 105.305l.612.331v-4.321l-.589-.354-.023 4.344ZM96.826 105.305l.613.354v-3.636l-.589-.354-.024 3.636ZM98.027 106.014l.612.33v-3.636l-.589-.33-.023 3.636ZM99.228 107.383l.612.354v-4.321l-.589-.354-.023 4.321ZM100.428 107.407l.612.354v-3.636l-.588-.355-.024 3.637ZM91.93 107.737l9.157 5.336v-.354l-9.157-5.336v.354ZM91.953 106.344l9.134 5.336v-.331l-9.134-5.336v.331ZM91.953 104.974l9.158 5.337v-.355l-9.158-5.336v.354Z" fill="#6D6E71"/><path d="m123.452 107.477.023-.023c.659-.378 1.177-1.299 1.177-2.031v-1.653l-2.401 1.37v1.653c.024.755.565 1.062 1.201.684Z" fill="#CF9975"/><path d="M123.404 109.791c.048-.023.095-.118.095-.165v-3.14c0-.071-.047-.095-.095-.047-.047.023-.094.118-.094.165v3.14c0 .047.047.071.094.047Z" fill="#CF9975"/><path d="m122.251 110.476 2.307-1.322c.047-.024.094-.118.094-.165 0-.071-.047-.095-.094-.048l-2.307 1.323c-.047.023-.094.118-.094.165 0 .071.047.094.094.047ZM120.438 108.162c.212-.118.424-.141.565-.094-.047-1.346-1.036-1.889-2.236-1.204-1.224.708-2.237 2.432-2.26 3.848.165-.283.4-.543.635-.684.377-.213.683-.142.824.141.142-.448.448-.873.824-1.086.377-.212.683-.141.824.142.142-.425.448-.85.824-1.063Z" fill="#CF9975"/><path d="m119.473 112.058.377-.213c.047-.023.094-.118.094-.165 0-.071-.047-.094-.094-.047l-.377.212c-.353.213-.636.048-.636-.354v-2.786c0-.071-.047-.094-.094-.047-.047.024-.094.118-.094.165v2.786c0 .496.377.709.824.449ZM128.819 105.046l.282-1.535 1.177-.26-.259.307.377.543c.047.048.047.142 0 .236l-.588 1.464-.754-1.086-.235.331Z" fill="#CF9975"/><path d="m129.031 105.046.635.897-1.506.897v-1.275l.871-.519ZM126.865 106.32v-.33l.894.449-.894 1.487v-.331l-.777.449c-.071.047-.141.047-.188-.024l-.565-.802 1.53-.898Z" fill="#CF9975"/><path d="m125.311 107.005.777-1.959.942.094-.447 1.133-1.272.732ZM126.724 103.464l.4-.992c.047-.094.118-.189.188-.212l1.154-.662-.777 1.96.259.024-1.177 1.086-.283-1.204h.236Z" fill="#CF9975"/><path d="m128.607 101.551.753 1.063-.941 1.18-.448-.614.636-1.629ZM121.733 92.674l-3.555 2.054L92.094 79.71l3.555-2.054 26.084 15.017Z" fill="#CF9975"/><path d="m121.709 100.89-3.554 2.031.023-8.193 3.555-2.054-.024 8.216Z" fill="#CF9975"/><path d="M80.347 63.395v21.25l25.637 15.04V78.46L80.347 63.395Z" fill="#F5BC6F"/><path d="M105.984 78.46v21.226l25.895-14.899V63.561L105.984 78.46Z" fill="#FFCF7A"/><path d="m80.347 63.396 25.637 15.064 25.895-14.899-25.636-15.04-25.896 14.875Z" fill="#FCD495"/><path d="m90.611 86.062 11.347 6.611.047-11.9-11.347-6.61-.047 11.9Z" fill="#F1F2F2"/><path d="m91.624 79.829.588.354.024-3.636-.612-.354v3.636ZM92.824 80.537l.589.354.023-3.636-.612-.354v3.636ZM94.025 81.222l.588.354.024-3.636-.612-.33v3.612ZM95.226 82.615l.588.354.024-4.32-.612-.355v4.321ZM96.426 82.638l.589.355.023-3.636-.612-.355v3.636ZM97.627 83.323l.588.355.024-3.636-.612-.331v3.612ZM98.827 84.716l.589.354.023-4.32-.612-.355v4.321ZM100.028 84.74l.589.354.023-3.636-.612-.354v3.636ZM91.53 85.07l9.157 5.337v-.355l-9.157-5.336v.354ZM91.53 83.677l9.157 5.336v-.33l-9.157-5.336v.33ZM91.53 82.308l9.157 5.336v-.354l-9.157-5.336v.354Z" fill="#6D6E71"/><path d="m123.051 84.811.024-.023c.659-.378 1.177-1.299 1.177-2.031v-1.653l-2.401 1.37v1.652c.023.756.541 1.063 1.2.685Z" fill="#CF9975"/><path d="M123.004 87.125c.047-.023.095-.118.095-.165v-3.14c0-.071-.048-.095-.095-.048-.047.024-.094.118-.094.166v3.14c-.023.047.024.07.094.047Z" fill="#CF9975"/><path d="m121.851 87.81 2.307-1.322c.047-.024.094-.118.094-.166 0-.07-.047-.094-.094-.047l-2.307 1.322c-.047.024-.094.118-.094.166-.024.047.023.094.094.047ZM120.014 85.496c.212-.118.424-.142.565-.095-.047-1.346-1.035-1.889-2.236-1.204-1.224.708-2.236 2.432-2.26 3.849.165-.284.4-.544.636-.685.376-.213.682-.142.824.141.141-.448.447-.873.824-1.086.376-.212.682-.141.823.142.165-.425.471-.85.824-1.062Z" fill="#CF9975"/><path d="m119.073 89.368.376-.213c.047-.023.095-.118.095-.165 0-.07-.048-.094-.095-.047l-.376.212c-.353.213-.636.048-.636-.354v-2.786c0-.07-.047-.094-.094-.047-.047.023-.094.118-.094.165v2.786c0 .52.376.732.824.449ZM128.419 82.356l.282-1.535 1.177-.26-.259.307.377.543c.047.047.047.142 0 .236l-.589 1.464-.753-1.086-.235.33Z" fill="#CF9975"/><path d="m128.631 82.38.635.897-1.53.897.024-1.275.871-.52ZM126.441 83.63v-.33l.895.449-.895 1.488v-.331l-.777.448c-.07.048-.141.048-.188-.023l-.565-.803 1.53-.897Z" fill="#CF9975"/><path d="m124.911 84.34.753-1.96.966.094-.448 1.133-1.271.732ZM126.324 80.797l.376-.992c.047-.094.118-.189.189-.212l1.153-.661-.777 1.96.259.023-1.177 1.086-.282-1.204h.259Z" fill="#CF9975"/><path d="m128.207 78.861.753 1.086-.941 1.18-.471-.637.659-1.629ZM121.333 70.007l-3.555 2.054-26.084-15.017 3.555-2.054 26.084 15.017Z" fill="#CF9975"/><path d="m121.309 78.224-3.578 2.03.024-8.193 3.578-2.054-.024 8.217Z" fill="#CF9975"/><defs><linearGradient id="a" x1="8.873" y1="10.425" x2="21.785" y2="5.923" gradientUnits="userSpaceOnUse"><stop stop-color="#231F20"/><stop offset=".09" stop-color="#231F20"/><stop offset="1" stop-color="#231F20"/></linearGradient></defs></svg>