<svg width="19" height="23" fill="none" xmlns="http://www.w3.org/2000/svg"><path d="M3.136.438c0 .564.539 1.1 1.1 1.1H15.23c.564 0 1.1-.54 1.1-1.1h2.199a3.298 3.298 0 0 1-3.299 3.298h-4.398v2.268a8.798 8.798 0 0 1 7.697 8.728v6.597a1.1 1.1 0 0 1-1.1 1.1H2.036a1.1 1.1 0 0 1-1.1-1.1v-6.597a8.798 8.798 0 0 1 7.698-8.728V3.736H4.236A3.294 3.294 0 0 1 .936.438h2.2Zm6.597 9.896a4.397 4.397 0 0 0-4.398 4.398 4.397 4.397 0 0 0 4.398 4.398 4.397 4.397 0 0 0 3.79-6.632L10.51 15.51l-.104.09a1.1 1.1 0 0 1-1.451-1.646l3.011-3.012a4.399 4.399 0 0 0-2.234-.608Z" fill="url(#a)"/><defs><linearGradient id="a" x1=".937" y1="11.433" x2="18.53" y2="11.433" gradientUnits="userSpaceOnUse"><stop stop-color="#283745"/><stop offset="1" stop-color="#152331"/></linearGradient></defs></svg>