<svg width="42" height="42" fill="none" xmlns="http://www.w3.org/2000/svg"><mask id="a" mask-type="alpha" maskUnits="userSpaceOnUse" x="0" y="0" width="42" height="42"><rect width="42" height="42" rx="21" fill="#2E3D4B"/></mask><g mask="url(#a)"><circle cx="21" cy="21" r="21" fill="#EECE21"/><path d="M16.51 27.203v.06c-.016 1.233-1.057 2.161-3.121 2.784 2.488 1.804 4.976 3.248 7.463 3.248 2.486 0 4.974-1.446 7.462-3.25-2.05-.622-3.09-1.551-3.12-2.787l.003-1.12v-.287c.148.02.136.007 0-.03.004-1.545.01-3.624.02-5.735 1.944-2.514 1.23-5.462.622-5.388-.748.089-7.22-6.036-8.462-6.35-1.241-.313-4.395.7-4.938 3.525-.543 2.826-.77 9.946 1.289 12.79.586.809 1.508 1.125 2.767.947.002.593.006.923.014 1.593Z" fill="url(#b)"/><path opacity=".228" d="M16.508 25.616a11.787 11.787 0 0 0 4.884-1.623s-2.054 2.722-4.884 3.248v-1.625Z" fill="#FFBE94"/><path d="M35.08 33.772c1.288 2.615 2.029 8.645 2.029 8.645H4.658s.74-6.03 2.028-8.645c1.287-2.614 8.802-5.04 8.802-5.04 1.448 2.972 9.397 2.972 10.785 0 0 0 7.518 2.425 8.807 5.04Z" fill="url(#c)"/><path d="M26.908 19.582c.935-2.243 4.68-6.81 1.451-9.652-1.085-5.278-7.082-4.693-11.085-3.475-2.69.818-4.721 2.436-5.156 1.218-2.713 2.257-1.354 4.466.435 5.1 1.624.575 4.37 1.149 9.038.609.834-.097.66 2.45 1.105 2.725.668.413 1.187-2.185 3.021-1.405 1.834.78.745 4.397-1.222 4.397-.678 0-1.018 1.86.814 2.74 1.328.653.992-.8 1.599-2.257Z" fill="#192734"/></g><defs><linearGradient id="b" x1="12.065" y1="8.294" x2="12.065" y2="33.295" gradientUnits="userSpaceOnUse"><stop stop-color="#E2FBFF"/><stop offset="1" stop-color="#FFE2CF"/></linearGradient><linearGradient id="c" x1="4.659" y1="35.575" x2="37.108" y2="35.575" gradientUnits="userSpaceOnUse"><stop stop-color="#283745"/><stop offset="1" stop-color="#152331"/></linearGradient></defs></svg>