<svg width="199" height="150" fill="none" xmlns="http://www.w3.org/2000/svg"><path d="m198.966 67.086-51.08-29.694.017 7.13L199 74.235l-.034-7.148Z" fill="#6B6B6B"/><path d="M183.901 86.135c-2.84-1.653-5.681-3.29-8.521-4.943.757.43 1.205 1.36 1.222 2.67 0 2.635-1.859 5.856-4.166 7.182-1.154.672-2.204.723-2.962.293 2.841 1.653 5.682 3.29 8.522 4.96.758.43 1.808.379 2.962-.293 2.307-1.326 4.149-4.547 4.149-7.2 0-1.308-.465-2.238-1.206-2.669Z" fill="#fff"/><path d="M180.252 72.787c-1.997-1.171-4.786-1.016-7.868.775-6.094 3.53-11.035 12.074-11.018 19.084.017 3.479 1.239 5.942 3.219 7.096 2.841 1.653 5.681 3.289 8.522 4.943-1.98-1.154-3.219-3.6-3.219-7.096-.018-7.01 4.906-15.553 11.018-19.084 3.064-1.774 5.853-1.946 7.868-.758l-8.522-4.96Z" fill="#000"/><path d="M191.993 84.826c.017 7.01-4.906 15.553-11.018 19.084-6.095 3.531-11.07.689-11.087-6.321-.017-7.01 4.906-15.553 11.018-19.084 6.112-3.53 11.07-.706 11.087 6.321Zm-11.035 11.178c2.307-1.326 4.149-4.547 4.149-7.2 0-2.652-1.877-3.72-4.184-2.376-2.307 1.326-4.166 4.547-4.149 7.2.017 2.635 1.894 3.702 4.184 2.376Z" fill="#303335"/><path d="M159.128 88.322 108.031 58.63l.034 7.13 51.097 29.711-.034-7.148Z" fill="#CE6200"/><path d="M110.424 17.155 140.259 0l48.515 27.902-29.646 17.396-48.704-28.143Z" fill="#FF912E"/><path d="m159.076 67.361.052 20.962.034 7.147 8.987-5.201c2.255-5.89 6.542-11.471 11.449-14.313 4.923-2.842 9.21-2.205 11.5 1.05l5.784-3.34v-24.94l-8.091-20.824-29.663 17.413-.052 22.046Z" fill="#EA7500"/><path d="M172.522 60.592V39.597l15.322-9.008 6.645 17.086-21.967 12.917ZM160.918 67.413l.069-21.03 9.83-5.77v20.996l-9.899 5.804Z" fill="#052738"/><path d="m173.434 58.973 19.902-11.694-5.957-15.33-13.945 8.182v18.842ZM169.905 42.215l-7.988 4.685-.069 18.894 8.057-4.737V42.215Z" fill="#2493BC"/><path d="m174.02 63.245 2.513-1.481v2.945l-2.513 1.481v-2.945Z" fill="#fff"/><path d="m159.128 45.315-51.149-29.71.052 43.024 51.097 29.693V45.315Z" fill="#CE6200"/><path d="m197.743 66.466-6.903 4.013-.018 7.13 1.171.655 5.75-11.798Z" fill="#494949"/><path d="m198.931 67.12-6.904 4.013-.034 7.131 6.938-4.03V67.12Z" fill="#5D5D5D"/><path d="m197.743 66.466-6.903 4.013 1.188.654 6.938-4.047-1.223-.62Z" fill="#6B6B6B"/><path d="m110.337 129.228-8.521-4.96c.757.431 1.222 1.361 1.222 2.67.017 2.652-1.859 5.873-4.15 7.199l8.523 4.96c2.289-1.326 4.149-4.547 4.149-7.199-.017-1.326-.482-2.239-1.223-2.67Z" fill="#fff"/><path d="m95.91 134.43 8.522 4.943c.758.448 1.808.379 2.961-.293l-8.521-4.96c-1.154.689-2.204.741-2.962.31Z" fill="#fff"/><path d="m117.43 115.088-8.521-4.961 3.288 9.818 8.504 4.96-3.271-9.817Z" fill="#FFAC06"/><path d="m115.21 120.823-8.505-4.943c-2.014-1.171-4.786-.999-7.868.775l8.522 4.961c3.047-1.792 5.836-1.964 7.851-.793Z" fill="#052738"/><path d="m91.021 142.818 8.522 4.96c-1.98-1.154-3.202-3.617-3.22-7.096-.017-7.01 4.907-15.57 11.019-19.084l-8.522-4.96c-6.094 3.531-11.035 12.074-11.018 19.084.017 3.496 1.256 5.942 3.22 7.096Z" fill="#000"/><path d="M118.429 127.919c.017 7.01-4.924 15.553-11.018 19.084-6.112 3.531-11.07.689-11.087-6.321-.018-7.01 4.906-15.57 11.018-19.084 6.094-3.531 11.07-.706 11.087 6.321Zm-11.036 11.161c2.29-1.326 4.15-4.547 4.15-7.199 0-2.636-1.877-3.721-4.184-2.377-2.29 1.326-4.166 4.547-4.149 7.199.017 2.635 1.877 3.721 4.183 2.377Z" fill="#303335"/><path d="m97.511 125.112-3.425 11.316 1.17-.052 3.1-10.265 19.074-11.023 3.271 9.817.362-.224-2.668-11.643-20.883 12.074Z" fill="#FFCB5B"/><path d="m118.395 113.038-8.505-4.96-20.9 12.073 8.522 4.961 20.883-12.074Z" fill="#FFAC06"/><path d="m97.511 125.112-8.521-4.961-3.426 11.333 8.522 4.944 3.425-11.316Z" fill="#FFAC06"/><path d="M67.624 104.943c-2.84-1.653-5.68-3.307-8.504-4.943.74.431 1.205 1.361 1.205 2.67.017 2.652-1.86 5.873-4.15 7.199l8.523 4.96c2.307-1.326 4.166-4.547 4.149-7.199-.017-1.326-.482-2.239-1.222-2.687Z" fill="#fff"/><path d="m53.215 110.145 8.504 4.96c.758.448 1.808.379 2.961-.293l-8.521-4.96c-1.137.672-2.204.741-2.944.293Z" fill="#fff"/><path d="m74.718 90.82-8.505-4.96 3.27 9.817 8.505 4.943-3.27-9.8Z" fill="#FFAC06"/><path d="m72.497 96.538-8.522-4.943c-1.997-1.171-4.786-1-7.85.775l8.521 4.943c3.065-1.774 5.836-1.929 7.85-.775Z" fill="#052738"/><path d="m48.325 118.55 8.505 4.96c-1.98-1.154-3.22-3.599-3.22-7.096-.017-7.01 4.907-15.57 11.019-19.1l-8.522-4.944c-6.112 3.53-11.035 12.074-11.018 19.084.034 3.479 1.257 5.942 3.236 7.096Z" fill="#000"/><path d="M75.716 103.634c.017 7.01-4.906 15.57-11.018 19.084-6.112 3.531-11.07.689-11.087-6.321-.018-7.01 4.906-15.57 11.018-19.101 6.112-3.514 11.07-.672 11.087 6.338Zm-11.035 11.178c2.306-1.326 4.166-4.547 4.149-7.199-.018-2.636-1.877-3.721-4.184-2.377-2.307 1.326-4.166 4.547-4.166 7.199.034 2.635 1.91 3.703 4.2 2.377Z" fill="#303335"/><path d="m54.798 100.827-3.425 11.333 1.17-.069 3.1-10.265L74.717 90.82l3.27 9.8.362-.207L75.7 88.77l-20.9 12.057Z" fill="#FFCB5B"/><path d="m75.699 88.77-8.522-4.96-20.883 12.073 8.505 4.944 20.9-12.057Z" fill="#FFAC06"/><path d="m54.799 100.827-8.505-4.944-3.443 11.334 8.522 4.943 3.426-11.333Z" fill="#FFAC06"/><path d="m159.11 89.166.018-6.39-46.501-26.903-78.298 45.97 51.097 29.711 73.684-42.388Z" fill="#052738"/><path d="m32.073 99.363 76.164-44.282 41.043 23.7-76.164 44.299-41.043-23.717Z" fill="#CC2600"/><path d="m32.194 52.17 76.164-44.282-.121 47.193-76.164 44.282.12-47.193Z" fill="#931C00"/><path d="M88.232 105.891 58.844 88.925l4.563-2.635 29.37 16.965-4.545 2.636Z" fill="#DD9A3A"/><path d="m63.407 83.483 4.562 2.618-4.562 2.618-4.563-2.618 4.563-2.618Z" fill="#CC8425"/><path d="M63.407 88.719v2.377l4.562-2.636V86.1l-4.562 2.619Z" fill="#BF7113"/><path d="m75.82 90.63 4.544 2.619-4.545 2.618-4.562-2.618 4.562-2.618Z" fill="#CC8425"/><path d="M75.82 95.867v2.394l4.562-2.636V93.25l-4.563 2.618Z" fill="#BF7113"/><path d="m88.232 97.796 4.562 2.635-4.562 2.601-4.562-2.601 4.562-2.635Z" fill="#CC8425"/><path d="M88.232 103.049v2.377l4.562-2.635v-2.377l-4.562 2.635Z" fill="#FAC952"/><path d="M88.232 103.049v2.377l-4.562-2.635v-2.377l4.562 2.635ZM63.407 88.719v2.377l-4.563-2.618V86.1l4.563 2.618ZM88.232 105.891v.758L58.844 89.683v-.757l29.388 16.965ZM75.82 95.867v2.394l-4.563-2.636V93.25l4.562 2.618Z" fill="#EDB659"/><path d="M100.628 98.726 71.24 81.76l4.562-2.618 29.371 16.949-4.545 2.635Z" fill="#DD9A3A"/><path d="m75.802 76.318 4.545 2.618-4.545 2.618-4.562-2.618 4.562-2.618Z" fill="#CC8425"/><path d="M75.802 81.554v2.377l4.562-2.618v-2.377l-4.562 2.618Z" fill="#BF7113"/><path d="M88.215 83.466 92.76 86.1l-4.545 2.6-4.58-2.6 4.58-2.635Z" fill="#CC8425"/><path d="M88.215 88.702v2.394l4.545-2.636V86.1l-4.545 2.602Z" fill="#BF7113"/><path d="m100.628 90.63 4.562 2.636-4.562 2.6-4.563-2.6 4.563-2.635Z" fill="#CC8425"/><path d="M100.628 95.884v2.377l4.562-2.618-.017-2.394-4.545 2.635Z" fill="#FAC952"/><path d="M100.628 95.884v2.377l-4.563-2.618v-2.394l4.563 2.635ZM75.802 81.554v2.377l-4.562-2.618v-2.377l4.562 2.618ZM100.628 98.726v.775L71.24 82.536v-.775l29.388 16.965ZM88.198 88.719v2.377l-4.545-2.636v-2.376l4.545 2.635Z" fill="#EDB659"/><path d="M75.82 113.073 46.413 96.091l4.563-2.618 29.37 16.965-4.528 2.635Z" fill="#DD9A3A"/><path d="m50.977 90.648 4.562 2.635-4.562 2.618-4.563-2.618 4.563-2.635Z" fill="#CC8425"/><path d="M50.977 95.884v2.394l4.562-2.636v-2.376l-4.562 2.618Z" fill="#BF7113"/><path d="m63.39 97.796 4.544 2.635-4.545 2.618-4.562-2.618 4.562-2.635Z" fill="#CC8425"/><path d="M63.39 103.049v2.377l4.562-2.618v-2.377l-4.563 2.618Z" fill="#BF7113"/><path d="m88.232 100.637 4.562 2.636-4.562 2.618-4.562-2.618 4.562-2.636Z" fill="#CC8425"/><path d="M88.232 103.031v2.394l-4.562-2.635v-2.359l4.562 2.6Z" fill="#DD9A3A"/><path d="m88.232 97.796 4.562 2.635-4.562 2.6-4.562-2.6 4.562-2.635Z" fill="#CC8425"/><path d="M88.232 103.031v2.394l4.562-2.635v-2.359l-4.562 2.6Z" fill="#FAC952"/><path d="M88.232 105.891v.757l-4.562-2.618.017-.775 4.545 2.636Z" fill="#DD9A3A"/><path d="M88.232 105.891v.757l4.562-2.618v-.775l-4.562 2.636Z" fill="#FAC952"/><path d="m100.628 93.472 4.562 2.636-4.562 2.618-4.563-2.618 4.563-2.636Z" fill="#CC8425"/><path d="M100.628 95.884v2.376l-4.563-2.618v-2.376l4.563 2.618Z" fill="#DD9A3A"/><path d="m100.628 90.63 4.562 2.636-4.562 2.618-4.563-2.618 4.563-2.635Z" fill="#CC8425"/><path d="M100.628 95.884v2.376l4.562-2.635v-2.36l-4.562 2.619Z" fill="#FAC952"/><path d="M100.628 98.726v.775l-4.563-2.635v-.758l4.563 2.618Z" fill="#DD9A3A"/><path d="M100.628 98.726v.775l4.562-2.635v-.775l-4.562 2.635Z" fill="#FAC952"/><path d="m75.82 104.961 4.544 2.635-4.545 2.618-4.58-2.618 4.58-2.635Z" fill="#CC8425"/><path d="m75.82 109.111 29.37-16.965-4.562-2.618-29.37 16.965 4.561 2.618ZM63.39 101.946l29.37-16.965-4.545-2.635-29.388 16.965 4.562 2.635ZM50.977 94.764 80.347 77.8l-4.545-2.618-29.388 16.965 4.563 2.618Z" fill="#CC8425"/><path d="M88.215 100.792v.776l4.545-2.636v-.758l-4.545 2.618ZM82 104.375v.775l4.562-2.635v-.758L82 104.375ZM75.82 110.214v2.394l4.544-2.636v-2.376l-4.545 2.618ZM75.82 109.111v.758l29.37-16.948v-.775l-29.37 16.965Z" fill="#FAC952"/><path d="M63.39 101.946v.758l29.37-16.965v-.758l-29.37 16.965ZM50.977 94.781v.758l29.387-16.965v-.758L50.977 94.781Z" fill="#BF7113"/><path d="M75.82 107.957 46.413 90.992l4.563-2.618 29.37 16.965-4.528 2.618Z" fill="#FFD578"/><path d="M75.82 107.957v.775l4.527-2.635v-.758l-4.528 2.618ZM94.413 97.21l.017.775 4.545-2.635v-.758l-4.562 2.618ZM100.628 93.627v.758l4.562-2.618v-.775l-4.562 2.635ZM75.82 113.073v.758l4.544-2.635v-.758l-4.545 2.635Z" fill="#FAC952"/><path d="M75.82 110.214v2.394l-4.58-2.635v-2.377l4.58 2.618ZM75.82 109.112v.757l-4.58-2.618.017-.757 4.562 2.618ZM50.977 95.884v2.394l-4.563-2.636v-2.376l4.563 2.618ZM50.977 94.781v.758l-4.563-2.618v-.775l4.563 2.635ZM63.39 101.947v.757l-4.563-2.618v-.775l4.562 2.636ZM75.82 113.073v.758L46.413 96.865v-.775l29.405 16.983ZM75.82 107.958v.775L46.413 91.767v-.775l29.405 16.966Z" fill="#EDB659"/><path d="M82.017 104.375 52.63 87.41l4.545-2.635 29.388 16.982-4.545 2.618Z" fill="#FFD578"/><path d="M82.017 104.375v.775L52.63 88.185v-.775l29.388 16.965Z" fill="#EDB659"/><path d="M88.215 100.81 58.827 83.827l4.562-2.618 29.37 16.965-4.544 2.636Z" fill="#FFD578"/><path d="M88.215 100.81v.758L58.827 84.602v-.775l29.388 16.983Z" fill="#EDB659"/><path d="M94.43 97.21 65.042 80.245l4.545-2.618 29.388 16.965-4.545 2.618Z" fill="#FFD578"/><path d="M94.43 97.21v.775L65.042 81.003v-.758L94.43 97.21Z" fill="#EDB659"/><path d="m100.628 93.627-29.37-16.965 4.544-2.635L105.19 91.01l-4.562 2.617Z" fill="#FFD578"/><path d="M100.645 93.627v.758L71.257 77.42v-.758l29.388 16.965ZM63.39 103.049l-.018 2.377-4.545-2.618v-2.377l4.562 2.618Z" fill="#EDB659"/><g opacity=".3"><path opacity=".3" d="m46.414 90.992 14.496 8.37 14.513-8.387-14.427-8.388-14.582 8.405ZM76.267 90.975l14.461 8.388 14.462-8.37-14.393-8.406-14.53 8.388ZM61.255 99.604l14.564 8.371 14.393-8.371-14.393-8.405-14.564 8.405Z" fill="#CC8425"/></g><path d="M75.75 73.751V60.817l-14.495 8.37v12.935l14.495-8.37Z" fill="#A1663B"/><path d="M75.75 73.751V60.817l14.462 8.37v12.935l-14.462-8.37Z" fill="#DEAE80"/><path d="M75.75 77.558v12.935l14.462-8.37V69.186l-14.462 8.37Z" fill="#DEAE80"/><path d="m90.212 69.187-14.462 8.37s5.458-2.617 14.462-8.37Z" fill="#7F492A"/><path d="M75.75 77.558v12.935l-14.495-8.37V69.186l14.495 8.37Z" fill="#D8A57A"/><path d="m61.255 69.204 14.495 8.354 14.462-8.37-14.427-8.371-14.53 8.387Z" fill="#E3B786"/><path d="M82.844 73.476 68.399 65.07l.551-.31 14.427 8.388-.533.327Z" fill="#7F492A"/><path d="m71.653 80.951-.19.293.087.069v1.584l.206.104v-1.568l.104.052-.207-.534Z" fill="#281407"/><path d="M69.914 82.656V79.59l2.651 1.533v3.049l-2.65-1.516Zm.19-2.738v2.618l2.272 1.326v-2.618l-2.272-1.326Z" fill="#281407"/><path d="M70.586 82.484v.224l1.29.74v-.224l-1.29-.74ZM70.827 80.469l-.207.293.104.068v1.585l.206.103v-1.567l.103.052-.206-.534ZM68.45 80.813c-.016-.017-.034-.017-.05-.034-.018-.017-.035-.017-.07-.035V81.313l.12.069V80.813ZM67.797 78.712v.999c0 .362.24.81.55 1.016.018.017.035.034.07.034.017.018.034.018.051.035.31.138.551-.017.551-.379v-.999l-1.222-.706Z" fill="#281407"/><path d="M67.797 80.951v.138l1.205.706v-.138l-.551-.327v.035l-.12-.07v-.034l-.534-.31Z" fill="#281407"/><path d="m67.074 81.02.017-3.049 2.651 1.533v3.049l-2.668-1.533Zm.189-2.739V80.9l2.272 1.327.018-2.618-2.29-1.327ZM65.559 77.437c-.448-.258-.827-.051-.827.465.07-.051.172-.051.276.018a.812.812 0 0 1 .275.31.247.247 0 0 1 .224-.018v-.137l.12.069v.137c.087.07.155.155.224.259.07-.052.172-.052.276.017a.813.813 0 0 1 .275.31c-.017-.551-.379-1.171-.843-1.43Z" fill="#281407"/><path d="M65.507 78.057V79.366c0 .138-.103.19-.224.121a.49.49 0 0 1-.224-.379l-.12-.069c0 .207.155.482.344.586.19.103.344.017.344-.19v-1.309l-.12-.069Z" fill="#281407"/><path d="M64.233 79.367V76.3l2.651 1.533v3.065l-2.651-1.532Zm.19-2.722v2.618l2.272 1.326.017-2.618-2.29-1.326Z" fill="#281407"/><path d="m80.984 78.23-3.89 2.239v-1.826l3.89-2.24v1.826Z" fill="#131111"/><path d="m80.916 78.179-3.736 2.153v-1.654l3.736-2.153v1.654Z" fill="#fff"/><path d="M79.177 77.713v.086l1.6-.913V76.8l-1.6.913ZM77.3 78.798v.086l1.601-.93v-.086l-1.601.93ZM80.037 78.419v.086l.74-.43v-.087l-.74.43ZM77.3 79.986v.086l2.462-1.412v-.086L77.3 79.986ZM78.333 78.798v.086l2.445-1.412v-.087l-2.445 1.413ZM77.3 79.4v.087l.757-.448v-.069l-.757.43Z" fill="#131111"/><path d="m84.668 72.408-2.444 1.412-14.427-8.387 2.444-1.413 14.427 8.388Z" fill="#FFDA9F"/><path d="m84.6 74.992-.19-.104-.19.328-.189-.121-.189.344-.207-.12-.189.327-.19-.103-.189.327-.19-.103-.188.327-.19-.103-.19.327-.085-.052V73.82l2.444-1.412v2.446l-.069.138Z" fill="#F7CE92"/><path d="M60.91 82.467V69.514l-14.496 8.371v12.952l14.496-8.37Z" fill="#A1663B"/><path d="M60.91 82.467V69.514l14.479 8.371v12.952l-14.479-8.37Z" fill="#DEAE80"/><path d="M60.91 86.256v12.952l14.479-8.37V77.884l-14.479 8.37Z" fill="#DEAE80"/><path d="m75.389 77.885-14.479 8.37s5.458-2.6 14.479-8.37Z" fill="#7F492A"/><path d="M60.91 86.256v12.952l-14.496-8.37V77.884l14.496 8.37Z" fill="#D8A57A"/><path d="m46.414 77.885 14.496 8.37 14.479-8.37-14.444-8.37-14.53 8.37Z" fill="#E3B786"/><path d="m68.02 82.174-14.444-8.388.534-.327 14.444 8.405-.534.31Z" fill="#7F492A"/><path d="m56.83 89.649-.206.293.103.069v1.584l.206.12v-1.584l.104.052-.207-.534Z" fill="#281407"/><path d="M55.074 91.354v-3.066l2.651 1.533v3.066l-2.651-1.533Zm.207-2.721v2.618l2.29 1.326v-2.618l-2.29-1.326Z" fill="#281407"/><path d="M55.763 91.182v.224l1.29.758v-.224l-1.29-.758ZM56.004 89.167l-.207.31.104.051-.018 1.585.207.12.017-1.584.104.052-.207-.534ZM53.628 89.511c-.017-.017-.035-.017-.052-.034-.017-.018-.034-.018-.051-.035V90.01l.12.07V89.51h-.017Z" fill="#281407"/><path d="M52.974 87.427v.999c0 .362.24.81.55 1.016.018.017.035.035.052.035.017.017.035.017.052.034.31.138.55-.017.55-.379v-.999l-1.204-.706ZM52.956 89.649v.138l1.223.706v-.138l-.551-.31v.034l-.12-.086v-.017l-.552-.327Z" fill="#281407"/><path d="m52.233 89.718.018-3.066 2.65 1.533v3.066l-2.668-1.533Zm.207-2.722v2.618l2.29 1.31v-2.619l-2.29-1.309ZM50.736 86.135c-.448-.258-.827-.052-.827.448.07-.052.172-.052.276.017a.814.814 0 0 1 .275.31.247.247 0 0 1 .224-.017v-.138l.12.069v.138a1.1 1.1 0 0 1 .224.258c.07-.052.172-.052.276.017a.813.813 0 0 1 .275.31c-.017-.516-.396-1.154-.843-1.412Z" fill="#281407"/><path d="M50.667 86.755v1.326c0 .138-.104.19-.224.12a.491.491 0 0 1-.224-.378l-.12-.069c0 .224.155.482.344.586.19.103.327.017.327-.19v-1.326l-.103-.069Z" fill="#281407"/><path d="M49.41 88.082v-3.066l2.651 1.533v3.065l-2.651-1.532Zm.19-2.74v2.619l2.29 1.309v-2.618l-2.29-1.31Z" fill="#281407"/><path d="m66.161 86.927-3.89 2.24v-1.809l3.89-2.239v1.808Z" fill="#131111"/><path d="m66.093 86.894-3.753 2.17v-1.653l3.753-2.153v1.636Z" fill="#fff"/><path d="M64.353 86.428v.069l1.602-.913v-.086l-1.602.93ZM62.477 87.513v.07l1.601-.931v-.069l-1.601.93ZM65.214 87.117v.086l.74-.43v-.087l-.74.431ZM62.477 88.702v.086l2.462-1.43v-.069l-2.462 1.413ZM63.51 87.496v.086l2.445-1.395v-.086l-2.445 1.395ZM62.477 88.099v.086l.757-.448v-.069l-.757.43Z" fill="#131111"/><path d="m69.845 81.123-2.444 1.412-14.444-8.405 2.444-1.412 14.444 8.405Z" fill="#FFDA9F"/><path d="m69.776 83.69-.189-.104-.19.327-.189-.103-.206.327-.19-.103-.189.327-.19-.12-.189.344-.19-.12-.189.327-.206-.103-.19.327-.068-.035v-2.445l2.444-1.413v2.446l-.069.12Z" fill="#F7CE92"/><path d="m90.728 82.467.018-12.953-14.513 8.371v12.952l14.495-8.37Z" fill="#A1663B"/><path d="m90.728 82.467.018-12.953 14.444 8.371v12.952l-14.462-8.37Z" fill="#DEAE80"/><path d="M90.728 86.256v12.952l14.462-8.37V77.884l-14.462 8.37Z" fill="#DEAE80"/><path d="m105.19 77.885-14.479 8.37c.017 0 5.475-2.6 14.479-8.37Z" fill="#7F492A"/><path d="M90.728 86.256v12.952l-14.495-8.37V77.884l14.495 8.37Z" fill="#D8A57A"/><path d="m76.233 77.885 14.495 8.37 14.462-8.37-14.444-8.37-14.513 8.37Z" fill="#E3B786"/><path d="m97.821 82.174-14.444-8.388.551-.327 14.427 8.405-.534.31Z" fill="#7F492A"/><path d="m86.648 89.649-.206.293.103.069-.017 1.584.206.12.017-1.584.087.052-.19-.534Z" fill="#281407"/><path d="M84.892 91.354v-3.066l2.669 1.533v3.066l-2.669-1.533Zm.19-2.721v2.618l2.29 1.326v-2.618l-2.29-1.326Z" fill="#281407"/><path d="M85.564 91.182v.224l1.308.758v-.224l-1.308-.758ZM85.805 89.167l-.207.31.104.051v1.585l.206.12V89.65l.103.052-.206-.534ZM83.429 89.511c-.017-.017-.035-.017-.052-.034-.017-.018-.034-.018-.051-.035V90.01l.12.07V89.51h-.017Z" fill="#281407"/><path d="M82.775 87.427v.999c0 .362.24.81.55 1.016.018.017.035.035.052.035.017.017.035.017.052.034.31.138.55-.017.55-.379v-.999l-1.204-.706ZM82.775 89.649v.138l1.205.706.017-.138-.568-.31v.034l-.103-.086v-.017l-.551-.327Z" fill="#281407"/><path d="M82.052 89.718v-3.066l2.65 1.533v3.066l-2.65-1.533Zm.206-2.722-.017 2.618 2.272 1.31v-2.619l-2.255-1.309ZM80.537 86.135c-.448-.258-.81-.052-.827.448.07-.052.172-.052.276.017a.813.813 0 0 1 .275.31.247.247 0 0 1 .224-.017v-.138l.12.069v.138a.81.81 0 0 1 .224.258c.07-.052.172-.052.276.017a.813.813 0 0 1 .275.31c-.017-.516-.379-1.154-.843-1.412Z" fill="#281407"/><path d="M80.485 86.755v1.326c0 .138-.103.19-.224.12a.491.491 0 0 1-.224-.378l-.12-.069c0 .224.155.482.344.586.19.103.327.017.345-.19v-1.326l-.121-.069Z" fill="#281407"/><path d="M79.21 88.082v-3.066l2.67 1.533-.018 3.065-2.651-1.532Zm.208-2.74-.018 2.619 2.29 1.309v-2.618l-2.272-1.31Z" fill="#281407"/><path d="m95.962 86.927-3.89 2.24v-1.809l3.89-2.239v1.808Z" fill="#131111"/><path d="m95.894 86.894-3.736 2.17v-1.653l3.736-2.153v1.636Z" fill="#fff"/><path d="M94.172 86.428v.069l1.584-.913v-.086l-1.584.93ZM92.278 87.513v.07l1.618-.931v-.069l-1.618.93ZM95.015 87.117v.086l.74-.43v-.087l-.74.431ZM92.295 88.702v.086l2.445-1.43v-.069l-2.445 1.413ZM93.31 87.496v.086l2.445-1.395v-.086l-2.444 1.395ZM92.278 88.099v.086l.775-.448v-.069l-.775.43Z" fill="#131111"/><path d="m99.646 81.123-2.427 1.412-14.444-8.405 2.444-1.412 14.427 8.405Z" fill="#FFDA9F"/><path d="m99.578 83.69-.19-.104-.19.327-.189-.103-.189.327-.19-.103-.189.327-.19-.12-.206.344-.19-.12-.189.327-.189-.103-.19.327-.085-.035.017-2.445 2.427-1.413v2.446l-.069.12Z" fill="#F7CE92"/><path d="M75.75 91.078V78.126l-14.495 8.37v12.936l14.495-8.354Z" fill="#A1663B"/><path d="M75.75 91.078V78.126l14.462 8.37v12.936L75.75 91.078Z" fill="#DEAE80"/><path d="M75.82 94.867v12.952l14.392-8.387V86.497l-14.393 8.37Z" fill="#DEAE80"/><path d="m90.212 86.497-14.393 8.37s5.389-2.618 14.393-8.37Z" fill="#7F492A"/><path d="M75.82 94.867v12.952l-14.565-8.387V86.497l14.564 8.37Z" fill="#D8A57A"/><path d="m61.255 86.514 14.564 8.353 14.393-8.37-14.462-8.37-14.495 8.387Z" fill="#E3B786"/><path d="M82.844 90.785 68.399 82.38l.551-.31 14.427 8.405-.533.31Z" fill="#7F492A"/><path d="m71.653 98.26-.19.293.087.07v1.584l.206.12v-1.584l.104.051-.207-.534Z" fill="#281407"/><path d="M69.914 99.966v-3.049l2.651 1.533v3.066l-2.65-1.55Zm.19-2.722v2.618l2.272 1.309v-2.618l-2.272-1.309Z" fill="#281407"/><path d="M70.586 99.793v.224l1.29.741v-.224l-1.29-.74ZM70.827 97.778l-.207.293.104.069v1.585l.206.12v-1.584l.103.051-.206-.534ZM68.45 98.123c-.016-.018-.034-.018-.05-.035-.018 0-.035-.017-.07-.034V98.622l.12.069V98.123ZM67.797 96.021v1c0 .361.24.809.55 1.016.018.017.035.034.07.034.017.017.034.017.051.035.31.137.551-.018.551-.38v-.998l-1.222-.707Z" fill="#281407"/><path d="M67.797 98.26v.138l1.205.707v-.138l-.551-.328v.035l-.12-.069v-.035l-.534-.31Z" fill="#281407"/><path d="m67.074 98.33.017-3.05 2.651 1.534v3.048l-2.668-1.533Zm.189-2.74v2.619l2.272 1.309.018-2.618-2.29-1.31ZM65.559 94.747c-.448-.258-.827-.052-.827.465.07-.052.172-.052.276.017a.812.812 0 0 1 .275.31.247.247 0 0 1 .224-.017v-.138l.12.069v.138c.087.069.155.172.224.275.07-.051.172-.051.276.018a.813.813 0 0 1 .275.31c-.017-.569-.379-1.189-.843-1.447Z" fill="#281407"/><path d="M65.507 95.367V96.675c0 .139-.103.19-.224.121a.49.49 0 0 1-.224-.379l-.12-.069c0 .207.155.483.344.586.19.103.344.017.344-.19v-1.326l-.12-.051Z" fill="#281407"/><path d="M64.233 96.676v-3.049l2.651 1.533v3.066l-2.651-1.55Zm.19-2.721v2.618l2.272 1.309.017-2.618-2.29-1.31Z" fill="#281407"/><path d="m80.984 95.54-3.89 2.238V95.97l3.89-2.24v1.81Z" fill="#131111"/><path d="m80.916 95.488-3.736 2.153v-1.653l3.736-2.153v1.653Z" fill="#fff"/><path d="M79.177 95.022v.087l1.6-.913v-.086l-1.6.912ZM77.3 96.108v.086l1.601-.93v-.086l-1.601.93ZM80.037 95.729v.086l.74-.43v-.087l-.74.43ZM77.3 97.313v.069l2.462-1.412v-.087l-2.462 1.43ZM78.333 96.108v.086l2.445-1.413v-.086l-2.445 1.413ZM77.3 96.71v.086l.757-.447v-.087l-.757.448Z" fill="#131111"/><path d="m84.668 89.735-2.444 1.412-14.427-8.405 2.444-1.412 14.427 8.405Z" fill="#FFDA9F"/><path d="m84.6 92.301-.19-.103-.19.327-.189-.12-.189.344-.207-.12-.189.327-.19-.104-.189.328-.19-.104-.188.328-.19-.104-.19.327-.085-.034v-2.446l2.444-1.412v2.446l-.069.12Z" fill="#F7CE92"/><g opacity=".3"><path opacity=".3" d="m46.432 77.885 14.478 8.37 14.53-8.387-14.444-8.388-14.564 8.405ZM76.284 77.868l14.444 8.388 14.479-8.37-14.392-8.406-14.53 8.388ZM61.255 86.497l14.564 8.37 14.41-8.37-14.41-8.422-14.564 8.422Z" fill="#CC8425"/></g><path d="M75.75 60.644V47.692L61.256 56.08v12.935l14.495-8.37Z" fill="#A1663B"/><path d="M75.75 60.644V47.692l14.48 8.388v12.935l-14.48-8.37Z" fill="#DEAE80"/><path d="M75.75 64.433v12.953l14.48-8.371V56.08l-14.48 8.353Z" fill="#DEAE80"/><path d="m90.23 56.08-14.48 8.353s5.458-2.6 14.48-8.353Z" fill="#7F492A"/><path d="M75.75 64.433v12.953l-14.495-8.371V56.08l14.495 8.353Z" fill="#D8A57A"/><path d="m61.255 56.097 14.495 8.336 14.48-8.353-14.445-8.388-14.53 8.405Z" fill="#E3B786"/><path d="m82.844 60.352-14.445-8.388.551-.31 14.427 8.387-.533.31Z" fill="#7F492A"/><path d="m71.67 67.844-.206.293.103.051-.017 1.585.224.12V68.31l.103.069-.207-.534Z" fill="#281407"/><path d="m69.914 69.549.017-3.066 2.652 1.533v3.066l-2.669-1.533Zm.19-2.739v2.618l2.272 1.327.017-2.618-2.29-1.327Z" fill="#281407"/><path d="M70.586 69.36v.223l1.308.758v-.224l-1.308-.758ZM70.844 67.362l-.206.292.086.052v1.584l.206.121v-1.585l.104.07-.19-.534ZM68.468 67.689c-.017-.017-.034-.017-.069-.035-.017-.017-.034-.017-.051-.034V68.188l.12.07V67.688Z" fill="#281407"/><path d="M67.797 65.605v.999c0 .361.24.792.55 1.016.018.017.035.034.052.034.017.017.035.017.07.035.309.138.55-.017.55-.38v-.998l-1.222-.706ZM67.797 67.844v.12l1.222.707v-.138l-.55-.31v.034l-.121-.069v-.034l-.551-.31Z" fill="#281407"/><path d="M67.074 67.895v-3.048l2.65 1.533v3.048l-2.65-1.533Zm.189-2.72v2.617l2.272 1.31.018-2.619-2.29-1.309ZM65.576 64.313c-.448-.258-.826-.052-.826.448.068-.052.172-.052.275.017a.813.813 0 0 1 .275.31.246.246 0 0 1 .224-.017v-.138l.12.069v.138a.763.763 0 0 1 .207.258c.07-.052.172-.052.276.017.12.069.206.172.275.31-.017-.516-.379-1.137-.826-1.412Z" fill="#281407"/><path d="M65.507 64.933v1.326c0 .138-.103.19-.224.12a.49.49 0 0 1-.224-.378l-.12-.07c0 .225.155.483.344.586.19.104.344.018.344-.189v-1.326l-.12-.07Z" fill="#281407"/><path d="M64.233 66.26v-3.067l2.668 1.533-.017 3.049-2.651-1.516Zm.19-2.722v2.618l2.29 1.326v-2.618l-2.29-1.326Z" fill="#281407"/><path d="m80.984 65.105-3.873 2.24v-1.826l3.873-2.24v1.826Z" fill="#131111"/><path d="m80.916 65.072-3.736 2.153V65.57l3.736-2.153v1.654Z" fill="#fff"/><path d="M79.194 64.606v.086l1.584-.93v-.07l-1.584.914ZM77.3 65.69v.087l1.618-.93v-.086l-1.618.93ZM80.037 65.312v.086l.74-.43v-.087l-.74.43ZM77.317 66.88v.085l2.445-1.412v-.086l-2.445 1.412ZM78.333 65.69v.087l2.445-1.412v-.087l-2.445 1.413ZM77.3 66.294v.069l.775-.431-.018-.086-.757.448Z" fill="#131111"/><path d="m84.668 59.3-2.444 1.413-14.427-8.388 2.444-1.412 14.427 8.388Z" fill="#FFDA9F"/><path d="m84.6 61.884-.19-.12-.19.327-.189-.103-.189.327-.19-.103-.189.327-.206-.103-.19.327-.19-.103-.188.327-.19-.12-.19.344-.085-.052v-2.446l2.444-1.412v2.446l-.069.137Z" fill="#F7CE92"/><path d="M60.928 69.342V56.407l-14.496 8.371v12.935l14.495-8.37Z" fill="#A1663B"/><path d="M60.928 69.342V56.407l14.461 8.371v12.935l-14.461-8.37Z" fill="#DEAE80"/><path d="M60.928 73.149V86.1l14.461-8.388V64.778l-14.461 8.37Z" fill="#DEAE80"/><path d="m75.389 64.778-14.479 8.37c.018 0 5.475-2.617 14.479-8.37Z" fill="#7F492A"/><path d="M60.928 73.149V86.1l-14.496-8.388V64.778l14.495 8.37Z" fill="#D8A57A"/><path d="m46.432 64.778 14.495 8.37 14.462-8.37-14.427-8.37-14.53 8.37Z" fill="#E3B786"/><path d="m68.02 69.067-14.444-8.405.551-.31 14.427 8.405-.534.31Z" fill="#7F492A"/><path d="m56.847 76.542-.206.293.086.069v1.567l.206.12v-1.584l.104.069-.19-.534Z" fill="#281407"/><path d="M55.091 78.247V75.18l2.651 1.533v3.066l-2.65-1.533Zm.19-2.721v2.618l2.29 1.326v-2.618l-2.29-1.326Z" fill="#281407"/><path d="M55.763 78.075v.224l1.308.74v-.224l-1.308-.74ZM56.004 76.06l-.207.292.104.07v1.584l.206.103v-1.567l.104.051-.207-.534ZM53.645 76.387c-.017 0-.034-.017-.069-.035-.017-.017-.034-.034-.051-.034V76.886l.12.07V76.386Z" fill="#281407"/><path d="M52.974 74.303v.999c0 .361.24.792.55 1.016.018.017.035.017.052.034a.13.13 0 0 1 .07.035c.309.138.55-.017.55-.38v-.998l-1.222-.706ZM52.974 76.542v.138l1.205.706v-.138l-.551-.327v.034l-.12-.069v-.034l-.534-.31Z" fill="#281407"/><path d="m52.25 76.61.018-3.065 2.651 1.533v3.048l-2.668-1.515Zm.19-2.738-.017 2.618 2.29 1.31.017-2.619-2.29-1.309ZM50.736 73.028c-.448-.258-.827-.051-.827.448.07-.052.172-.052.276.017a.813.813 0 0 1 .275.31.247.247 0 0 1 .224-.017v-.138l.12.07v.137a.763.763 0 0 1 .207.258c.069-.051.172-.051.275.018a.813.813 0 0 1 .276.31c0-.534-.362-1.154-.826-1.413Z" fill="#281407"/><path d="M50.684 73.63v1.327c0 .138-.103.19-.224.12a.49.49 0 0 1-.224-.378l-.12-.07c0 .207.155.483.344.586.19.104.344.018.344-.189V73.7l-.12-.07Z" fill="#281407"/><path d="M49.41 74.957v-3.066l2.669 1.533-.018 3.066-2.651-1.533Zm.19-2.721-.018 2.618 2.29 1.309v-2.618l-2.273-1.31Z" fill="#281407"/><path d="m66.161 73.82-3.873 2.24v-1.826l3.873-2.24v1.826Z" fill="#131111"/><path d="m66.093 73.77-3.736 2.17v-1.653l3.736-2.154v1.637Z" fill="#fff"/><path d="m64.353 73.303.018.087 1.584-.913v-.086l-1.602.912ZM62.477 74.389v.086l1.618-.93v-.086l-1.618.93ZM65.214 74.01v.086l.74-.43v-.087l-.74.43ZM62.477 75.594v.07l2.462-1.413v-.086l-2.462 1.43ZM63.51 74.388v.087l2.445-1.413v-.086l-2.445 1.412ZM62.477 74.991v.087l.775-.448v-.086l-.775.447Z" fill="#131111"/><path d="m69.845 67.999-2.427 1.412-14.444-8.388 2.444-1.412 14.427 8.388Z" fill="#FFDA9F"/><path d="m69.776 70.582-.189-.103-.19.327-.189-.12-.189.344-.207-.12-.189.327-.19-.103-.189.327-.19-.104-.189.328-.189-.104-.19.328-.068-.052V69.41L69.845 68v2.463l-.069.12Z" fill="#F7CE92"/><path d="m90.728 69.342.018-12.935-14.513 8.371v12.935l14.495-8.37Z" fill="#A1663B"/><path d="m90.728 69.342.018-12.935 14.461 8.371v12.935l-14.479-8.37Z" fill="#DEAE80"/><path d="M90.728 73.149V86.1l14.479-8.388V64.778l-14.479 8.37Z" fill="#DEAE80"/><path d="m105.207 64.778-14.479 8.37s5.458-2.617 14.479-8.37Z" fill="#7F492A"/><path d="M90.728 73.149V86.1l-14.495-8.388V64.778l14.495 8.37Z" fill="#D8A57A"/><path d="m76.233 64.778 14.495 8.37 14.479-8.37-14.461-8.37-14.513 8.37Z" fill="#E3B786"/><path d="m97.821 69.067-14.444-8.405.551-.31 14.444 8.405-.55.31Z" fill="#7F492A"/><path d="m86.648 76.542-.206.293.103.069v1.567l.206.12v-1.584l.104.069-.207-.534Z" fill="#281407"/><path d="M84.892 78.247V75.18l2.651 1.533v3.066l-2.65-1.533Zm.207-2.721v2.618l2.272 1.326.017-2.618-2.29-1.326Z" fill="#281407"/><path d="M85.58 78.075v.224l1.292.74v-.224l-1.291-.74ZM85.822 76.06l-.207.292.087.07v1.584l.206.103v-1.567l.103.051-.189-.534ZM83.446 76.387c-.017 0-.034-.017-.069-.035-.017-.017-.034-.034-.051-.034V76.886l.12.07V76.386Z" fill="#281407"/><path d="M82.792 74.303v.999c0 .361.24.792.55 1.016.018.017.035.017.052.034.018 0 .035.017.07.035.31.138.55-.017.55-.38v-.998l-1.222-.706ZM82.775 76.542v.138l1.222.706v-.138l-.55-.327v.034l-.121-.069v-.034l-.551-.31Z" fill="#281407"/><path d="m82.052 76.61.017-3.065 2.651 1.533v3.048l-2.668-1.515Zm.206-2.738-.017 2.618 2.29 1.31V75.18l-2.273-1.309ZM80.554 73.028c-.448-.258-.827-.051-.827.448.07-.052.155-.052.276.017a.812.812 0 0 1 .275.31.247.247 0 0 1 .224-.017v-.138l.12.07v.137c.087.069.156.155.224.258.07-.051.155-.051.276.018a.813.813 0 0 1 .275.31c-.034-.534-.396-1.154-.843-1.413Z" fill="#281407"/><path d="M80.485 73.63v1.327c0 .138-.103.19-.224.12a.473.473 0 0 1-.206-.378l-.121-.07c0 .207.155.483.327.586.19.104.344.018.344-.189V73.7l-.12-.07Z" fill="#281407"/><path d="m79.21 74.957.018-3.066 2.651 1.533v3.066l-2.668-1.533Zm.208-2.721v2.618l2.272 1.309v-2.618l-2.272-1.31Z" fill="#281407"/><path d="m95.962 73.82-3.89 2.24v-1.826l3.89-2.24v1.826Z" fill="#131111"/><path d="m95.894 73.77-3.736 2.17v-1.653l3.736-2.154v1.637Z" fill="#fff"/><path d="M94.172 73.303v.087l1.6-.913v-.086l-1.6.912ZM92.295 74.389v.086l1.601-.93v-.086l-1.6.93ZM95.015 74.01v.086l.758-.43v-.087l-.758.43ZM92.295 75.594v.07l2.445-1.413v-.086l-2.445 1.43ZM93.328 74.388v.087l2.445-1.413v-.086l-2.445 1.412ZM92.295 74.991v.087l.758-.448v-.086l-.758.447Z" fill="#131111"/><path d="m99.664 67.999-2.445 1.412-14.444-8.388 2.444-1.412 14.445 8.388Z" fill="#FFDA9F"/><path d="m99.595 70.582-.19-.103-.206.327-.19-.12-.189.344-.19-.12-.189.327-.19-.103-.189.327-.206-.104-.19.328-.189-.104-.19.328-.068-.052V69.41L99.664 68v2.463l-.07.12Z" fill="#F7CE92"/><path d="m75.75 77.954.018-12.935-14.513 8.37v12.936l14.495-8.37Z" fill="#A1663B"/><path d="m75.75 77.954.018-12.935 14.461 8.37v12.936l-14.478-8.37Z" fill="#DEAE80"/><path d="M75.82 81.743v12.952l14.41-8.37V73.39l-14.41 8.353Z" fill="#DEAE80"/><path d="m90.23 73.39-14.394 8.353c-.017 0 5.372-2.6 14.393-8.353Z" fill="#7F492A"/><path d="M75.82 81.743v12.952l-14.565-8.37V73.39l14.564 8.353Z" fill="#D8A57A"/><path d="m61.255 73.407 14.564 8.336 14.41-8.353-14.461-8.37-14.513 8.387Z" fill="#E3B786"/><path d="m82.844 77.661-14.445-8.388.551-.31 14.427 8.388-.533.31Z" fill="#7F492A"/><path d="m71.67 85.154-.206.292.103.052-.017 1.585.224.12V85.62l.103.069-.207-.534Z" fill="#281407"/><path d="m69.914 86.859.017-3.066 2.652 1.533v3.066l-2.669-1.533Zm.19-2.739v2.618l2.272 1.309.017-2.618-2.29-1.309Z" fill="#281407"/><path d="M70.586 86.686v.207l1.308.758v-.224l-1.308-.74ZM70.844 84.671l-.206.293.086.07V86.6l.206.121v-1.585l.104.07-.19-.535ZM68.468 84.999c-.017-.018-.034-.018-.069-.035-.017 0-.034-.017-.051-.034V85.498l.12.069V84.999Z" fill="#281407"/><path d="M67.797 82.915v.998c0 .362.24.793.55 1.017.018.017.035.034.052.034.017.017.035.017.07.035.309.137.55-.018.55-.38v-.998l-1.222-.706ZM67.797 85.136v.155l1.222.69v-.138l-.55-.31v.034l-.121-.069v-.034l-.551-.328Z" fill="#281407"/><path d="M67.074 85.205v-3.048l2.65 1.533v3.048l-2.65-1.533Zm.189-2.721v2.618l2.272 1.309.018-2.618-2.29-1.31ZM65.576 81.623c-.448-.259-.826-.052-.826.447.068-.051.172-.051.275.018a.813.813 0 0 1 .275.31.247.247 0 0 1 .224-.017v-.138l.12.069v.137a.686.686 0 0 1 .207.276c.07-.052.172-.052.276.017a.8.8 0 0 1 .275.31c-.017-.534-.379-1.154-.826-1.43Z" fill="#281407"/><path d="M65.507 82.243V83.55c0 .138-.103.19-.224.121a.49.49 0 0 1-.224-.379l-.12-.069c0 .207.155.483.344.586.19.103.344.017.344-.19v-1.326l-.12-.051Z" fill="#281407"/><path d="M64.233 83.569V80.52l2.668 1.533-.017 3.049-2.651-1.533Zm.19-2.721v2.618l2.29 1.326v-2.618l-2.29-1.326Z" fill="#281407"/><path d="m80.984 82.432-3.873 2.24v-1.827l3.873-2.239v1.826Z" fill="#131111"/><path d="m80.916 82.381-3.736 2.17v-1.653l3.736-2.17v1.653Z" fill="#fff"/><path d="M79.194 81.915v.086l1.584-.93v-.069l-1.584.913ZM77.3 83v.087l1.618-.93v-.087L77.3 83ZM80.037 82.621v.087l.74-.431v-.086l-.74.43ZM77.317 84.189v.086l2.445-1.413v-.086l-2.445 1.413ZM78.333 83v.087l2.445-1.413v-.086L78.333 83ZM77.3 83.603v.07l.775-.431-.018-.087-.757.448Z" fill="#131111"/><path d="m84.668 76.61-2.444 1.413-14.427-8.388 2.444-1.412 14.427 8.388Z" fill="#FFDA9F"/><path d="m84.6 79.194-.19-.12-.19.344-.189-.12-.189.327-.19-.104-.189.328-.206-.104-.19.328-.19-.104-.188.327-.19-.103-.19.327-.085-.051v-2.446l2.444-1.412v2.445l-.069.138Z" fill="#F7CE92"/><path d="M77.093 73.683 153.257 29.4l-.155 55.994-76.164 44.281.155-55.993Z" fill="#FFCB5B"/><path d="m28.39 45.556 76.164-44.281L153.258 29.4 77.094 73.682 28.39 45.556Z" fill="#FFD683"/><path d="m28.39 45.556 48.703 28.126-.155 55.994-48.721-28.143.172-55.977Zm44.726 77.524.138-47.193-41.06-23.717-.138 47.193 41.06 23.717Z" fill="#FFAC06"/><path d="m76.836 73.837 3.908 19.876V150h-2.72l-3.753-76.163h2.565Z" fill="#FFAC06"/><path d="m74.27 73.837 3.908 19.876L78.023 150l-3.908-20.324.155-55.839Z" fill="#FFCB5B"/><path d="m1.12 43.162 29.698 3.617-.173 55.994-.946 1.447L.156 44.609l.964-1.447Z" fill="#FFAC06"/><path d="m.155 44.609 29.698 3.6-.155 56.011L0 100.603l.155-55.994Z" fill="#FFCB5B"/></svg>